<?xml version="1.0" encoding="UTF-8"?>
<svg viewBox="0 0 13000 8611.6" xmlns="http://www.w3.org/2000/svg">
 <defs>.str0 {stroke:#373435;stroke-width:62.9;stroke-linecap:round;stroke-linejoin:round}     .fil3 {fill:#BB916D}     .fil1 {fill:#C09570}     .fil0 {fill:#CF9F77}     .fil2 {fill:#F7F1EA}</defs>
 <g stroke="#373435" stroke-linecap="round" stroke-linejoin="round" stroke-width="62.9">
  <path class="fil0 str0" d="m7602.6 603.92c-1233-75-2623-371-3900-239-1717 283-2887 900-3353 2063-208 1101 88 1522 510 1617 176 950 346 1812 522 2761 63 409 201 459 535 510 2472 315 4938 635 7404 956 849-516 1573-1082 2434-1591 208-113 340-340 296-616-38-283 107-1981 132-2472 403-258 484-686 491-1120 57-201-75-579-409-912-226-421-1673-604-2717-937s-1302 69-1944-19l-1-1z" fill="#cf9f77"/>
  <path class="fil1 str0" d="m9036.6 4798.9l233 3076c0 233-44 283 38 409-2466-321-4932-642-7397-969-333-44-465-88-541-503-170-944-346-1812-516-2755l8184 742h-1z" fill="#c09570"/>
 </g>
 <path class="fil2" d="m9281.6 7868.9c0 233 57 315 208 252 365-214 1717-1233 2202-1453 208-120 333-333 296-616-38-277 107-1981 126-2472 409-258 491-686 497-1120 57-201-75-541-409-874-220-428-1271 579-2384 736-1201 585-1635 1422-761 2466l226 3082-1-1z" fill="#f7f1ea"/>
 <path class="fil3" d="m7904.6 628.92c-1396 264-1874 635-2705 994 31-107 1101-736 1466-906s598-69 1239-88zm-7561 1799c-208 1101 94 1522 516 1623l8190 736c-440-516-465-1069-321-1573-403 491-1151 837-2258 579-874-472-2724-63-3353-327 195-38-1201-31-1623-333-503-164-862-541-1151-705z" fill="#bb916d"/>
</svg>
