<?xml version="1.0" encoding="UTF-8"?>
<!DOCTYPE svg  PUBLIC '-//W3C//DTD SVG 1.1//EN'  'http://www.w3.org/Graphics/SVG/1.1/DTD/svg11.dtd'>
<svg enable-background="new 0 0 48.15 37.85" version="1.1" viewBox="0 0 48.15 37.85" xml:space="preserve" xmlns="http://www.w3.org/2000/svg" xmlns:xlink="http://www.w3.org/1999/xlink">
<symbol id="s" viewBox="0 -10.9 24.8 10.9">
			<linearGradient id="z" x1="-21.844" x2="-5.8437" y1="-31.021" y2="-31.021" gradientTransform="matrix(1 -.0031 .0031 1 25.541 25.525)" gradientUnits="userSpaceOnUse">
			<stop stop-color="#fff" offset="0"/>
			<stop offset="1"/>
		</linearGradient>
		<path d="m24.8-1.5l-3.25-9.4-5.25 0.05c-1.133 0.167-2.4 0.467-3.8 0.9-1.467 0.467-2.683 0.967-3.65 1.5-3.133 1.733-5.55 3.667-7.25 5.8-0.833 1.033-1.367 1.917-1.6 2.65l2.75-0.5c4.867-0.733 10.383-1.1 16.55-1.1l5.5 0.1z" clip-rule="evenodd" fill="url(#z)" fill-rule="evenodd"/>
</symbol>
<symbol id="a" viewBox="-0.368 -26.218 51.301 26.782">
		<defs>
			<path id="aa" d="m25.05-0.55h-5.25c-2.289 1.934-6.289 1.35-12-1.75-5.704-3.1-8.42-5.633-8.15-7.6 0.233-1.967 1.05-3.75 2.45-5.35 1.367-1.567 3.483-3.167 6.35-4.8 1.533-0.034 2.533-0.267 3-0.7 0.466-0.433 1.017-0.75 1.65-0.95 0.633-0.167 1.433-0.267 2.4-0.3s1.717-0.233 2.25-0.6c0.467-0.367 1.617-0.5 3.45-0.4 1.767 0.133 2.95 0.133 3.55 0 0.6-0.1 1.167-0.167 1.7-0.2 0.5-0.033 1.2 0.167 2.1 0.6 0.867 0.434 1.967 0.684 3.3 0.75 1.333 0.1 2.3 0.367 2.9 0.8 0.567 0.433 1.733 0.833 3.5 1.2 1.729 0.402 4.196 2.035 7.4 4.9 3.213 2.861 4.972 5.503 5.275 7.925 0.298 2.425-8.327 4.584-25.875 6.475z"/>
		</defs>
		<clipPath id="r">
			<use xlink:href="#aa"/>
		</clipPath>
		<g clip-path="url(#r)">
				<path d="m46.55-11.35l0.2 0.05c-1.3-3.567-4.1-6.483-8.4-8.75-4.367-2.333-9.35-3.5-14.95-3.5-5.633 0-10.65 1.183-15.05 3.55-4.333 2.3-7.117 5.25-8.35 8.85l0.35-0.05c1.333-0.867 4.133-1.583 8.4-2.15 4.367-0.566 9.3-0.85 14.8-0.85 5.4 0 10.233 0.267 14.5 0.8 4.2 0.533 7.033 1.217 8.5 2.05z" clip-rule="evenodd" fill="#D7EAF2" fill-rule="evenodd"/>
				<path d="m44.7-12.1c-0.3-0.8-0.784-1.633-1.45-2.5-1.267-1.7-3.233-3.417-5.9-5.15-2.2-1.467-4.783-2.55-7.75-3.25l-2.4-0.35c4.033 1.233 6.933 3.033 8.7 5.4 0.767 1.067 1.25 2.05 1.45 2.95 0.1 0.833 0.167 1.367 0.2 1.6 3.033 0.333 5.417 0.767 7.15 1.3z" clip-rule="evenodd" fill="#BDD4DE" fill-rule="evenodd"/>
					<use transform="translate(4.25 -12.6)" y="-10.9" width="24.8" height="10.9" enable-background="new" opacity=".4414" xlink:href="#s"/>
				<path d="m3.8-15.85c2.112-2.499 4.779-4.407 8-5.725-2.75 1.017-5.117 2.342-7.1 3.975-2.3 1.9-3.867 4.05-4.7 6.45l0.35-0.05 0.8-0.4c0.567-1.4 1.45-2.817 2.65-4.25z" clip-rule="evenodd" fill="#BDD4DE" fill-rule="evenodd"/>
				<linearGradient id="ab" x1="1.1001" x2="46.15" y1="-10.225" y2="-10.225" gradientUnits="userSpaceOnUse">
					<stop stop-color="#9CADB5" offset="0"/>
					<stop stop-color="#E0E0E0" offset="1"/>
				</linearGradient>
				<path d="m39.55-4.25c4.4-1.633 6.6-3.617 6.6-5.95s-2.2-4.333-6.6-6-9.7-2.5-15.9-2.5c-6.233 0-11.55 0.833-15.95 2.5s-6.6 3.667-6.6 6 2.2 4.317 6.6 5.95c4.4 1.667 9.716 2.5 15.95 2.5 6.2 0 11.5-0.833 15.9-2.5z" clip-rule="evenodd" fill="url(#ab)" fill-rule="evenodd"/>
				<path d="m46.7-9.65h-1.45c-0.3 2.066-2.55 3.816-6.75 5.25-4.167 1.433-9.167 2.15-15 2.15-5.8 0-10.783-0.717-14.95-2.15-4.2-1.433-6.45-3.183-6.75-5.25h-1.7c0.533 2.267 3.017 4.167 7.45 5.7 4.5 1.534 9.784 2.3 15.85 2.3 6.1 0 11.383-0.767 15.85-2.3 4.433-1.533 6.917-3.433 7.45-5.7z" clip-rule="evenodd" fill="#fff" fill-rule="evenodd"/>
					<radialGradient id="ac" cx="24.25" cy="-10.95" r="15.838" gradientTransform="matrix(1 0 0 -1 0 -21.9)" gradientUnits="userSpaceOnUse">
					<stop stop-color="#fe0" offset="0"/>
					<stop stop-color="#9E8C17" offset="1"/>
				</radialGradient>
				<path d="m44.95-13.1c-1.5-0.867-3.667-1.816-6.5-2.85-4.1-1.5-7.617-2.267-10.55-2.3-3.233-0.033-6.733 0.133-10.5 0.5-3.533 0.3-6.183 0.667-7.95 1.1-1.5 0.367-2.967 0.933-4.4 1.7-1.267 0.667-1.933 1.133-2 1.4-0.033 0.133 0.184 0.4 0.65 0.8 0.5 0.433 0.767 0.7 0.8 0.8 0.533 1.467 2.65 2.733 6.35 3.8 0.967 0.267 1.95 1.066 2.95 2.4 0.934 1.267 1.7 1.917 2.3 1.95 3.333 0.267 5.917 0.25 7.75-0.05 0.7-0.1 1.783-0.45 3.25-1.05 1.2-0.5 2.217-0.733 3.05-0.7 0.767 0 2.5 0.117 5.2 0.35 2.433 0.1 3.933-0.1 4.5-0.6 0.867-0.833 1.75-1.833 2.65-3 1.067-1.433 1.583-2.4 1.55-2.9 0-0.367 0.333-0.617 1-0.75 0.433-0.1 0.4-0.3-0.1-0.6z" clip-rule="evenodd" fill="url(#ac)" fill-rule="evenodd"/>
				<path d="m16.1-3.8c0.967 0.167 1.133-0.067 0.5-0.7-0.833-0.833-1.133-1.35-0.9-1.55 0.267-0.267 0.833-0.217 1.7 0.15 0.8 0.3 1.233 0.367 1.3 0.2 0.133-0.367-0.117-0.683-0.75-0.95-0.733-0.3-1.684-0.333-2.85-0.1-1.133 0.2-1.45 0.717-0.95 1.55 0.5 0.767 1.15 1.233 1.95 1.4z" clip-rule="evenodd" fill="#A8920C" fill-rule="evenodd"/>
				<path d="m17.25-8.65c0.5 0.033 0.75-0.183 0.75-0.65 0-0.3-0.067-0.767-0.2-1.4-0.066-0.466-0.25-0.867-0.55-1.2-0.333-0.367-0.717-0.517-1.15-0.45-0.367 0.033-0.967 0.017-1.8-0.05l-1.2-0.1c0.1 0.2 0.283 0.4 0.55 0.6 0.5 0.433 1.133 0.667 1.9 0.7 0.667 0.067 0.983 0.483 0.95 1.25-0.033 0.8 0.217 1.233 0.75 1.3z" clip-rule="evenodd" fill="#A8920C" fill-rule="evenodd"/>
				<path d="m37.15-9.15c1.2-0.3 1.467-0.85 0.8-1.65-0.667-0.767-1.684-0.967-3.05-0.6-1.3 0.333-1.517 0.85-0.65 1.55 0.833 0.733 1.8 0.967 2.9 0.7z" clip-rule="evenodd" fill="#A8920C" fill-rule="evenodd"/>
				<path d="m42.05-11.55c-0.667 0.333-1.5 0.816-2.5 1.45-1.333 0.833-2.1 1.317-2.3 1.45-1.133 0.633-2.733 0.867-4.8 0.7-1.067-0.167-1.934-0.283-2.6-0.35-1.2-0.1-2.1-0.034-2.7 0.2-0.267 0.1-0.6 0.4-1 0.9-0.267 0.3-0.917 0.434-1.95 0.4-0.934-0.034-2.167-0.267-3.7-0.7s-2.617-0.667-3.25-0.7c-1.233-0.066-2.133-0.183-2.7-0.35-0.767-0.2-1.35-0.6-1.75-1.2-0.6-0.867-1.083-1.467-1.45-1.8-0.567-0.6-1.2-0.95-1.9-1.05-0.833-0.133-1.617-0.35-2.35-0.65-0.833-0.3-1.267-0.567-1.3-0.8-0.095-0.262-0.095-0.52 0-0.775-0.817 0.311-1.35 0.57-1.6 0.775-0.8 0.7-0.65 1.283 0.45 1.75 0.9 0.367 2.017 0.55 3.35 0.55 0.933 0 1.667 0.2 2.2 0.6 0.233 0.167 0.65 0.6 1.25 1.3 0.267 0.3 0.65 0.8 1.15 1.5 0.566 0.533 1.45 0.783 2.65 0.75 1.133-0.033 2.2 0.15 3.2 0.55 0.533 0.2 1.233 0.5 2.1 0.9 0.733 0.2 1.317 0.3 1.75 0.3 0.534-0.033 1.4-0.183 2.6-0.45 0.467-0.1 1.067-0.434 1.8-1 0.4-0.333 1.466-0.434 3.2-0.3 1.5 0.1 3.117 0.25 4.85 0.45 1.133 0 2.15-0.383 3.05-1.15 0.633-0.567 1.833-1.267 3.6-2.1 1.367-0.667 2.017-1.167 1.95-1.5-0.067-0.733-0.2-1.417-0.4-2.05-0.267-0.833-0.517-1.066-0.75-0.7-0.1 0.167 0.017 0.683 0.35 1.55 0.3 0.733 0.133 1.25-0.5 1.55zm-11.45 0c-1.233 0.5-2.083 0.833-2.55 1-0.8 0.233-1.433 0.216-1.9-0.05-0.233-0.133-0.95-0.4-2.15-0.8-0.933-0.333-1.55-0.65-1.85-0.95-0.633-0.8-1.133-1.417-1.5-1.85-0.733-0.867-1.316-1.367-1.75-1.5-0.667-0.2-1.483-0.316-2.45-0.35-1.1-0.034-1.8 0.117-2.1 0.45-0.367 0.434-0.65 0.7-0.85 0.8-0.3 0.167-0.833 0.283-1.6 0.35-0.767 0.1-1.566-0.05-2.4-0.45-0.767-0.367-1.05-0.667-0.85-0.9l0.025-0.025c-0.624 0.199-1.182 0.382-1.675 0.55 0.079 0.051 0.162 0.11 0.25 0.175 0.767 0.567 1.75 1.083 2.95 1.55 1.333 0.5 2.3 0.65 2.9 0.45 0.3-0.066 0.767-0.533 1.4-1.4 0.5-0.667 1.15-0.917 1.95-0.75 1.1 0.267 1.85 0.517 2.25 0.75 0.433 0.3 0.833 0.8 1.2 1.5 1.033 1.867 2.283 2.8 3.75 2.8 0.434 0 0.967 0.233 1.6 0.7 0.5 0.333 1.167 0.367 2 0.1 1.467-0.467 3.017-0.867 4.65-1.2 0.633-0.167 1.517-0.183 2.65-0.05 0.9 0.1 1.617-0.033 2.15-0.4 0.667-0.5 1.033-0.867 1.1-1.1 0-0.067-0.083-0.483-0.25-1.25-0.1-0.434 0.083-1.117 0.55-2.05 0.333-0.667 0.316-1.033-0.05-1.1-0.367-0.034-0.683-0.133-0.95-0.3-0.067-0.033-0.133 0.033-0.2 0.2-0.066 0.3-0.117 0.816-0.15 1.55-0.067 0.867-0.05 1.533 0.05 2 0.267 1.133-0.367 1.7-1.9 1.7-0.2 0-0.867-0.117-2-0.35-0.733-0.133-1.5-0.067-2.3 0.2zm-9.6-5.65c-1.133-0.167-1.8-0.267-2-0.3-0.4-0.133-0.667-0.217-0.8-0.25-0.2-0.067-0.667-0.1-1.4-0.1-0.396 0-1.012 0.092-1.85 0.275 0.416 0.098 1.233 0.339 2.45 0.725 1.2 0.367 2.117 0.55 2.75 0.55h1.95c0.533 0.1 1.017 0.417 1.45 0.95 0.567 0.667 1.45 1.15 2.65 1.45 1.3 0.367 2.25 0.3 2.85-0.2 1.1-0.867 2.4-1.35 3.9-1.45 0.367-0.034 0.816-0.117 1.35-0.25 0.567-0.133 0.917-0.267 1.05-0.4 0.2-0.133 0.2-0.4 0-0.8-0.2-0.433-0.5-0.6-0.9-0.5-0.3 0.1-0.883 0.367-1.75 0.8-1.034 0.534-1.784 0.9-2.25 1.1-1.167 0.467-1.883 0.733-2.15 0.8-0.767 0.233-1.45 0.216-2.05-0.05-0.467-0.2-1.017-0.533-1.65-1-0.6-0.467-1.083-0.767-1.45-0.9-0.433-0.2-1.15-0.35-2.15-0.45zm-15.2 2.375c0.346-0.143 0.746-0.292 1.2-0.45-0.499-0.29-0.849-0.248-1.05 0.125-0.067 0.106-0.117 0.213-0.15 0.325zm5.5-2.175c-1.472 0.491-2.347 0.882-2.625 1.175 0.483-0.147 1.008-0.306 1.575-0.475 1.978-0.596 3.544-1.021 4.7-1.275-0.06-9e-3 -0.11-0.018-0.15-0.025-0.7-0.1-1.867 0.1-3.5 0.6z" clip-rule="evenodd" fill="#A8920C" fill-rule="evenodd"/>
				<path d="m42.25-8.1c-0.533 0.733-1.283 1.183-2.25 1.35-2.167 0.433-4.2 0.7-6.1 0.8-0.9 0.067-1.933 0.5-3.1 1.3-1.233 0.833-2.167 1.3-2.8 1.4-1.233 0.4-2.167 0.667-2.8 0.8-1.034 0.2-2.133-0.066-3.3-0.8-1.633-1.133-2.783-1.917-3.45-2.35-1.067-0.7-1.983-1.083-2.75-1.15-0.233-0.033-1.333 0.067-3.3 0.3-1.367 0.167-2.35 0.017-2.95-0.45-1.2-1.033-2.067-1.767-2.6-2.2-0.9-0.8-1.267-0.917-1.1-0.35 0.833 2.667 2.267 4 4.3 4h1.9c2.966-0.333 4.95-0.066 5.95 0.8 1.2 1 2.434 1.833 3.7 2.5 1.9 1.033 3.433 1.417 4.6 1.15 0.767-0.2 1.933-0.867 3.5-2 1.466-1.033 2.816-1.633 4.05-1.8 1.167-0.167 2.633-0.383 4.4-0.65 1.367-0.233 2.434-0.55 3.2-0.95 0.9-0.5 1.65-1.083 2.25-1.75 0.633-0.733 0.917-1.367 0.85-1.9-0.067-0.6-0.65-1.233-1.75-1.9-1.133-0.7-2.383-1.133-3.75-1.3-1-0.1-2.083-0.583-3.25-1.45-1.1-0.833-1.9-1.25-2.4-1.25h-1.6c-0.2 0.034-0.3 0.117-0.3 0.25 0 0.233 0.5 0.55 1.5 0.95 0.8 0.3 2.583 0.95 5.35 1.95 2.467 0.966 3.883 1.767 4.25 2.4 0.433 0.767 0.35 1.533-0.25 2.3z" clip-rule="evenodd" fill="#947E1C" fill-rule="evenodd"/>
					<radialGradient id="ad" cx="1075.7" cy="-17161" r="19.718" gradientTransform="matrix(-.109 -.994 -.9281 .1166 -15788 3069.2)" gradientUnits="userSpaceOnUse">
					<stop stop-color="#E8DE3A" offset="0"/>
					<stop stop-color="#B8A00D" offset="1"/>
				</radialGradient>
				<path d="m41.9-7.7c-0.566 0.733-1.316 1.184-2.25 1.35-2.167 0.434-4.2 0.7-6.1 0.8-0.9 0.066-1.933 0.5-3.1 1.3-1.267 0.833-2.217 1.3-2.85 1.4-1.233 0.4-2.15 0.667-2.75 0.8-1.033 0.2-2.133-0.067-3.3-0.8-1.667-1.133-2.816-1.917-3.45-2.35-1.067-0.7-2-1.083-2.8-1.15-0.233-0.033-1.316 0.067-3.25 0.3-1.4 0.133-2.383-0.017-2.95-0.45-1.2-1.033-2.067-1.767-2.6-2.2-0.933-0.8-1.317-0.917-1.15-0.35 0.4 1.3 0.983 2.283 1.75 2.95 0.733 0.7 1.583 1.05 2.55 1.05h1.95c2.967-0.333 4.95-0.067 5.95 0.8 1.133 0.967 2.367 1.8 3.7 2.5 1.9 1.033 3.433 1.417 4.6 1.15 0.767-0.2 1.933-0.867 3.5-2 1.467-1.066 2.816-1.683 4.05-1.85 2.833-0.367 4.3-0.566 4.4-0.6 1.333-0.233 2.383-0.55 3.15-0.95 0.933-0.5 1.7-1.083 2.3-1.75 0.6-0.733 0.867-1.367 0.8-1.9-0.066-0.6-0.633-1.233-1.7-1.9-1.167-0.733-2.417-1.167-3.75-1.3-1.033-0.1-2.117-0.583-3.25-1.45-1.1-0.833-1.9-1.25-2.4-1.25h-1.65l1.15 0.9c0.933 0.7 1.9 1.25 2.9 1.65 0.8 0.3 2.117 0.717 3.95 1.25 1.534 0.533 2.483 1.117 2.85 1.75 0.433 0.767 0.35 1.533-0.25 2.3z" clip-rule="evenodd" fill="url(#ad)" fill-rule="evenodd"/>
				<path d="m42-8.55c-1.1 0-2.217 0.466-3.35 1.4-0.566 0.467-1.383 1.316-2.45 2.55-0.6 0.733-1.65 1.05-3.15 0.95-1.3-0.067-2.417-0.383-3.35-0.95-1.3-0.733-2.25-1.4-2.85-2-0.833-0.833-0.583-1.217 0.75-1.15 0.3 0 1.45 0.267 3.45 0.8 0.967 0.267 1.9 0 2.8-0.8 0.733-0.7 1.55-1.533 2.45-2.5 0.733-0.6 1.65-0.833 2.75-0.7 1.367 0.2 2.517-0.133 3.45-1 0.967-0.833 0.75-1.55-0.65-2.15-1.233-0.533-2-0.75-2.3-0.65l-0.05 0.3 1.25 0.75c0.633 0.567 0.55 1.017-0.25 1.35-0.567 0.233-1.433 0.383-2.6 0.45-0.933 0.033-1.65 0.25-2.15 0.65-0.833 0.9-1.467 1.567-1.9 2-0.767 0.833-1.517 1.283-2.25 1.35-0.567 0.033-1.383-0.05-2.45-0.25-1.2-0.267-2.25-0.4-3.15-0.4-0.5 0-1.483-0.15-2.95-0.45-0.7-0.167-1.2 0.033-1.5 0.6-0.066 0.133-0.466 1.083-1.2 2.85-0.533 1.267-0.983 2.066-1.35 2.4-0.7 0.667-1.5 1.05-2.4 1.15-1.2 0.2-1.934-0.4-2.2-1.8-0.233-1.3 0.184-2.483 1.25-3.55 0.6-0.566 1.517-1.333 2.75-2.3 1.767-1.867 2.367-3.083 1.8-3.65-0.6-0.667-1.017-1.067-1.25-1.2-0.767-0.367-1.784-0.35-3.05 0.05-1.233 0.4-2.6 1.034-4.1 1.9-1.466 0.9-2.417 1.483-2.85 1.75-0.667 0.4-1.617 0.55-2.85 0.45-1.2-0.133-1.883-0.433-2.05-0.9-0.133-0.467 0.117-0.9 0.75-1.3 0.6-0.367 1.434-0.65 2.5-0.85 0.667-0.133 1.417-0.267 2.25-0.4 0.7-0.1 1.483-0.317 2.35-0.65 0.233-0.1 1.167-0.85 2.8-2.25 1.133-1 2.233-1.25 3.3-0.75 0.6 0.267 1.617 1.233 3.05 2.9 1.167 1.367 2.517 2.15 4.05 2.35 1.333 0.133 2.583 0.284 3.75 0.45 0.7-0.033 1.767-0.4 3.2-1.1 1.167-0.566 2.217-0.933 3.15-1.1 0.533-0.1 0.867-0.267 1-0.5 0.3-0.533 1.35-1.167 3.15-1.9l-2.25-0.6c0.033 0.167-0.05 0.367-0.25 0.6-0.367 0.467-1.067 0.9-2.1 1.3-1.467 0.633-2.483 1.066-3.05 1.3-1 0.433-1.917 0.683-2.75 0.75-1 0.067-2.067-0.033-3.2-0.3-1-0.233-1.867-0.55-2.6-0.95-0.5-0.3-1.133-0.9-1.9-1.8-0.8-0.967-1.25-1.483-1.35-1.55-1.2-1-2.583-1.267-4.15-0.8-0.7 0.2-1.5 0.667-2.4 1.4-0.867 0.733-1.75 1.217-2.65 1.45-1.767 0.433-3.067 0.767-3.9 1-1.5 0.433-2.566 0.85-3.2 1.25-1.567 0.966-2.3 1.883-2.2 2.75 0.133 1.133 1.167 1.867 3.1 2.2s3.517 0.1 4.75-0.7c0.8-0.534 1.867-1.367 3.2-2.5 1.367-0.934 2.966-1.517 4.8-1.75 1.933-0.267 2.333 0.3 1.2 1.7-0.367 0.467-1.717 1.8-4.05 4-1.3 1.233-2 2.333-2.1 3.3-0.1 1.033 0.45 2.05 1.65 3.05 1.2 0.967 2.517 1.167 3.95 0.6 1.333-0.533 2.4-1.533 3.2-3 0.5-0.9 0.8-2.05 0.9-3.45 0.167-0.7 0.9-0.6 2.2 0.3 2.8 1.9 4.683 3.1 5.65 3.6 2.333 1.2 4.117 1.534 5.35 1 1.033-0.466 1.683-1.017 1.95-1.65 0.4-0.867 0.883-1.533 1.45-2 1.7-1.433 3.566-1.867 5.6-1.3 0.633 0.2 1.483-0.1 2.55-0.9s1.65-1.184 1.75-1.15c0.6 0.2 0.983 0.233 1.15 0.1 0.067-0.066 0.083-0.15 0.05-0.25 0-0.833-0.25-1.25-0.75-1.25-0.2 0-0.583 0.3-1.15 0.9-0.566 0.667-1.066 1.05-1.5 1.15-0.466 0.1-1.017 0.133-1.65 0.1-1.233-0.067-2.117-0.1-2.65-0.1z" clip-rule="evenodd" fill="#A8920C" fill-rule="evenodd"/>
					<radialGradient id="ae" cx="1079.8" cy="-17161" r="24.445" gradientTransform="matrix(-.1089 -.9941 -.9281 .1171 -15787 3081.1)" gradientUnits="userSpaceOnUse">
					<stop stop-color="#fe0" offset="0"/>
					<stop stop-color="#DBC221" offset="1"/>
				</radialGradient>
				<path d="m41.7-8.25c-1.1 0-2.217 0.467-3.35 1.4-0.6 0.5-1.417 1.367-2.45 2.6-0.6 0.7-1.633 1.017-3.1 0.95-1.3-0.1-2.433-0.417-3.4-0.95-1.267-0.733-2.217-1.4-2.85-2-0.867-0.867-0.617-1.267 0.75-1.2 0.3 0 1.45 0.267 3.45 0.8 0.967 0.267 1.9 0 2.8-0.8 0.733-0.7 1.55-1.533 2.45-2.5 0.733-0.566 1.65-0.783 2.75-0.65 1.367 0.167 2.517-0.167 3.45-1 0.966-0.867 0.75-1.6-0.65-2.2-1.233-0.534-2-0.733-2.3-0.6l-0.05 0.3 1.25 0.7c0.633 0.566 0.55 1.017-0.25 1.35-0.567 0.233-1.434 0.383-2.6 0.45-0.934 0.033-1.65 0.25-2.15 0.65-0.833 0.9-1.467 1.583-1.9 2.05-0.767 0.8-1.517 1.233-2.25 1.3-0.566 0.033-1.383-0.05-2.45-0.25-1.2-0.267-2.25-0.4-3.15-0.4-0.5 0-1.483-0.15-2.95-0.45-0.7-0.133-1.2 0.067-1.5 0.6-0.067 0.133-0.467 1.083-1.2 2.85-0.533 1.267-0.983 2.067-1.35 2.4-0.7 0.667-1.5 1.067-2.4 1.2-1.2 0.167-1.933-0.434-2.2-1.8-0.233-1.333 0.183-2.517 1.25-3.55 0.6-0.6 1.533-1.383 2.8-2.35 1.7-1.867 2.283-3.083 1.75-3.65-0.6-0.633-1.017-1.017-1.25-1.15-0.767-0.367-1.783-0.35-3.05 0.05-1.233 0.4-2.6 1.033-4.1 1.9-1.467 0.9-2.417 1.483-2.85 1.75-0.667 0.4-1.617 0.534-2.85 0.4-1.2-0.133-1.883-0.434-2.05-0.9-0.133-0.466 0.133-0.9 0.8-1.3 0.6-0.367 1.417-0.65 2.45-0.85 0.033 0 0.783-0.117 2.25-0.35 0.733-0.1 1.517-0.316 2.35-0.65 0.267-0.1 1.217-0.867 2.85-2.3 1.1-1 2.183-1.25 3.25-0.75 0.566 0.3 1.583 1.283 3.05 2.95 1.167 1.367 2.517 2.133 4.05 2.3 2.467 0.3 3.717 0.45 3.75 0.45 0.667 0 1.733-0.367 3.2-1.1 1.167-0.567 2.217-0.917 3.15-1.05 0.533-0.1 0.867-0.267 1-0.5 0.3-0.533 1.35-1.167 3.15-1.9l-2.25-0.65c0.034 0.167-0.05 0.367-0.25 0.6-0.367 0.466-1.066 0.9-2.1 1.3-1.467 0.633-2.483 1.067-3.05 1.3-1 0.434-1.917 0.684-2.75 0.75-1 0.067-2.05-0.017-3.15-0.25-1.067-0.267-1.95-0.6-2.65-1-0.5-0.3-1.133-0.9-1.9-1.8-0.833-0.967-1.284-1.483-1.35-1.55-1.233-0.934-2.617-1.2-4.15-0.8-0.667 0.2-1.467 0.684-2.4 1.45-0.867 0.733-1.75 1.2-2.65 1.4-1.767 0.433-3.066 0.767-3.9 1-1.5 0.433-2.567 0.85-3.2 1.25-1.533 0.967-2.267 1.9-2.2 2.8 0.133 1.1 1.167 1.817 3.1 2.15 1.933 0.367 3.517 0.15 4.75-0.65 0.8-0.533 1.867-1.367 3.2-2.5 1.367-0.933 2.967-1.533 4.8-1.8 1.933-0.267 2.333 0.3 1.2 1.7-0.467 0.6-1.816 1.933-4.05 4-1.3 1.233-2 2.333-2.1 3.3-0.1 1.033 0.467 2.05 1.7 3.05 1.2 1 2.517 1.2 3.95 0.6 1.3-0.5 2.35-1.483 3.15-2.95 0.067-0.1 0.367-1.25 0.9-3.45 0.167-0.7 0.9-0.617 2.2 0.25 2.7 1.867 4.583 3.083 5.65 3.65 2.333 1.2 4.117 1.517 5.35 0.95 1.033-0.467 1.684-1.017 1.95-1.65 0.4-0.867 0.883-1.534 1.45-2 1.7-1.467 3.583-1.883 5.65-1.25 0.767 0.2 1.5 0.15 2.2-0.15 0.667-0.3 1.117-0.733 1.35-1.3 0.3-0.733 0.933-1 1.9-0.8 0-0.833-0.25-1.25-0.75-1.25-0.2 0-0.583 0.3-1.15 0.9-0.567 0.667-1.067 1.05-1.5 1.15-0.467 0.133-1.017 0.183-1.65 0.15-1.233-0.1-2.117-0.15-2.65-0.15z" clip-rule="evenodd" fill="url(#ae)" fill-rule="evenodd"/>
				<path d="m42.5-9.75c0.9-0.367 1.517-0.783 1.85-1.25 0.433-0.567 0.517-1.283 0.25-2.15-0.133-0.434-0.317-0.8-0.55-1.1l-1.55-0.9 1.05 2c0.467 0.833 0.05 1.7-1.25 2.6-0.466 0.333-1.65 0.966-3.55 1.9-0.933 0.8-1.65 1.283-2.15 1.45-0.8 0.2-2.333-0.3-4.6-1.5-2.133-1.133-4.317-1.7-6.55-1.7-2.367-0.033-3.567-0.05-3.6-0.05-0.5-0.233-1.367-0.133-2.6 0.3-1.433 0.5-2.6 0.733-3.5 0.7-1.167-0.033-2.15-0.45-2.95-1.25-0.133-0.167-0.6-0.833-1.4-2-0.233-0.333-0.65-0.816-1.25-1.45-0.433-0.6-0.5-1.25-0.2-1.95s1.167-1.283 2.6-1.75c0.7-0.267 1.367-0.45 2-0.55-0.466-0.1-1.7 0.117-3.7 0.65-2.6 0.7-3.367 1.867-2.3 3.5 0.267 0.367 0.617 0.717 1.05 1.05 0.367 0.3 0.767 0.85 1.2 1.65 0.7 1.267 1.833 2.233 3.4 2.9 1.867 0.767 3.767 0.7 5.7-0.2 0.6-0.3 1.2-0.483 1.8-0.55 0.333-0.033 1.05-0.05 2.15-0.05 2.467 0 4.267 0.25 5.4 0.75 0.433 0.167 1.45 0.617 3.05 1.35 1.534 0.633 2.684 0.95 3.45 0.95 0.867 0 1.6-0.15 2.2-0.45 0.433-0.233 1.133-0.75 2.1-1.55 0.533-0.433 1.35-0.883 2.45-1.35z" clip-rule="evenodd" fill="#A8920C" fill-rule="evenodd"/>
					<radialGradient id="af" cx="1082" cy="-17160" r="17.982" gradientTransform="matrix(-.1091 -.994 -.928 .1168 -15783 3072.4)" gradientUnits="userSpaceOnUse">
					<stop stop-color="#fe0" offset="0"/>
					<stop stop-color="#DBC221" offset="1"/>
				</radialGradient>
				<path d="m42.2-9.25c0.9-0.4 1.517-0.833 1.85-1.3 0.434-0.567 0.517-1.284 0.25-2.15-0.133-0.433-0.3-0.8-0.5-1.1l-1.6-0.85 1.05 1.95c0.467 0.867 0.05 1.75-1.25 2.65-0.333 0.233-1.517 0.867-3.55 1.9-0.934 0.8-1.65 1.267-2.15 1.4-0.8 0.2-2.333-0.3-4.6-1.5-2.133-1.133-4.317-1.7-6.55-1.7-2.333 0-3.533-0.017-3.6-0.05-0.5-0.2-1.367-0.083-2.6 0.35-1.434 0.5-2.6 0.733-3.5 0.7-1.167-0.033-2.15-0.466-2.95-1.3-0.067-0.067-0.533-0.717-1.4-1.95-0.233-0.367-0.65-0.867-1.25-1.5-0.434-0.566-0.5-1.2-0.2-1.9s1.167-1.3 2.6-1.8c0.7-0.267 1.367-0.45 2-0.55-0.467-0.1-1.7 0.117-3.7 0.65-2.6 0.7-3.367 1.867-2.3 3.5 0.267 0.4 0.617 0.767 1.05 1.1 0.367 0.267 0.767 0.8 1.2 1.6 0.733 1.3 1.867 2.267 3.4 2.9 1.867 0.8 3.767 0.733 5.7-0.2 0.6-0.3 1.2-0.467 1.8-0.5 0.233-0.033 0.95-0.05 2.15-0.05 2.534 0 4.333 0.233 5.4 0.7 0.433 0.167 1.45 0.617 3.05 1.35 1.533 0.633 2.683 0.95 3.45 0.95 0.867 0 1.6-0.15 2.2-0.45 0.4-0.2 1.1-0.7 2.1-1.5 0.533-0.433 1.35-0.883 2.45-1.35z" clip-rule="evenodd" fill="url(#af)" fill-rule="evenodd"/>
					<radialGradient id="ag" cx="1082" cy="-17158" r="16.486" gradientTransform="matrix(-.1092 -.994 -.9281 .1168 -15780 3071.4)" gradientUnits="userSpaceOnUse">
					<stop stop-color="#fe0" offset="0"/>
					<stop stop-color="#DBC221" offset="1"/>
				</radialGradient>
				<path d="m43.25-12.7c-0.7 1.067-1.667 2.333-2.9 3.8-0.6 0.733-1.083 1.183-1.45 1.35-0.5 0.267-1.083 0.216-1.75-0.15-0.9-0.533-1.65-1.117-2.25-1.75-0.767-0.833-1.1-1.6-1-2.3 0.367-2.267 0.55-3.817 0.55-4.65 0-1.633-2.583-2.35-7.75-2.15-0.467 0-0.55 0.85-0.25 2.55 0.333 1.9-0.117 3.167-1.35 3.8-1.3 0.633-2.434 0.633-3.4 0-1.5-1-2.467-1.533-2.9-1.6-1.267-0.2-2.433-0.633-3.5-1.3-0.933-0.6-1.583-1.2-1.95-1.8-0.434-0.7-1-0.983-1.7-0.85 0.167 0.367 0.417 0.8 0.75 1.3 0.667 0.934 1.467 1.617 2.4 2.05 0.5 0.267 1.684 0.75 3.55 1.45 1.4 0.534 2.333 1 2.8 1.4 0.6 0.533 1.417 0.833 2.45 0.9 1.033 0.033 1.917-0.184 2.65-0.65 1.4-0.934 2.1-2.4 2.1-4.4 0-1.1 0.017-1.667 0.05-1.7 0.1-0.333 0.6-0.517 1.5-0.55 1.133-0.1 2.1 0.1 2.9 0.6 0.9 0.533 1.2 1.283 0.9 2.25-0.5 1.233-0.833 2.117-1 2.65-0.233 0.9-0.083 1.717 0.45 2.45 0.867 1.333 2 2.35 3.4 3.05 1.833 0.934 3.25 0.684 4.25-0.75 1.034-1.5 1.733-2.433 2.1-2.8 0.1-0.133 0.367-0.367 0.8-0.7 0.433-0.3 0.65-1.083 0.65-2.35l-0.7-0.625c0.158 0.378 0.024 0.869-0.4 1.475z" clip-rule="evenodd" fill="url(#ag)" fill-rule="evenodd"/>
				<path d="m15.45-0.8c0.3 0 0.3-0.083 0-0.25-0.667-0.367-1.083-0.617-1.25-0.75-0.667-0.534-1-1.567-1-3.1 0-0.367-0.1-0.367-0.3 0-0.167 0.367-0.233 0.883-0.2 1.55s0.367 1.267 1 1.8c0.567 0.5 1.15 0.75 1.75 0.75z" clip-rule="evenodd" fill="#F6F0A7" fill-rule="evenodd"/>
				<path d="m4.4-8.4c0.733 0 1.367-0.117 1.9-0.35s0.6-0.35 0.2-0.35c-0.133 0-0.683-0.117-1.65-0.35-0.933-0.267-1.617-0.383-2.05-0.35-0.6 0.033-0.633 0.267-0.1 0.7 0.533 0.467 1.1 0.7 1.7 0.7z" clip-rule="evenodd" fill="#F6F0A7" fill-rule="evenodd"/>
				<path d="m20.8-4.15c0.3-0.867 0.35-1.283 0.15-1.25-0.233 0.033-0.417 0.316-0.55 0.85-0.1 0.466-0.1 0.767 0 0.9 0.1 0.1 0.233-0.067 0.4-0.5z" clip-rule="evenodd" fill="#F6F0A7" fill-rule="evenodd"/>
				<path d="m25.35-1c0.433-0.033 0.767-0.2 1-0.5 0.2-0.3 0.066-0.367-0.4-0.2-0.3 0.1-0.767 0.133-1.4 0.1-0.633-0.066-1.017-0.083-1.15-0.05-0.233 0.1-0.083 0.233 0.45 0.4 0.567 0.2 1.067 0.283 1.5 0.25z" clip-rule="evenodd" fill="#F6F0A7" fill-rule="evenodd"/>
				<path d="m34.2-2c0.433-0.133 0.633-0.3 0.6-0.5s-0.267-0.217-0.7-0.05c-0.3 0.133-0.85 0.066-1.65-0.2-0.733-0.233-1.184-0.3-1.35-0.2-0.267 0.167 0.066 0.4 1 0.7 0.9 0.3 1.6 0.383 2.1 0.25z" clip-rule="evenodd" fill="#F6F0A7" fill-rule="evenodd"/>
				<path d="m24.15-7c0.6 0.167 0.817 0.05 0.65-0.35s-0.55-0.6-1.15-0.6c-0.566 0-0.7 0.133-0.4 0.4 0.233 0.267 0.533 0.45 0.9 0.55z" clip-rule="evenodd" fill="#F6F0A7" fill-rule="evenodd"/>
				<path d="m44.8-7.15c0.833-0.033 1.017-0.167 0.55-0.4-0.467-0.2-0.917-0.283-1.35-0.25-0.367 0.033-0.417 0.167-0.15 0.4 0.233 0.2 0.55 0.283 0.95 0.25z" clip-rule="evenodd" fill="#F6F0A7" fill-rule="evenodd"/>
				<path d="m16.75-8.1c0.7-0.133 0.85-0.233 0.45-0.3-0.367-0.033-0.8 0-1.3 0.1-0.3 0.066-0.867-0.017-1.7-0.25-0.6-0.167-0.817-0.184-0.65-0.05 0.267 0.2 0.75 0.35 1.45 0.45 0.7 0.133 1.283 0.15 1.75 0.05z" clip-rule="evenodd" fill="#F6F0A7" fill-rule="evenodd"/>
				<path d="m8.3-5.65c0.434 0.1 0.717 0.117 0.85 0.05 0.167-0.033 0.05-0.117-0.35-0.25-0.267-0.1-0.617-0.4-1.05-0.9-0.367-0.433-0.617-0.583-0.75-0.45-0.167 0.167-0.05 0.45 0.35 0.85 0.367 0.4 0.683 0.633 0.95 0.7z" clip-rule="evenodd" fill="#F6F0A7" fill-rule="evenodd"/>
				<path d="m25.7-11.4c0.267-0.133 0.566-0.367 0.9-0.7 0.3-0.367 0.483-0.7 0.55-1 0.1-0.566-0.217-0.316-0.95 0.75-0.2 0.3-0.6 0.517-1.2 0.65-0.6 0.2-0.95 0.333-1.05 0.4-0.2 0.167-0.083 0.25 0.35 0.25 0.433-0.033 0.9-0.15 1.4-0.35z" clip-rule="evenodd" fill="#F6F0A7" fill-rule="evenodd"/>
				<path d="m29.45-11.75c0.6-0.067 0.8-0.2 0.6-0.4-0.2-0.167-0.483-0.184-0.85-0.05-0.333 0.1-0.45 0.217-0.35 0.35 0.1 0.1 0.3 0.133 0.6 0.1z" clip-rule="evenodd" fill="#F6F0A7" fill-rule="evenodd"/>
				<path d="m22.35-13c0.533 0.333 0.45 0.067-0.25-0.8-0.7-0.833-1.133-1.184-1.3-1.05-0.167 0.133-0.017 0.434 0.45 0.9 0.367 0.4 0.733 0.717 1.1 0.95z" clip-rule="evenodd" fill="#F6F0A7" fill-rule="evenodd"/>
				<path d="m36.05-7.5c0.434 0.2 0.417 0.083-0.05-0.35-0.7-0.633-1.183-1.066-1.45-1.3-0.333-0.3-0.583-0.717-0.75-1.25-0.2-0.633-0.316-0.967-0.35-1-0.2-0.4-0.25-0.083-0.15 0.95 0.034 0.467 0.434 1.05 1.2 1.75 0.633 0.633 1.15 1.033 1.55 1.2z" clip-rule="evenodd" fill="#F6F0A7" fill-rule="evenodd"/>
				<path d="m41.1-11.7c0.033-0.1-0.15-0.083-0.55 0.05-0.533 0.233-0.95 0.367-1.25 0.4-1.633 0.1-2.633 0.283-3 0.55-0.133 0.1-0.083 0.133 0.15 0.1 0.5-0.1 0.933-0.133 1.3-0.1 0.7 0.034 1.433-0.083 2.2-0.35 0.733-0.233 1.117-0.45 1.15-0.65z" clip-rule="evenodd" fill="#F6F0A7" fill-rule="evenodd"/>
				<path d="m39.85-14.25c-0.367 0-0.467 0.117-0.3 0.35s0.434 0.35 0.8 0.35c1.167-0.034 1.5-0.15 1-0.35-0.467-0.233-0.967-0.35-1.5-0.35z" clip-rule="evenodd" fill="#F6F0A7" fill-rule="evenodd"/>
				<path d="m11.45-8.3c0.7-0.067 0.75-0.233 0.15-0.5-0.567-0.3-0.967-0.317-1.2-0.05-0.367 0.367-0.017 0.55 1.05 0.55z" clip-rule="evenodd" fill="#E0D545" fill-rule="evenodd"/>
				<path d="m6.75-10.6c0.533 0 0.983-0.1 1.35-0.3 0.333-0.167 0.45-0.333 0.35-0.5-0.067-0.133-0.434-0.233-1.1-0.3-0.667-0.066-1.167-0.05-1.5 0.05-0.367 0.1-0.434 0.3-0.2 0.6 0.2 0.3 0.567 0.45 1.1 0.45z" clip-rule="evenodd" fill="#E0D545" fill-rule="evenodd"/>
				<path d="m15.45-9.8c0.633 0.033 0.883-0.083 0.75-0.35-0.167-0.267-0.483-0.45-0.95-0.55-0.5-0.2-0.867-0.333-1.1-0.4-0.367-0.133-0.717-0.133-1.05 0-0.367 0.133-0.217 0.383 0.45 0.75 0.667 0.333 1.3 0.517 1.9 0.55z" clip-rule="evenodd" fill="#E0D545" fill-rule="evenodd"/>
				<path d="m18.75-10.65c0.5-0.6 0.567-0.85 0.2-0.75-0.4 0.1-0.717 0.316-0.95 0.65-0.2 0.3-0.217 0.483-0.05 0.55 0.2 0.1 0.467-0.05 0.8-0.45z" clip-rule="evenodd" fill="#F6F0A7" fill-rule="evenodd"/>
				<path d="m15.4-12.8c1.067-0.267 1.633-0.467 1.7-0.6 0.066-0.067-0.184-0.117-0.75-0.15-0.467-0.034-1 0.066-1.6 0.3s-0.983 0.483-1.15 0.75c-0.1 0.233 0.017 0.3 0.35 0.2 0.2-0.067 0.683-0.233 1.45-0.5z" clip-rule="evenodd" fill="#F6F0A7" fill-rule="evenodd"/>
				<path d="m20.55-10.5c0.367 0 0.483-0.167 0.35-0.5-0.167-0.333-0.417-0.433-0.75-0.3-0.367 0.133-0.467 0.3-0.3 0.5 0.133 0.2 0.367 0.3 0.7 0.3z" clip-rule="evenodd" fill="#F6F0A7" fill-rule="evenodd"/>
				<path d="m23.85-4.35c0.9-0.1 1.316-0.267 1.25-0.5-0.033-0.2-0.267-0.3-0.7-0.3-0.333 0-0.767 0.05-1.3 0.15-0.567 0.133-0.917 0.267-1.05 0.4s-0.017 0.233 0.35 0.3c0.4 0.067 0.883 0.05 1.45-0.05z" clip-rule="evenodd" fill="#F6F0A7" fill-rule="evenodd"/>
				<path d="m28.65-6c1.867 0 2.4-0.1 1.6-0.3-0.5-0.133-0.85-0.217-1.05-0.25-0.4-0.1-0.733-0.133-1-0.1-0.367 0.033-0.483 0.15-0.35 0.35 0.167 0.2 0.433 0.3 0.8 0.3z" clip-rule="evenodd" fill="#E0D545" fill-rule="evenodd"/>
				<path d="m29.65-8.15c0.667 0.267 0.833 0.25 0.5-0.05-0.333-0.267-0.767-0.517-1.3-0.75-0.434-0.2-1.117-0.35-2.05-0.45-0.833-0.067-1.45-0.067-1.85 0-0.3 0.066-0.117 0.183 0.55 0.35 0.633 0.167 1.233 0.25 1.8 0.25 0.467 0 0.883 0.066 1.25 0.2 0.2 0.067 0.567 0.217 1.1 0.45z" clip-rule="evenodd" fill="#F6F0A7" fill-rule="evenodd"/>
				<path d="m30.2-15.9c0.167 0 0.333-0.133 0.5-0.4 0.133-0.267 0.05-0.45-0.25-0.55-0.333-0.066-0.684-0.033-1.05 0.1-0.367 0.167-0.6 0.4-0.7 0.7-0.1 0.233-0.034 0.333 0.2 0.3 0.7-0.1 1.133-0.15 1.3-0.15z" clip-rule="evenodd" fill="#E0D545" fill-rule="evenodd"/>
				<path d="m25.8-15.6c0.5 0.3 0.45-0.133-0.15-1.3-0.167-0.233-0.467-0.367-0.9-0.4-0.433-0.034-0.767 0.066-1 0.3-0.2 0.167-0.033 0.383 0.5 0.65 0.333 0.167 0.85 0.417 1.55 0.75z" clip-rule="evenodd" fill="#E0D545" fill-rule="evenodd"/>
				<path d="m12.1-14.8c0.566-0.3 0.55-0.417-0.05-0.35-0.6 0.066-1 0.217-1.2 0.45-0.2 0.267-0.167 0.383 0.1 0.35 0.267 0 0.65-0.15 1.15-0.45z" clip-rule="evenodd" fill="#F6F0A7" fill-rule="evenodd"/>
				<path d="m14.8-14.4c0.467 0.1 0.45-0.083-0.05-0.55-0.5-0.433-0.917-0.716-1.25-0.85-0.3-0.133-0.25 0.05 0.15 0.55 0.433 0.533 0.817 0.817 1.15 0.85z" clip-rule="evenodd" fill="#F6F0A7" fill-rule="evenodd"/>
				<path d="m37.05-6.25c1.467-0.433 2.333-1.083 2.6-1.95-0.267 0.333-0.917 0.7-1.95 1.1l-1.75 0.7c-0.133 0.133-0.067 0.217 0.2 0.25s0.567 0 0.9-0.1z" clip-rule="evenodd" fill="#F6F0A7" fill-rule="evenodd"/>
				<path d="m31.95-9.1c0.966-0.2 1.15-0.417 0.55-0.65-0.567-0.233-1.133-0.283-1.7-0.15-0.466 0.066-0.5 0.25-0.1 0.55 0.433 0.267 0.85 0.35 1.25 0.25z" clip-rule="evenodd" fill="#E0D545" fill-rule="evenodd"/>
				<path d="m20.3-7.65c0.434 0.066 0.617-0.083 0.55-0.45-0.033-0.367-0.217-0.517-0.55-0.45-0.3 0.033-0.45 0.183-0.45 0.45 0 0.233 0.15 0.383 0.45 0.45z" clip-rule="evenodd" fill="#F6F0A7" fill-rule="evenodd"/>
				<path d="m18.2-3.8c0.3 0.1 0.35 0.033 0.15-0.2-0.167-0.233-0.45-0.467-0.85-0.7-0.9-0.533-1.6-0.75-2.1-0.65-0.267 0.067-0.233 0.167 0.1 0.3 0.3 0.133 0.617 0.216 0.95 0.25 0.2 0 0.45 0.133 0.75 0.4 0.3 0.3 0.633 0.5 1 0.6z" clip-rule="evenodd" fill="#F6F0A7" fill-rule="evenodd"/>
				<path d="m45.25-9.65h1.45c0.066-0.167 0.1-0.417 0.1-0.75 0-2.434-2.283-4.5-6.85-6.2s-10.083-2.55-16.55-2.55-11.983 0.85-16.55 2.55-6.85 3.767-6.85 6.2l0.1 0.75h1.7v-0.4c0-2.167 2.117-4 6.35-5.5 4.233-1.534 9.35-2.3 15.35-2.3 6.033 0 11.167 0.767 15.4 2.3 4.233 1.5 6.35 3.333 6.35 5.5v0.4z" clip-rule="evenodd" fill="#fff" fill-rule="evenodd"/>
		</g>
		<g clip-path="url(#r)">
			<path d="m28.45-22.1c0.4 0.3 0.9 0.434 1.5 0.4 0.6-0.033 2.083 0.434 4.45 1.4 2.333 0.966 3.85 1.083 4.55 0.35 0.7-0.767-1.8-2.15-7.5-4.15s-10.167-2.583-13.4-1.75c-3.233 0.867-5.25 1.45-6.05 1.75-2.2 0.667-4.45 2.25-6.75 4.75 1.2 0.067 2.05 0.117 2.55 0.15 0.5 0.067 1.2-0.066 2.1-0.4 0.9-0.3 1.733-0.517 2.5-0.65 0.733-0.133 1.233-0.4 1.5-0.8 0.233-0.4 1.133-0.633 2.7-0.7 1.566-0.033 2.683-0.233 3.35-0.6 0.633-0.333 1.117-0.483 1.45-0.45 0.267 0.066 0.833 0.2 1.7 0.4s1.583 0.183 2.15-0.05c0.533-0.233 1.1-0.3 1.7-0.2 0.567 0.1 1.067 0.283 1.5 0.55z" clip-rule="evenodd" fill="#9DA1AA" fill-rule="evenodd"/>
		</g>
</symbol>
		<path d="m41.063 28.713l0.15-0.038c-0.976 2.676-3.075 4.862-6.301 6.563-3.274 1.751-7.012 2.625-11.212 2.625-4.225 0-7.987-0.888-11.287-2.662-3.25-1.725-5.337-3.938-6.263-6.638l0.263 0.038c1 0.649 3.1 1.187 6.3 1.612 3.275 0.425 6.975 0.638 11.1 0.638 4.05 0 7.675-0.2 10.875-0.601 3.15-0.399 5.274-0.912 6.375-1.537z" clip-rule="evenodd" fill="#D7EAF2" fill-rule="evenodd"/>
		<path d="m39.675 29.275c-0.225 0.6-0.587 1.225-1.087 1.875-0.95 1.274-2.426 2.563-4.426 3.862-1.649 1.101-3.588 1.912-5.813 2.438l-1.8 0.263c3.025-0.926 5.2-2.275 6.525-4.05 0.575-0.801 0.938-1.538 1.087-2.213 0.075-0.625 0.125-1.025 0.15-1.2 2.276-0.25 4.064-0.575 5.364-0.975z" clip-rule="evenodd" fill="#BDD4DE" fill-rule="evenodd"/>
			<use transform="matrix(.75 0 0 -.75 9.3501 29.65)" y="-10.9" width="24.8" height="10.9" enable-background="new" opacity=".4414" xlink:href="#s"/>
		<path d="m9 32.088c1.584 1.874 3.584 3.305 6 4.294-2.063-0.763-3.838-1.757-5.325-2.981-1.725-1.425-2.9-3.038-3.525-4.838l0.263 0.038 0.6 0.3c0.425 1.049 1.087 2.112 1.987 3.187z" clip-rule="evenodd" fill="#BDD4DE" fill-rule="evenodd"/>
			<linearGradient id="t" x1="1.1006" x2="46.15" y1="10.226" y2="10.226" gradientTransform="matrix(.75 0 0 .75 6.1499 20.2)" gradientUnits="userSpaceOnUse">
			<stop stop-color="#9CADB5" offset="0"/>
			<stop stop-color="#E0E0E0" offset="1"/>
		</linearGradient>
		<path d="m35.813 23.388c3.3 1.225 4.95 2.713 4.95 4.463 0 1.749-1.65 3.249-4.95 4.5-3.3 1.25-7.275 1.875-11.925 1.875-4.675 0-8.662-0.625-11.962-1.875-3.3-1.251-4.95-2.751-4.95-4.5 0-1.75 1.65-3.238 4.95-4.463 3.3-1.25 7.288-1.875 11.962-1.875 4.649 0 8.625 0.625 11.925 1.875z" clip-rule="evenodd" fill="url(#t)" fill-rule="evenodd"/>
		<path d="m41.175 27.438h-1.087c-0.226-1.55-1.913-2.862-5.063-3.938-3.126-1.074-6.876-1.612-11.25-1.612-4.35 0-8.087 0.538-11.212 1.612-3.15 1.075-4.837 2.388-5.063 3.938h-1.275c0.4-1.7 2.262-3.125 5.587-4.274 3.375-1.15 7.337-1.726 11.887-1.726 4.576 0 8.538 0.575 11.888 1.726 3.325 1.149 5.188 2.573 5.588 4.274z" clip-rule="evenodd" fill="#fff" fill-rule="evenodd"/>
			<radialGradient id="u" cx="24.25" cy="10.95" r="15.838" gradientTransform="matrix(.75 0 0 -.75 6.1499 36.626)" gradientUnits="userSpaceOnUse">
			<stop stop-color="#fe0" offset="0"/>
			<stop stop-color="#9E8C17" offset="1"/>
		</radialGradient>
		<path d="m39.862 30.025c-1.125 0.65-2.75 1.362-4.875 2.138-3.075 1.125-5.713 1.7-7.912 1.725-2.425 0.024-5.05-0.1-7.875-0.375-2.65-0.225-4.637-0.5-5.962-0.825-1.125-0.275-2.225-0.699-3.3-1.274-0.95-0.501-1.45-0.851-1.5-1.051-0.025-0.1 0.138-0.3 0.487-0.6 0.375-0.325 0.575-0.525 0.6-0.6 0.4-1.101 1.987-2.05 4.763-2.851 0.725-0.2 1.462-0.8 2.212-1.8 0.7-0.95 1.275-1.438 1.725-1.463 2.5-0.2 4.437-0.188 5.812 0.038 0.525 0.075 1.338 0.337 2.438 0.787 0.9 0.375 1.662 0.55 2.288 0.525 0.575 0 1.875-0.088 3.899-0.263 1.825-0.075 2.95 0.075 3.375 0.45 0.65 0.625 1.313 1.375 1.988 2.25 0.799 1.074 1.187 1.8 1.162 2.175 0 0.275 0.25 0.463 0.75 0.563 0.326 0.076 0.3 0.226-0.075 0.451z" clip-rule="evenodd" fill="url(#u)" fill-rule="evenodd"/>
		<path d="m18.225 23.05c0.725-0.125 0.85 0.051 0.375 0.525-0.625 0.625-0.85 1.013-0.675 1.162 0.2 0.2 0.625 0.163 1.275-0.112 0.6-0.225 0.925-0.275 0.975-0.149 0.1 0.274-0.087 0.512-0.563 0.712-0.55 0.226-1.263 0.25-2.137 0.075-0.85-0.15-1.088-0.538-0.713-1.162 0.375-0.576 0.863-0.925 1.463-1.051z" clip-rule="evenodd" fill="#A8920C" fill-rule="evenodd"/>
		<path d="m19.087 26.688c0.375-0.024 0.563 0.138 0.563 0.487 0 0.226-0.05 0.575-0.15 1.051-0.05 0.35-0.188 0.649-0.413 0.899-0.25 0.275-0.538 0.388-0.862 0.338-0.275-0.025-0.725-0.013-1.35 0.037l-0.9 0.075c0.075-0.15 0.212-0.3 0.412-0.45 0.375-0.324 0.85-0.5 1.425-0.524 0.5-0.051 0.737-0.362 0.712-0.938-0.024-0.6 0.164-0.925 0.563-0.975z" clip-rule="evenodd" fill="#A8920C" fill-rule="evenodd"/>
		<path d="m34.013 27.063c0.899 0.226 1.1 0.638 0.6 1.237-0.5 0.575-1.263 0.726-2.287 0.45-0.976-0.25-1.138-0.638-0.487-1.162 0.623-0.55 1.349-0.726 2.174-0.525z" clip-rule="evenodd" fill="#A8920C" fill-rule="evenodd"/>
		<path d="m37.688 28.862c-0.5-0.249-1.125-0.612-1.875-1.087-1-0.625-1.575-0.988-1.725-1.088-0.851-0.475-2.051-0.65-3.601-0.524-0.8 0.125-1.45 0.212-1.95 0.262-0.899 0.075-1.574 0.025-2.024-0.149-0.2-0.075-0.45-0.3-0.75-0.675-0.2-0.226-0.688-0.325-1.463-0.301-0.7 0.025-1.625 0.2-2.775 0.525s-1.962 0.5-2.438 0.525c-0.925 0.05-1.6 0.137-2.025 0.262-0.575 0.15-1.013 0.45-1.313 0.9-0.45 0.65-0.813 1.101-1.087 1.35-0.425 0.45-0.9 0.713-1.425 0.788-0.625 0.1-1.212 0.263-1.762 0.487-0.625 0.225-0.95 0.425-0.975 0.6-0.071 0.196-0.071 0.391 0 0.582-0.613-0.233-1.013-0.428-1.2-0.582-0.6-0.524-0.487-0.962 0.337-1.313 0.675-0.274 1.513-0.412 2.513-0.412 0.7 0 1.25-0.15 1.65-0.45 0.175-0.125 0.488-0.45 0.938-0.975 0.2-0.226 0.488-0.601 0.863-1.125 0.425-0.4 1.087-0.588 1.987-0.563 0.85 0.024 1.65-0.112 2.4-0.413 0.4-0.149 0.925-0.375 1.575-0.675 0.55-0.149 0.987-0.225 1.313-0.225 0.4 0.024 1.05 0.137 1.95 0.337 0.35 0.075 0.8 0.325 1.35 0.75 0.3 0.25 1.101 0.325 2.4 0.226 1.125-0.075 2.337-0.188 3.638-0.338 0.85 0 1.612 0.287 2.287 0.862 0.475 0.426 1.375 0.95 2.7 1.575 1.024 0.5 1.513 0.875 1.462 1.125-0.05 0.55-0.149 1.063-0.3 1.538-0.2 0.624-0.388 0.8-0.563 0.524-0.075-0.125 0.013-0.512 0.263-1.162 0.224-0.547 0.099-0.935-0.375-1.161zm-8.588 0c-0.925-0.375-1.563-0.624-1.912-0.75-0.6-0.175-1.075-0.162-1.425 0.038-0.175 0.1-0.713 0.3-1.612 0.6-0.7 0.25-1.163 0.487-1.388 0.713-0.475 0.6-0.85 1.063-1.125 1.388-0.55 0.649-0.987 1.024-1.313 1.125-0.5 0.149-1.112 0.237-1.837 0.262-0.825 0.025-1.35-0.087-1.575-0.337-0.275-0.325-0.488-0.525-0.638-0.601-0.225-0.125-0.625-0.212-1.2-0.262-0.575-0.075-1.175 0.037-1.8 0.337-0.575 0.275-0.788 0.5-0.638 0.675l0.019 0.02c-0.468-0.149-0.887-0.287-1.256-0.413 0.059-0.038 0.121-0.082 0.188-0.131 0.575-0.426 1.313-0.813 2.212-1.163 1-0.375 1.725-0.487 2.175-0.337 0.225 0.05 0.575 0.399 1.05 1.05 0.375 0.5 0.862 0.688 1.462 0.563 0.825-0.2 1.388-0.388 1.688-0.563 0.325-0.225 0.625-0.6 0.9-1.125 0.775-1.4 1.712-2.1 2.813-2.1 0.325 0 0.725-0.175 1.201-0.525 0.375-0.25 0.875-0.275 1.5-0.075 1.1 0.351 2.262 0.65 3.487 0.9 0.475 0.125 1.138 0.137 1.987 0.037 0.675-0.075 1.213 0.025 1.612 0.3 0.5 0.375 0.775 0.65 0.825 0.825 0 0.051-0.063 0.362-0.188 0.938-0.075 0.325 0.063 0.838 0.412 1.538 0.25 0.5 0.238 0.774-0.037 0.824-0.275 0.025-0.513 0.101-0.713 0.226-0.05 0.024-0.1-0.025-0.149-0.15-0.051-0.225-0.088-0.612-0.112-1.162-0.051-0.65-0.038-1.15 0.037-1.5 0.199-0.85-0.275-1.275-1.425-1.275-0.15 0-0.65 0.088-1.5 0.263-0.55 0.097-1.125 0.048-1.725-0.153zm-7.2 4.239c-0.85 0.125-1.35 0.2-1.5 0.225-0.3 0.1-0.5 0.163-0.6 0.188-0.15 0.05-0.5 0.075-1.05 0.075-0.297 0-0.759-0.069-1.388-0.206 0.313-0.073 0.925-0.255 1.837-0.544 0.9-0.275 1.587-0.413 2.063-0.413h1.463c0.4-0.074 0.762-0.313 1.087-0.712 0.425-0.5 1.088-0.862 1.987-1.088 0.976-0.275 1.688-0.225 2.138 0.15 0.825 0.65 1.8 1.013 2.925 1.087 0.274 0.025 0.612 0.088 1.013 0.188 0.425 0.101 0.688 0.2 0.787 0.301 0.15 0.1 0.15 0.3 0 0.6-0.149 0.325-0.375 0.45-0.675 0.375-0.225-0.075-0.663-0.275-1.313-0.6-0.774-0.4-1.337-0.676-1.688-0.825-0.875-0.351-1.413-0.55-1.612-0.601-0.575-0.175-1.088-0.162-1.537 0.038-0.351 0.149-0.763 0.399-1.238 0.75-0.449 0.35-0.813 0.575-1.087 0.675-0.324 0.149-0.862 0.261-1.612 0.337zm-11.4-1.782c0.259 0.106 0.56 0.219 0.9 0.337-0.375 0.217-0.637 0.187-0.788-0.094-0.05-0.079-0.088-0.16-0.112-0.243zm4.125 1.631c-1.104-0.368-1.761-0.662-1.969-0.881 0.362 0.11 0.756 0.229 1.181 0.355 1.483 0.447 2.658 0.766 3.525 0.957-0.045 7e-3 -0.082 0.013-0.112 0.019-0.525 0.076-1.4-0.075-2.625-0.45z" clip-rule="evenodd" fill="#A8920C" fill-rule="evenodd"/>
		<path d="m37.838 26.275c-0.4-0.55-0.963-0.888-1.688-1.013-1.626-0.325-3.15-0.525-4.575-0.6-0.675-0.051-1.45-0.375-2.325-0.976-0.926-0.625-1.625-0.975-2.1-1.05-0.926-0.3-1.626-0.5-2.101-0.6-0.774-0.15-1.6 0.05-2.475 0.6-1.225 0.85-2.087 1.438-2.587 1.763-0.8 0.524-1.487 0.813-2.063 0.862-0.175 0.024-1-0.05-2.475-0.225-1.025-0.126-1.762-0.013-2.212 0.337-0.9 0.775-1.55 1.325-1.95 1.65-0.675 0.6-0.95 0.688-0.825 0.263 0.625-2.001 1.7-3 3.225-3h1.425c2.225 0.249 3.712 0.05 4.462-0.601 0.9-0.75 1.825-1.375 2.775-1.875 1.425-0.774 2.575-1.063 3.45-0.862 0.575 0.15 1.45 0.65 2.625 1.5 1.101 0.774 2.112 1.225 3.038 1.35 0.875 0.126 1.975 0.288 3.3 0.488 1.024 0.175 1.824 0.412 2.399 0.712 0.676 0.375 1.238 0.813 1.688 1.313 0.476 0.55 0.688 1.025 0.638 1.425-0.05 0.45-0.487 0.925-1.313 1.426-0.851 0.524-1.788 0.85-2.813 0.975-0.75 0.075-1.563 0.438-2.438 1.088-0.825 0.624-1.425 0.938-1.8 0.938h-1.2c-0.149-0.025-0.225-0.088-0.225-0.188 0-0.175 0.375-0.413 1.125-0.713 0.6-0.225 1.938-0.713 4.013-1.463 1.85-0.725 2.912-1.325 3.188-1.8 0.326-0.574 0.263-1.148-0.186-1.724z" clip-rule="evenodd" fill="#947E1C" fill-rule="evenodd"/>
			<radialGradient id="v" cx="-.8027" cy="-22.032" r="19.718" gradientTransform="matrix(-.0818 .7455 .6961 .0875 37.884 24.188)" gradientUnits="userSpaceOnUse">
			<stop stop-color="#E8DE3A" offset="0"/>
			<stop stop-color="#B8A00D" offset="1"/>
		</radialGradient>
		<path d="m37.575 25.976c-0.426-0.55-0.988-0.888-1.688-1.013-1.625-0.325-3.15-0.525-4.575-0.601-0.675-0.05-1.45-0.375-2.325-0.975-0.95-0.625-1.662-0.975-2.138-1.05-0.925-0.3-1.612-0.5-2.063-0.601-0.774-0.149-1.6 0.051-2.475 0.601-1.25 0.85-2.112 1.438-2.587 1.763-0.8 0.524-1.5 0.812-2.1 0.862-0.175 0.024-0.987-0.051-2.438-0.226-1.05-0.1-1.788 0.013-2.212 0.338-0.9 0.774-1.55 1.325-1.95 1.65-0.7 0.6-0.988 0.688-0.862 0.262 0.3-0.975 0.737-1.712 1.313-2.212 0.55-0.525 1.187-0.788 1.912-0.788h1.463c2.225 0.25 3.712 0.051 4.462-0.6 0.85-0.726 1.775-1.35 2.775-1.875 1.425-0.774 2.575-1.063 3.45-0.862 0.575 0.149 1.45 0.65 2.625 1.5 1.1 0.8 2.113 1.262 3.038 1.388 2.125 0.274 3.225 0.425 3.3 0.449 1 0.175 1.787 0.413 2.362 0.713 0.7 0.375 1.275 0.813 1.726 1.313 0.449 0.55 0.649 1.025 0.6 1.425-0.05 0.45-0.475 0.925-1.275 1.425-0.875 0.55-1.813 0.876-2.813 0.976-0.775 0.075-1.587 0.438-2.438 1.087-0.824 0.625-1.425 0.938-1.8 0.938h-1.237l0.862-0.675c0.7-0.524 1.425-0.938 2.175-1.237 0.601-0.225 1.588-0.538 2.963-0.938 1.149-0.399 1.862-0.838 2.138-1.313 0.324-0.575 0.262-1.149-0.188-1.724z" clip-rule="evenodd" fill="url(#v)" fill-rule="evenodd"/>
		<path d="m37.65 26.612c-0.825 0-1.663-0.35-2.513-1.05-0.426-0.35-1.038-0.987-1.838-1.912-0.45-0.55-1.237-0.788-2.362-0.713-0.975 0.051-1.813 0.287-2.513 0.713-0.975 0.55-1.688 1.05-2.138 1.5-0.625 0.625-0.438 0.912 0.563 0.862 0.226 0 1.088-0.2 2.588-0.6 0.725-0.2 1.425 0 2.1 0.6 0.55 0.525 1.163 1.149 1.838 1.875 0.55 0.45 1.237 0.625 2.063 0.525 1.025-0.15 1.887 0.1 2.588 0.75 0.725 0.624 0.563 1.162-0.488 1.612-0.925 0.399-1.5 0.563-1.725 0.487l-0.037-0.225 0.938-0.563c0.475-0.426 0.412-0.763-0.188-1.013-0.426-0.175-1.076-0.287-1.95-0.338-0.7-0.024-1.237-0.188-1.612-0.487-0.625-0.675-1.101-1.175-1.426-1.5-0.575-0.625-1.138-0.962-1.688-1.013-0.425-0.024-1.037 0.038-1.837 0.188-0.9 0.2-1.688 0.3-2.362 0.3-0.375 0-1.113 0.113-2.213 0.338-0.525 0.125-0.9-0.024-1.125-0.45-0.05-0.1-0.35-0.813-0.9-2.138-0.4-0.95-0.738-1.55-1.013-1.8-0.525-0.5-1.125-0.787-1.8-0.862-0.9-0.15-1.45 0.3-1.65 1.35-0.175 0.976 0.138 1.862 0.938 2.663 0.45 0.425 1.138 1 2.063 1.725 1.325 1.4 1.775 2.313 1.35 2.737-0.45 0.501-0.763 0.801-0.938 0.9-0.575 0.275-1.337 0.263-2.288-0.037-0.925-0.301-1.95-0.775-3.075-1.426-1.1-0.675-1.813-1.112-2.138-1.313-0.5-0.3-1.212-0.412-2.137-0.337-0.9 0.1-1.413 0.324-1.538 0.675-0.1 0.351 0.087 0.675 0.563 0.975 0.45 0.275 1.075 0.488 1.875 0.638 0.5 0.1 1.063 0.2 1.688 0.3 0.525 0.075 1.112 0.238 1.762 0.488 0.175 0.074 0.875 0.637 2.1 1.688 0.85 0.75 1.675 0.938 2.475 0.563 0.45-0.2 1.212-0.925 2.288-2.176 0.875-1.024 1.888-1.612 3.037-1.762 1-0.101 1.938-0.213 2.813-0.338 0.525 0.024 1.325 0.3 2.4 0.825 0.875 0.425 1.662 0.699 2.362 0.825 0.4 0.074 0.649 0.2 0.75 0.375 0.226 0.399 1.013 0.875 2.362 1.425l-1.688 0.45c0.025-0.126-0.037-0.275-0.188-0.45-0.274-0.351-0.8-0.675-1.574-0.976-1.101-0.475-1.863-0.8-2.288-0.975-0.75-0.325-1.438-0.513-2.063-0.563-0.75-0.05-1.55 0.024-2.399 0.225-0.75 0.175-1.4 0.413-1.951 0.713-0.375 0.225-0.85 0.675-1.425 1.35-0.6 0.726-0.938 1.112-1.013 1.163-0.9 0.75-1.937 0.95-3.112 0.6-0.525-0.149-1.125-0.5-1.8-1.05-0.65-0.55-1.313-0.913-1.988-1.088-1.325-0.324-2.3-0.575-2.925-0.75-1.125-0.324-1.925-0.637-2.4-0.938-1.175-0.725-1.725-1.412-1.65-2.063 0.1-0.85 0.875-1.399 2.325-1.649s2.637-0.075 3.563 0.524c0.6 0.4 1.4 1.025 2.4 1.875 1.025 0.7 2.225 1.138 3.6 1.313 1.45 0.2 1.75-0.225 0.9-1.274-0.275-0.351-1.287-1.351-3.038-3-0.975-0.925-1.5-1.75-1.575-2.476-0.075-0.774 0.337-1.537 1.237-2.287 0.9-0.726 1.888-0.875 2.962-0.45 1 0.4 1.8 1.15 2.4 2.25 0.375 0.675 0.6 1.538 0.675 2.588 0.125 0.524 0.675 0.45 1.65-0.226 2.101-1.425 3.513-2.324 4.237-2.699 1.75-0.9 3.088-1.15 4.013-0.75 0.775 0.35 1.263 0.763 1.463 1.237 0.3 0.65 0.662 1.149 1.087 1.5 1.275 1.074 2.676 1.4 4.2 0.975 0.475-0.149 1.112 0.075 1.913 0.675 0.799 0.601 1.237 0.888 1.313 0.863 0.449-0.15 0.737-0.175 0.862-0.075 0.05 0.05 0.063 0.112 0.037 0.188 0 0.625-0.188 0.938-0.563 0.938-0.149 0-0.438-0.226-0.862-0.675-0.425-0.501-0.8-0.788-1.125-0.863-0.351-0.074-0.763-0.1-1.237-0.074-0.922 0.051-1.585 0.075-1.985 0.075z" clip-rule="evenodd" fill="#A8920C" fill-rule="evenodd"/>
			<radialGradient id="w" cx="-.9927" cy="-21.861" r="24.445" gradientTransform="matrix(-.0817 .7455 .6961 .0878 37.634 24.173)" gradientUnits="userSpaceOnUse">
			<stop stop-color="#fe0" offset="0"/>
			<stop stop-color="#DBC221" offset="1"/>
		</radialGradient>
		<path d="m37.425 26.388c-0.825 0-1.662-0.351-2.513-1.05-0.449-0.375-1.063-1.025-1.837-1.95-0.45-0.525-1.226-0.763-2.325-0.713-0.975 0.075-1.825 0.313-2.55 0.713-0.95 0.55-1.663 1.05-2.138 1.5-0.65 0.65-0.463 0.95 0.563 0.9 0.225 0 1.088-0.2 2.588-0.601 0.725-0.2 1.425 0 2.1 0.601 0.55 0.524 1.162 1.149 1.838 1.875 0.55 0.425 1.237 0.587 2.063 0.487 1.024-0.125 1.887 0.125 2.587 0.75 0.726 0.65 0.563 1.2-0.487 1.649-0.926 0.4-1.5 0.55-1.725 0.45l-0.038-0.225 0.938-0.525c0.475-0.425 0.413-0.763-0.188-1.013-0.425-0.175-1.075-0.287-1.95-0.337-0.699-0.025-1.237-0.188-1.612-0.487-0.625-0.676-1.1-1.188-1.425-1.538-0.575-0.6-1.138-0.925-1.688-0.975-0.425-0.025-1.037 0.037-1.838 0.188-0.899 0.2-1.688 0.3-2.362 0.3-0.375 0-1.112 0.112-2.212 0.338-0.525 0.1-0.9-0.051-1.125-0.45-0.05-0.1-0.35-0.813-0.9-2.138-0.4-0.95-0.737-1.55-1.013-1.8-0.525-0.5-1.125-0.801-1.8-0.9-0.9-0.125-1.45 0.325-1.65 1.351-0.175 0.999 0.137 1.888 0.938 2.662 0.45 0.45 1.15 1.037 2.1 1.763 1.275 1.4 1.712 2.313 1.313 2.737-0.45 0.475-0.762 0.763-0.938 0.862-0.575 0.275-1.337 0.263-2.287-0.037-0.925-0.3-1.95-0.775-3.075-1.425-1.1-0.676-1.813-1.112-2.138-1.313-0.5-0.301-1.212-0.4-2.137-0.301-0.9 0.101-1.413 0.325-1.538 0.676-0.1 0.35 0.1 0.675 0.6 0.975 0.45 0.275 1.063 0.487 1.837 0.638 0.025 0 0.587 0.088 1.688 0.263 0.55 0.074 1.137 0.237 1.763 0.487 0.2 0.075 0.913 0.65 2.137 1.725 0.825 0.75 1.638 0.938 2.438 0.563 0.425-0.225 1.188-0.962 2.288-2.212 0.875-1.025 1.887-1.601 3.038-1.726 1.85-0.225 2.787-0.337 2.813-0.337 0.5 0 1.3 0.274 2.4 0.824 0.875 0.426 1.662 0.688 2.362 0.788 0.399 0.075 0.649 0.2 0.75 0.375 0.225 0.399 1.013 0.875 2.362 1.425l-1.688 0.487c0.024-0.125-0.037-0.275-0.188-0.45-0.275-0.35-0.8-0.675-1.575-0.975-1.1-0.475-1.862-0.8-2.287-0.975-0.75-0.325-1.438-0.513-2.063-0.563-0.75-0.051-1.538 0.013-2.362 0.188-0.801 0.2-1.463 0.449-1.988 0.75-0.375 0.225-0.85 0.675-1.425 1.35-0.625 0.726-0.962 1.112-1.012 1.162-0.925 0.7-1.962 0.9-3.113 0.601-0.5-0.15-1.1-0.513-1.8-1.088-0.65-0.55-1.313-0.899-1.988-1.05-1.325-0.325-2.3-0.575-2.925-0.75-1.126-0.324-1.926-0.637-2.401-0.937-1.15-0.726-1.7-1.425-1.65-2.1 0.1-0.825 0.875-1.363 2.325-1.613 1.45-0.274 2.638-0.112 3.563 0.488 0.6 0.399 1.4 1.024 2.4 1.875 1.025 0.699 2.225 1.149 3.6 1.35 1.45 0.2 1.75-0.225 0.9-1.275-0.35-0.449-1.362-1.449-3.037-3-0.975-0.925-1.5-1.749-1.575-2.475-0.075-0.774 0.35-1.537 1.275-2.287 0.9-0.75 1.888-0.9 2.962-0.45 0.975 0.375 1.763 1.112 2.363 2.212 0.05 0.075 0.275 0.938 0.675 2.588 0.125 0.525 0.675 0.463 1.65-0.188 2.024-1.4 3.438-2.313 4.237-2.737 1.75-0.9 3.088-1.138 4.013-0.713 0.774 0.351 1.262 0.763 1.462 1.237 0.301 0.65 0.663 1.15 1.088 1.5 1.275 1.101 2.688 1.413 4.237 0.938 0.575-0.149 1.125-0.112 1.65 0.113 0.499 0.225 0.837 0.55 1.013 0.975 0.225 0.55 0.699 0.75 1.425 0.6 0 0.625-0.188 0.938-0.563 0.938-0.15 0-0.438-0.225-0.862-0.675-0.426-0.5-0.801-0.787-1.125-0.862-0.351-0.1-0.763-0.138-1.238-0.112-0.926 0.074-1.588 0.111-1.988 0.111z" clip-rule="evenodd" fill="url(#w)" fill-rule="evenodd"/>
		<path d="m38.025 27.513c0.675 0.275 1.137 0.587 1.387 0.938 0.325 0.425 0.388 0.962 0.188 1.612-0.1 0.325-0.237 0.601-0.412 0.825l-1.162 0.675 0.787-1.5c0.35-0.625 0.037-1.274-0.938-1.95-0.351-0.249-1.237-0.725-2.662-1.425-0.701-0.6-1.238-0.962-1.613-1.087-0.6-0.15-1.75 0.225-3.449 1.125-1.601 0.849-3.239 1.274-4.914 1.274-1.775 0.025-2.675 0.038-2.7 0.038-0.375 0.175-1.025 0.1-1.95-0.226-1.075-0.375-1.95-0.55-2.625-0.524-0.875 0.024-1.612 0.337-2.212 0.938-0.1 0.125-0.45 0.624-1.05 1.5-0.175 0.249-0.487 0.612-0.938 1.087-0.325 0.45-0.375 0.938-0.15 1.463 0.225 0.524 0.875 0.962 1.95 1.313 0.525 0.2 1.025 0.337 1.5 0.412-0.35 0.075-1.275-0.088-2.775-0.487-1.95-0.525-2.525-1.4-1.725-2.625 0.2-0.275 0.462-0.538 0.788-0.787 0.275-0.226 0.575-0.638 0.9-1.238 0.525-0.95 1.375-1.675 2.55-2.175 1.4-0.575 2.825-0.524 4.275 0.15 0.45 0.225 0.9 0.362 1.35 0.412 0.25 0.025 0.788 0.038 1.612 0.038 1.85 0 3.2-0.188 4.051-0.563 0.324-0.126 1.087-0.463 2.287-1.013 1.149-0.475 2.013-0.713 2.588-0.713 0.649 0 1.199 0.112 1.649 0.338 0.325 0.175 0.85 0.563 1.575 1.162 0.4 0.325 1.013 0.662 1.838 1.013z" clip-rule="evenodd" fill="#A8920C" fill-rule="evenodd"/>
			<radialGradient id="x" cx="4.061" cy="-24.129" r="17.982" gradientTransform="matrix(-.0819 .7455 .696 .0876 40.901 24.573)" gradientUnits="userSpaceOnUse">
			<stop stop-color="#fe0" offset="0"/>
			<stop stop-color="#DBC221" offset="1"/>
		</radialGradient>
		<path d="m37.8 27.138c0.675 0.3 1.138 0.625 1.388 0.975 0.325 0.426 0.387 0.963 0.188 1.613-0.1 0.324-0.225 0.6-0.375 0.824l-1.2 0.638 0.788-1.462c0.35-0.65 0.037-1.313-0.938-1.988-0.25-0.175-1.138-0.649-2.663-1.425-0.7-0.6-1.237-0.95-1.612-1.05-0.6-0.15-1.75 0.225-3.45 1.125-1.601 0.85-3.237 1.275-4.912 1.275-1.75 0-2.65 0.013-2.7 0.037-0.375 0.15-1.025 0.063-1.95-0.263-1.075-0.375-1.95-0.55-2.625-0.524-0.875 0.024-1.612 0.35-2.212 0.975-0.05 0.05-0.4 0.538-1.05 1.463-0.177 0.274-0.49 0.649-0.939 1.125-0.325 0.425-0.375 0.899-0.15 1.425 0.225 0.524 0.875 0.975 1.95 1.35 0.525 0.2 1.025 0.338 1.5 0.413-0.35 0.074-1.275-0.088-2.775-0.488-1.95-0.524-2.525-1.399-1.725-2.625 0.2-0.3 0.462-0.575 0.788-0.824 0.275-0.2 0.575-0.601 0.9-1.2 0.55-0.976 1.4-1.7 2.55-2.175 1.4-0.601 2.825-0.55 4.275 0.149 0.45 0.226 0.9 0.351 1.35 0.375 0.175 0.025 0.713 0.038 1.613 0.038 1.899 0 3.25-0.175 4.05-0.525 0.325-0.125 1.088-0.463 2.288-1.013 1.149-0.475 2.012-0.712 2.587-0.712 0.649 0 1.2 0.112 1.65 0.337 0.3 0.15 0.825 0.525 1.575 1.125 0.398 0.324 1.011 0.661 1.836 1.012z" clip-rule="evenodd" fill="url(#x)" fill-rule="evenodd"/>
			<radialGradient id="y" cx="4.2832" cy="-26.371" r="16.486" gradientTransform="matrix(-.0819 .7455 .696 .0876 44.131 24.979)" gradientUnits="userSpaceOnUse">
			<stop stop-color="#fe0" offset="0"/>
			<stop stop-color="#DBC221" offset="1"/>
		</radialGradient>
		<path d="m38.588 29.726c-0.525-0.801-1.251-1.75-2.176-2.851-0.449-0.55-0.813-0.887-1.087-1.013-0.375-0.2-0.813-0.162-1.313 0.113-0.675 0.399-1.237 0.837-1.688 1.313-0.575 0.624-0.825 1.199-0.75 1.725 0.274 1.7 0.412 2.862 0.412 3.487 0 1.225-1.938 1.763-5.813 1.612-0.35 0-0.412-0.637-0.188-1.912 0.25-1.425-0.088-2.375-1.013-2.85-0.975-0.476-1.825-0.476-2.55 0-1.125 0.75-1.85 1.149-2.175 1.199-0.95 0.15-1.825 0.476-2.625 0.976-0.7 0.45-1.188 0.899-1.462 1.35-0.325 0.525-0.75 0.737-1.275 0.638 0.125-0.275 0.313-0.6 0.563-0.975 0.5-0.7 1.1-1.213 1.8-1.538 0.375-0.2 1.263-0.563 2.663-1.087 1.05-0.4 1.75-0.75 2.1-1.051 0.45-0.399 1.063-0.624 1.838-0.675 0.775-0.024 1.437 0.138 1.988 0.487 1.05 0.7 1.574 1.801 1.574 3.301 0 0.824 0.013 1.25 0.038 1.274 0.075 0.25 0.45 0.388 1.125 0.413 0.85 0.074 1.575-0.075 2.175-0.45 0.675-0.4 0.9-0.963 0.675-1.688-0.375-0.925-0.625-1.588-0.75-1.987-0.175-0.676-0.063-1.288 0.338-1.838 0.649-1 1.5-1.763 2.55-2.287 1.375-0.7 2.438-0.513 3.188 0.563 0.774 1.125 1.3 1.824 1.575 2.1 0.075 0.1 0.274 0.275 0.6 0.525 0.325 0.225 0.487 0.812 0.487 1.762l-0.524 0.469c0.118-0.283 0.017-0.651-0.3-1.105z" clip-rule="evenodd" fill="url(#y)" fill-rule="evenodd"/>
		<path d="m17.737 20.8c0.225 0 0.225 0.063 0 0.188-0.5 0.275-0.813 0.463-0.938 0.563-0.5 0.4-0.75 1.176-0.75 2.325 0 0.275-0.075 0.275-0.225 0-0.125-0.275-0.175-0.662-0.15-1.162s0.275-0.95 0.75-1.351c0.426-0.376 0.864-0.563 1.313-0.563z" clip-rule="evenodd" fill="#F6F0A7" fill-rule="evenodd"/>
		<path d="m9.45 26.5c0.55 0 1.025 0.088 1.425 0.263s0.45 0.263 0.15 0.263c-0.1 0-0.512 0.088-1.237 0.263-0.7 0.2-1.212 0.287-1.538 0.262-0.45-0.024-0.475-0.2-0.075-0.524 0.4-0.352 0.825-0.527 1.275-0.527z" clip-rule="evenodd" fill="#F6F0A7" fill-rule="evenodd"/>
		<path d="m21.75 23.313c0.225 0.65 0.262 0.963 0.112 0.938-0.175-0.024-0.313-0.237-0.413-0.638-0.075-0.35-0.075-0.575 0-0.675 0.076-0.076 0.176 0.05 0.301 0.375z" clip-rule="evenodd" fill="#F6F0A7" fill-rule="evenodd"/>
		<path d="m25.162 20.95c0.325 0.024 0.575 0.15 0.75 0.375 0.15 0.225 0.051 0.275-0.3 0.15-0.225-0.075-0.575-0.101-1.05-0.075-0.476 0.05-0.763 0.063-0.863 0.037-0.175-0.075-0.062-0.175 0.337-0.3 0.427-0.15 0.802-0.211 1.126-0.187z" clip-rule="evenodd" fill="#F6F0A7" fill-rule="evenodd"/>
		<path d="m31.8 21.7c0.325 0.1 0.475 0.225 0.45 0.375s-0.2 0.163-0.525 0.037c-0.225-0.1-0.637-0.05-1.237 0.15-0.55 0.175-0.888 0.225-1.013 0.15-0.2-0.126 0.051-0.301 0.75-0.525 0.675-0.224 1.2-0.286 1.575-0.187z" clip-rule="evenodd" fill="#F6F0A7" fill-rule="evenodd"/>
		<path d="m24.263 25.45c0.45-0.125 0.612-0.037 0.487 0.263s-0.412 0.45-0.863 0.45c-0.425 0-0.525-0.101-0.3-0.301 0.176-0.2 0.4-0.337 0.676-0.412z" clip-rule="evenodd" fill="#F6F0A7" fill-rule="evenodd"/>
		<path d="m39.75 25.563c0.625 0.025 0.762 0.125 0.412 0.3-0.35 0.15-0.688 0.213-1.012 0.188-0.275-0.024-0.313-0.125-0.113-0.3 0.175-0.15 0.413-0.213 0.713-0.188z" clip-rule="evenodd" fill="#F6F0A7" fill-rule="evenodd"/>
		<path d="m18.712 26.275c0.525 0.1 0.638 0.175 0.337 0.225-0.275 0.025-0.6 0-0.975-0.075-0.225-0.05-0.65 0.013-1.275 0.188-0.45 0.126-0.612 0.138-0.487 0.038 0.2-0.15 0.563-0.263 1.087-0.338 0.526-0.1 0.963-0.113 1.313-0.038z" clip-rule="evenodd" fill="#F6F0A7" fill-rule="evenodd"/>
		<path d="m12.375 24.438c0.325-0.075 0.537-0.088 0.637-0.037 0.125 0.024 0.038 0.088-0.262 0.188-0.2 0.075-0.463 0.3-0.788 0.675-0.274 0.324-0.462 0.436-0.562 0.337-0.125-0.126-0.038-0.338 0.263-0.638 0.275-0.3 0.512-0.475 0.712-0.525z" clip-rule="evenodd" fill="#F6F0A7" fill-rule="evenodd"/>
		<path d="m25.425 28.75c0.2 0.1 0.425 0.275 0.675 0.525 0.226 0.275 0.362 0.524 0.413 0.75 0.075 0.425-0.163 0.237-0.713-0.563-0.149-0.226-0.45-0.388-0.899-0.487-0.45-0.15-0.713-0.25-0.788-0.301-0.15-0.125-0.063-0.188 0.263-0.188 0.324 0.027 0.674 0.115 1.049 0.264z" clip-rule="evenodd" fill="#F6F0A7" fill-rule="evenodd"/>
		<path d="m28.237 29.013c0.45 0.05 0.601 0.15 0.45 0.3-0.15 0.125-0.363 0.138-0.638 0.038-0.25-0.075-0.337-0.163-0.263-0.263 0.076-0.075 0.227-0.1 0.451-0.075z" clip-rule="evenodd" fill="#F6F0A7" fill-rule="evenodd"/>
		<path d="m22.913 29.95c0.4-0.25 0.337-0.05-0.188 0.6-0.525 0.625-0.85 0.888-0.975 0.788s-0.013-0.325 0.337-0.675c0.275-0.301 0.551-0.538 0.826-0.713z" clip-rule="evenodd" fill="#F6F0A7" fill-rule="evenodd"/>
		<path d="m33.188 25.825c0.325-0.15 0.313-0.063-0.037 0.263-0.525 0.475-0.889 0.8-1.088 0.975-0.25 0.226-0.438 0.538-0.563 0.938-0.15 0.475-0.237 0.726-0.263 0.75-0.149 0.3-0.188 0.063-0.112-0.712 0.024-0.351 0.325-0.788 0.9-1.313 0.475-0.476 0.863-0.776 1.163-0.901z" clip-rule="evenodd" fill="#F6F0A7" fill-rule="evenodd"/>
		<path d="m36.975 28.976c0.025 0.074-0.112 0.062-0.412-0.038-0.4-0.175-0.713-0.275-0.938-0.3-1.225-0.075-1.975-0.212-2.25-0.412-0.1-0.075-0.063-0.101 0.112-0.075 0.375 0.075 0.7 0.1 0.976 0.075 0.524-0.025 1.074 0.062 1.649 0.262 0.55 0.174 0.837 0.337 0.863 0.488z" clip-rule="evenodd" fill="#F6F0A7" fill-rule="evenodd"/>
		<path d="m36.037 30.888c-0.274 0-0.35-0.088-0.225-0.263s0.325-0.263 0.6-0.263c0.875 0.025 1.125 0.113 0.75 0.263-0.349 0.175-0.724 0.263-1.125 0.263z" clip-rule="evenodd" fill="#F6F0A7" fill-rule="evenodd"/>
		<path d="m14.737 26.425c0.525 0.051 0.563 0.175 0.113 0.375-0.425 0.226-0.725 0.238-0.9 0.038-0.275-0.275-0.012-0.413 0.787-0.413z" clip-rule="evenodd" fill="#E0D545" fill-rule="evenodd"/>
		<path d="m11.212 28.15c0.4 0 0.738 0.075 1.013 0.225 0.25 0.125 0.337 0.25 0.262 0.375-0.05 0.1-0.325 0.175-0.825 0.226-0.5 0.05-0.875 0.037-1.125-0.038-0.275-0.075-0.325-0.225-0.15-0.45 0.151-0.225 0.426-0.338 0.825-0.338z" clip-rule="evenodd" fill="#E0D545" fill-rule="evenodd"/>
		<path d="m17.737 27.55c0.475-0.024 0.663 0.063 0.563 0.263-0.125 0.2-0.362 0.338-0.712 0.413-0.375 0.149-0.65 0.249-0.825 0.3-0.275 0.1-0.538 0.1-0.787 0-0.275-0.1-0.163-0.287 0.337-0.563 0.5-0.25 0.975-0.388 1.424-0.413z" clip-rule="evenodd" fill="#E0D545" fill-rule="evenodd"/>
		<path d="m20.212 28.188c0.375 0.45 0.425 0.638 0.15 0.563-0.3-0.075-0.537-0.237-0.712-0.487-0.15-0.225-0.163-0.362-0.038-0.412 0.15-0.077 0.35 0.036 0.6 0.336z" clip-rule="evenodd" fill="#F6F0A7" fill-rule="evenodd"/>
		<path d="m17.7 29.8c0.8 0.2 1.225 0.351 1.275 0.45 0.05 0.051-0.138 0.088-0.563 0.112-0.35 0.025-0.75-0.05-1.2-0.225s-0.738-0.362-0.862-0.563c-0.075-0.175 0.012-0.225 0.262-0.15 0.15 0.052 0.513 0.176 1.088 0.376z" clip-rule="evenodd" fill="#F6F0A7" fill-rule="evenodd"/>
		<path d="m21.563 28.075c0.275 0 0.362 0.125 0.262 0.375-0.125 0.25-0.312 0.325-0.563 0.225-0.275-0.1-0.35-0.225-0.225-0.375 0.101-0.15 0.276-0.225 0.526-0.225z" clip-rule="evenodd" fill="#F6F0A7" fill-rule="evenodd"/>
		<path d="m24.037 23.463c0.676 0.075 0.988 0.2 0.938 0.375-0.025 0.149-0.2 0.225-0.524 0.225-0.251 0-0.575-0.037-0.975-0.112-0.425-0.1-0.688-0.2-0.788-0.3s-0.013-0.175 0.262-0.226c0.3-0.05 0.662-0.037 1.087 0.038z" clip-rule="evenodd" fill="#F6F0A7" fill-rule="evenodd"/>
		<path d="m27.638 24.7c1.399 0 1.8 0.075 1.2 0.225-0.375 0.101-0.638 0.163-0.788 0.188-0.3 0.075-0.55 0.101-0.75 0.075-0.275-0.024-0.362-0.112-0.263-0.263 0.125-0.15 0.325-0.225 0.601-0.225z" clip-rule="evenodd" fill="#E0D545" fill-rule="evenodd"/>
		<path d="m28.388 26.313c0.499-0.2 0.625-0.188 0.375 0.038-0.251 0.2-0.575 0.388-0.976 0.563-0.324 0.149-0.837 0.262-1.537 0.337-0.625 0.051-1.088 0.051-1.388 0-0.225-0.05-0.088-0.137 0.413-0.263 0.475-0.125 0.925-0.188 1.35-0.188 0.35 0 0.662-0.05 0.938-0.149 0.15-0.051 0.424-0.164 0.825-0.338z" clip-rule="evenodd" fill="#F6F0A7" fill-rule="evenodd"/>
		<path d="m28.8 32.125c0.125 0 0.25 0.1 0.375 0.3 0.1 0.2 0.038 0.338-0.188 0.413-0.25 0.05-0.513 0.024-0.787-0.075-0.275-0.125-0.45-0.3-0.525-0.525-0.075-0.175-0.024-0.249 0.15-0.225 0.525 0.075 0.85 0.112 0.975 0.112z" clip-rule="evenodd" fill="#E0D545" fill-rule="evenodd"/>
		<path d="m25.5 31.9c0.375-0.226 0.338 0.1-0.112 0.975-0.125 0.175-0.351 0.275-0.675 0.3-0.326 0.025-0.575-0.05-0.75-0.225-0.15-0.125-0.025-0.287 0.375-0.487 0.249-0.125 0.637-0.313 1.162-0.563z" clip-rule="evenodd" fill="#E0D545" fill-rule="evenodd"/>
		<path d="m15.225 31.3c0.425 0.226 0.412 0.313-0.038 0.263s-0.75-0.162-0.9-0.337c-0.15-0.2-0.125-0.288 0.075-0.263 0.201 0 0.488 0.112 0.863 0.337z" clip-rule="evenodd" fill="#F6F0A7" fill-rule="evenodd"/>
		<path d="m17.25 31c0.35-0.075 0.337 0.063-0.038 0.413-0.375 0.324-0.688 0.537-0.938 0.637-0.225 0.101-0.188-0.037 0.112-0.412 0.326-0.4 0.614-0.613 0.864-0.638z" clip-rule="evenodd" fill="#F6F0A7" fill-rule="evenodd"/>
		<path d="m33.938 24.888c1.1 0.325 1.75 0.813 1.95 1.463-0.2-0.25-0.688-0.525-1.463-0.825l-1.313-0.526c-0.101-0.1-0.05-0.162 0.15-0.188 0.201-0.024 0.426 1e-3 0.676 0.076z" clip-rule="evenodd" fill="#F6F0A7" fill-rule="evenodd"/>
		<path d="m30.112 27.025c0.726 0.149 0.862 0.313 0.413 0.487-0.426 0.175-0.851 0.212-1.275 0.112-0.351-0.05-0.375-0.188-0.075-0.412 0.325-0.199 0.638-0.262 0.937-0.187z" clip-rule="evenodd" fill="#E0D545" fill-rule="evenodd"/>
		<path d="m21.375 25.938c0.325-0.05 0.462 0.063 0.413 0.338-0.025 0.275-0.163 0.388-0.413 0.337-0.225-0.024-0.337-0.137-0.337-0.337 0-0.175 0.112-0.288 0.337-0.338z" clip-rule="evenodd" fill="#F6F0A7" fill-rule="evenodd"/>
		<path d="m19.8 23.05c0.225-0.074 0.263-0.024 0.113 0.15-0.125 0.175-0.338 0.351-0.638 0.525-0.675 0.399-1.2 0.563-1.575 0.487-0.2-0.051-0.175-0.125 0.075-0.226 0.225-0.1 0.462-0.162 0.712-0.188 0.15 0 0.337-0.1 0.563-0.3 0.225-0.223 0.475-0.373 0.75-0.448z" clip-rule="evenodd" fill="#F6F0A7" fill-rule="evenodd"/>
		<path d="m40.088 27.438h1.087c0.05 0.125 0.075 0.313 0.075 0.563 0 1.825-1.713 3.375-5.138 4.65-3.425 1.274-7.563 1.912-12.413 1.912s-8.987-0.638-12.412-1.912c-3.425-1.276-5.137-2.826-5.137-4.651l0.075-0.563h1.275v0.3c0 1.626 1.587 3 4.762 4.125 3.175 1.15 7.013 1.726 11.513 1.726 4.525 0 8.375-0.575 11.55-1.726 3.175-1.125 4.763-2.499 4.763-4.125v-0.299z" clip-rule="evenodd" fill="#fff" fill-rule="evenodd"/>
		<use transform="matrix(.7472 .0649 .0649 -.7472 8.0498 13.05)" x="-0.368" y="-26.218" width="51.301" height="26.782" xlink:href="#a"/>
		<use transform="matrix(-.7498 .0159 -.0159 -.7498 40.15 7.4502)" x="-0.368" y="-26.218" width="51.301" height="26.782" xlink:href="#a"/>
		<use transform="matrix(.7472 .0649 .0649 -.7472 6.5 .3999)" x="-0.368" y="-26.218" width="51.301" height="26.782" xlink:href="#a"/>
	<g clip-rule="evenodd" fill-rule="evenodd">
		<path d="m26.8 17.15l-0.05 0.2v0.2c0.033 0.034 0.083 0.05 0.15 0.05 0.733 0.066 1.25 0.15 1.55 0.25v-0.25c-0.367-0.3-0.617-0.467-0.75-0.5-0.233 0.033-0.533 0.05-0.9 0.05zm14.35 10.05c0-0.101-0.017-0.15-0.051-0.15h-0.1c-0.1 0-0.217 0.117-0.35 0.351-0.167 0.333-0.284 0.517-0.351 0.55v0.6h0.25c0.101-0.166 0.184-0.316 0.25-0.45-0.3 0.7-0.583 1.2-0.85 1.5-0.033 0-0.066-0.017-0.101-0.05-0.133-0.166-0.199-0.399-0.199-0.7 0-0.199 0.183-0.75 0.55-1.649l0.55-1.351c0-0.133-0.184-0.366-0.55-0.699-1.167 0.033-1.9 0.116-2.2 0.25-0.2 0.066-0.3 0.199-0.3 0.399 0 0.101 0.05 0.2 0.149 0.3 0.067 0.067 0.101 0.15 0.101 0.25 0 0.167-0.033 0.217-0.101 0.15v0.1c0 0.067-0.066 0.101-0.199 0.101-0.267 0-0.434-0.217-0.5-0.65l-0.048-0.652c0-0.7 0.717-1.034 2.15-1 1.467 0.066 2.2 0.55 2.2 1.449 0 0.301-0.1 0.751-0.3 1.351zm-20.55-7.55c-0.133-0.167-0.25-0.45-0.35-0.851l-0.1-0.85c0-1.434 0.75-1.85 2.25-1.25 0.8 0.333 1.583 0.783 2.35 1.35 0.467 0 0.833-0.167 1.1-0.5 0.267-0.367 0.767-0.55 1.5-0.55 0.667 0 1.417 0.333 2.25 1 0.733 0.567 1.101 0.95 1.101 1.15 0 0.133-0.017 0.233-0.05 0.3l-0.151 0.251c0.134 0.033 0.1 0.05-0.1 0.05-0.134-0.1-0.25-0.2-0.351-0.3-1.233-1.1-2.05-1.65-2.45-1.65-0.666 0-1.149 0.184-1.449 0.55-0.301 0.333-0.7 0.5-1.2 0.5s-0.95-0.183-1.35-0.55l-0.75-0.7c-0.833-0.2-1.434-0.05-1.8 0.45l-0.25 0.75c0 0.1 0.034 0.233 0.1 0.4 0.1 0.166 0.15 0.3 0.15 0.399-0.033 0.034-0.033 0.067 0 0.101 0 0.033-0.05 0.05-0.15 0.05s-0.2-0.033-0.3-0.1zm19.35 4.9c-0.467-0.033-1.167-0.033-2.101 0v0.4c0.034 0.033 0.101 0.05 0.2 0.05h1.05c0.267-0.3 0.5-0.45 0.7-0.45 0.101 0.033 0.151 0.033 0.151 0zm-18.6-7.3c0.3-0.2 0.5-0.35 0.6-0.45-0.2-0.066-0.434-0.05-0.7 0.05-0.3 0.1-0.45 0.233-0.45 0.4l0.05 0.45c0.1-0.167 0.267-0.317 0.5-0.45zm-6.15-5.05c0.2 0 0.433 0.15 0.7 0.45h1.25v-0.45c-0.933-0.034-1.633-0.034-2.1 0 0 0.033 0.05 0.033 0.15 0zm-6.55 8.7c0-0.101-0.017-0.15-0.05-0.15-0.1 0-0.184-0.017-0.25-0.05-0.533 0.133-0.8 0.416-0.8 0.85l0.1 0.25c0.4-0.2 0.65-0.35 0.75-0.45 0.167-0.1 0.25-0.25 0.25-0.45zm-0.3 3h-0.05c-0.5 0-0.85-0.217-1.05-0.65-0.1-0.233-0.15-0.467-0.15-0.7 0-0.666 0.35-1.333 1.05-2 0.867-0.866 1.967-1.267 3.3-1.2 0.133 0.134 0.233 0.233 0.3 0.301 0.6-0.267 0.9-0.084 0.9 0.55 0 0.133-0.267 0.416-0.8 0.85s-0.8 0.816-0.8 1.15c0.567 0.833 0.85 1.35 0.85 1.55 0 0.333-0.133 0.65-0.4 0.95-0.633 0.666-0.967 1.017-1 1.05h-0.4c-0.067-0.033-0.1-0.1-0.1-0.2 0-0.066 0.033-0.133 0.1-0.2 0.066-0.199 0.25-0.483 0.55-0.85 0.2-0.233 0.4-0.483 0.6-0.75 0-0.066-0.167-0.417-0.5-1.05-0.067-0.101-0.133-0.217-0.2-0.351-0.1-0.166-0.15-0.333-0.15-0.5-0.1-0.233-0.15-0.433-0.15-0.6 0-0.4 0.267-0.783 0.8-1.15-0.167 0-0.383 0.017-0.65 0.051h-0.15c-0.1 0.033-0.183 0.083-0.25 0.149-1.567 0.9-2.35 1.75-2.35 2.55 0 0.167 0.333 0.417 1 0.75h0.05l0.05 0.15h-0.05c-0.133 0.066-0.25 0.116-0.35 0.15zm8.8-9.65v-0.1c-0.066 0.1-0.1 0.05-0.1-0.15 0-0.1 0.034-0.183 0.1-0.25 0.1-0.1 0.15-0.2 0.15-0.3 0-0.2-0.1-0.333-0.3-0.4-0.3-0.133-1.033-0.216-2.2-0.25-0.367 0.333-0.55 0.567-0.55 0.7 0 0.033 0.183 0.5 0.55 1.4s0.55 1.434 0.55 1.6c0 0.333-0.067 0.567-0.2 0.7l-0.1 0.1c-0.267-0.3-0.55-0.8-0.85-1.5 0.066 0.1 0.15 0.233 0.25 0.4h0.25v-0.6c-0.067-0.033-0.184-0.217-0.35-0.55-0.133-0.2-0.25-0.316-0.35-0.35-0.033 0.033-0.067 0.033-0.1 0-0.033 0-0.05 0.066-0.05 0.2-0.2-0.6-0.3-1.05-0.3-1.35 0-0.933 0.733-1.433 2.2-1.5 1.433-0.033 2.15 0.3 2.15 1l-0.05 0.65c-0.067 0.433-0.233 0.65-0.5 0.65-0.133 0-0.2-0.017-0.2-0.05v-0.05zm-6.3 7.25h0.2c0.6-0.467 0.967-0.816 1.1-1.05l-0.1-0.2c-0.233-0.033-0.517 0.083-0.85 0.35-0.333 0.301-0.5 0.551-0.5 0.75 0 0.167 0.05 0.216 0.15 0.15zm0 3.6c0.233 0 0.383-0.083 0.45-0.25 0-0.166-0.05-0.35-0.15-0.55-0.233 0.4-0.35 0.617-0.35 0.65 0 0.166 0.017 0.217 0.05 0.15z" fill="#E7D115"/>
		<path d="m41.15 27.2c0 0.2-0.117 0.5-0.351 0.899-0.066 0.134-0.149 0.284-0.25 0.45h-0.249v-0.6c0.066-0.033 0.184-0.217 0.351-0.55 0.133-0.233 0.25-0.351 0.35-0.351h0.1c0.033 2e-3 0.049 0.052 0.049 0.152zm-14.35-10.05c0.367 0 0.667-0.017 0.9-0.05 0.133 0.033 0.383 0.2 0.75 0.5v0.25c-0.3-0.1-0.816-0.184-1.55-0.25-0.067 0-0.117-0.017-0.15-0.05v-0.2l0.05-0.2zm-5.45 0.1c-0.233 0.133-0.4 0.283-0.5 0.45l-0.05-0.45c0-0.167 0.15-0.3 0.45-0.4 0.267-0.1 0.5-0.117 0.7-0.05-0.1 0.1-0.3 0.25-0.6 0.45zm18.6 7.3c0 0.033-0.05 0.033-0.15 0-0.2 0-0.434 0.15-0.7 0.45h-1.05c-0.1 0-0.166-0.017-0.2-0.05v-0.4c0.933-0.033 1.633-0.033 2.1 0zm-24.75-12.35c-0.1 0.033-0.15 0.033-0.15 0 0.467-0.034 1.167-0.034 2.1 0v0.45h-1.25c-0.267-0.3-0.5-0.45-0.7-0.45zm-6.55 8.7c0 0.199-0.083 0.35-0.25 0.449-0.1 0.101-0.35 0.251-0.75 0.451l-0.1-0.25c0-0.434 0.267-0.717 0.8-0.85 0.066 0.033 0.15 0.05 0.25 0.05 0.033 0 0.05 0.05 0.05 0.15zm5.55-5.1c-0.233-0.4-0.35-0.7-0.35-0.9 0-0.133 0.017-0.2 0.05-0.2 0.033 0.033 0.067 0.033 0.1 0 0.1 0.033 0.217 0.15 0.35 0.35 0.167 0.333 0.283 0.517 0.35 0.55v0.6h-0.25c-0.1-0.167-0.183-0.3-0.25-0.4zm-3.35 5.7c-0.1 0.066-0.15 0.017-0.15-0.15 0-0.199 0.167-0.449 0.5-0.75 0.333-0.267 0.617-0.383 0.85-0.35l0.1 0.2c-0.133 0.233-0.5 0.583-1.1 1.05h-0.2zm0 3.6c-0.033 0.067-0.05 0.017-0.05-0.149 0-0.033 0.117-0.25 0.35-0.65 0.1 0.2 0.15 0.384 0.15 0.55-0.067 0.166-0.217 0.249-0.45 0.249z" fill="#F6F0A7"/>
		<path d="m37.85 26.6v-0.1c0.067 0.066 0.101 0.017 0.101-0.15 0-0.1-0.033-0.183-0.101-0.25-0.1-0.1-0.15-0.2-0.15-0.3 0-0.2 0.1-0.333 0.3-0.399 0.3-0.134 1.033-0.217 2.2-0.25 0.366 0.333 0.55 0.566 0.55 0.699l-0.55 1.35c-0.367 0.899-0.55 1.45-0.55 1.649 0 0.301 0.066 0.534 0.199 0.7l-0.049 0.051c-0.399-0.066-0.649-0.267-0.75-0.6-0.066-0.134-0.1-0.417-0.1-0.85 0-0.367 0.184-0.733 0.55-1.101 0.4-0.366 0.6-0.633 0.6-0.8-0.1-0.266-0.15-0.449-0.15-0.549-0.767-0.101-1.233 0.017-1.4 0.35-0.2 0.367-0.333 0.55-0.399 0.55h-0.301zm-7.8-7.15c-0.066 0.033-0.166 0.05-0.3 0.05-0.3 0-0.75-0.184-1.35-0.55-0.634-0.367-0.983-0.55-1.051-0.55-0.267 0-0.533 0.217-0.8 0.65-0.267 0.4-0.55 0.601-0.85 0.601-0.967 0-1.667-0.25-2.1-0.75-0.4-0.5-0.783-0.75-1.15-0.75-0.467 0-0.75 0.217-0.85 0.65-0.133 0.566-0.317 0.917-0.55 1.05l-0.449-0.151v-0.05c0.1 0.066 0.2 0.1 0.3 0.1s0.15-0.017 0.15-0.05c-0.033-0.033-0.033-0.066 0-0.101 0-0.1-0.05-0.233-0.15-0.399-0.066-0.167-0.1-0.3-0.1-0.4l0.25-0.75c0.367-0.5 0.967-0.65 1.8-0.45l0.75 0.7c0.4 0.367 0.85 0.55 1.35 0.55s0.899-0.167 1.2-0.5c0.3-0.367 0.783-0.55 1.449-0.55 0.401 0 1.217 0.55 2.451 1.65zm-20.05 0.85c0.1-0.066 0.233-0.116 0.4-0.149 0.267-0.034 0.483-0.051 0.65-0.051-0.533 0.367-0.8 0.75-0.8 1.15 0 0.167 0.05 0.366 0.15 0.6 0 0.167 0.05 0.334 0.15 0.5 0.067 0.134 0.133 0.25 0.2 0.351 0.333 0.633 0.5 0.983 0.5 1.05-0.2 0.267-0.4 0.517-0.6 0.75-0.3 0.366-0.483 0.65-0.55 0.85l-0.2-0.151c0-0.2 0.133-0.417 0.4-0.65s0.4-0.434 0.4-0.6c0-0.066-0.184-0.351-0.55-0.851-0.4-0.466-0.6-0.899-0.6-1.3 0-0.133 0.017-0.25 0.05-0.35-0.867 0.267-1.3 0.684-1.3 1.25 0 0.267 0.117 0.566 0.35 0.899-0.667-0.333-1-0.583-1-0.75 0-0.798 0.783-1.648 2.35-2.548zm-1.65 3.6c0.1-0.034 0.217-0.084 0.35-0.15v0.05c-0.033 0.066-0.117 0.1-0.25 0.1h-0.1zm8.8-9.65c-0.1 0.033-0.2 0.05-0.3 0.05-0.067 0-0.2-0.2-0.4-0.6-0.167-0.333-0.633-0.45-1.4-0.35 0 0.1-0.05 0.283-0.15 0.55 0 0.167 0.2 0.434 0.6 0.8 0.367 0.367 0.55 0.733 0.55 1.1 0 0.434-0.033 0.733-0.1 0.9-0.1 0.3-0.35 0.5-0.75 0.6l-0.05-0.1c0.133-0.133 0.2-0.367 0.2-0.7 0-0.167-0.184-0.7-0.55-1.6s-0.55-1.367-0.55-1.4c0-0.133 0.183-0.367 0.55-0.7 1.167 0.034 1.9 0.117 2.2 0.25 0.2 0.067 0.3 0.2 0.3 0.4 0 0.1-0.05 0.2-0.15 0.3-0.066 0.067-0.1 0.15-0.1 0.25 0 0.2 0.034 0.25 0.1 0.15v0.1z" fill="#A8920C"/>
	</g>
</svg>
