<?xml version="1.0" encoding="UTF-8"?>
<svg viewBox="0 0 414.26743 428.01059" xmlns="http://www.w3.org/2000/svg" xmlns:xlink="http://www.w3.org/1999/xlink">
 <defs>
  <linearGradient id="a">
   <stop stop-color="#9fd0c6" offset="0"/>
   <stop stop-color="#cbe6e1" offset="1"/>
  </linearGradient>
  <linearGradient id="f" x1="227.74" x2="165.45" y1="352.75" y2="319.42" gradientUnits="userSpaceOnUse">
   <stop stop-color="#ec7fcc" offset="0"/>
   <stop stop-color="#f3c1e4" offset="1"/>
  </linearGradient>
  <linearGradient id="b" x1="261.96" x2="234.86" y1="314.72" y2="388.3" gradientUnits="userSpaceOnUse">
   <stop stop-color="#dcdbd9" offset="0"/>
   <stop stop-color="#848484" offset="1"/>
  </linearGradient>
  <linearGradient id="e" x1="196.48" x2="377.02" gradientUnits="userSpaceOnUse" xlink:href="#a"/>
  <linearGradient id="d" x1="196.37" x2="379.04" gradientUnits="userSpaceOnUse" xlink:href="#a"/>
  <linearGradient id="c" x1="379.04" x2="469.72" gradientUnits="userSpaceOnUse" xlink:href="#a"/>
 </defs>
 <g transform="translate(-172.12 -299.67)">
  <path d="m469.72 324.72-181.79 15.47c-0.45317-0.01044-0.89323-0.10946-1.348-0.10946-3.7937 0-7.5135 0.4601-11.184 1.1675-44.448 8.5658-78.91 67.312-78.91 138.57s34.462 130.01 78.91 138.57c3.6709 0.70745 7.3906 1.204 11.184 1.204 0.8604 0 1.6956-0.18168 2.5502-0.21892l180.59 13.171v-307.83z" fill="url(#e)" fill-rule="evenodd"/>
  <path d="m196.36711,469.00211v213.50409c1.00557-.39427 4.19939-1.14671 4.59776-1.14416-.11238.06833-.60483.22554-1.64206.53894-.0228.01318-.05036.01495-.07298.02802-.65168.19618-1.51667.47494-2.62729.78933 .34484-.02725.86956-.06963 1.60557-.17828l.94874-.54655c-.19933.15361-.36747.32881-.58384.47949 .41273-.0632.88798-.14679 1.42312-.23598l-2.37187,1.14743 1.1312.13148c1.08339-.63594 1.92953-1.14564 2.55431-1.52763-.47386.08256-.87667.18612-1.27715.25296 1.32336-.64459 2.46948-1.2058 2.77325-1.28324l.03649.00425c-.00233.00321.0032.0328 0,.03649-.11476.11761-.58981.41315-1.53259.98954 .59285-.10326 1.2547-.18856 1.97047-.31832 2.63695-.18732 4.4867,2.30252 7.0791,3.15818 1.09604.12012 2.02217.22486 2.73676.35458l.29192.03393 3.90446.45381c.22377-.06374.41852-.08742.54735-.08233l.03649.00424 .03649.00424 .03649.00424 .03649.04074c.00377.00596.03419.03392.03649.04072 .0004.00382-1e-005,.03247 0,.03649s.00117.03181 0,.03649l4.23286.49199c.53458-.21782 1.13351-.43074 1.75153-.67218 .12173.04243.21867.10599.32841.14764 .01936.00734.05398.00116.07298.00848 .01162-.00212.02469.00602.03649.00424 .62548-.09464 1.49174.24978 2.48133.61681 .00937-.00357.02708.00784.03649.00424 1.20023-.4569 2.79673-.99214 4.88969-1.65756 .17171.4033.35944.74191.54735,1.04885 .88519-.31494 1.67737-.48179 2.11643-.44732l.10947.01272 .03649.00425c1.21795.34628 1.98857,1.22882 2.80975,2.07811 .87744-.18413 1.81553-.42486 2.80974-.58569 .51808.2437.97925.5152 1.42312.78574 .01306.00797.02348-.00372.03649.00424 1.84185-.96261 3.42737-1.79918 3.64902-1.87475 .2999.12161 2.8606,2.35752 3.86796,3.18633 .47201-.89368 1.87081-.86595 3.17465-.43379 1.57721-.10598 3.10348.25348 3.97743,1.59349 2.54547-.67375 5.17886-.06967 7.8089.14134-.93134.26244-1.70215.45933-2.33538.64081l1.02173.11876c.15036-.02916.28363-.06564.43788-.09506 1.14896-.69586 1.73658-1.01365 1.97047-1.04813l.03649.00424 .03649.00424 .03649.00424c.00215.00267-.00157.03339 0,.03649s.0006.03173 0,.03649c-.00111.00515.00161.03094 0,.03649-.00631.01778-.02593.04763-.03649.06874-.03573.06651-.07819.18251-.14596.27495 .63076-.14476 1.25738-.12885 1.861-.03913 .02204.00328.05097.00499.07298.00849 .01073-.00139.0258.00562.03649.00424 1.1677-.14967 2.12278-.21578 2.51782-.07226 .02913.01228.08765.03438.10947.04922 .00645.00525.0309.03519.0365.04073 .01419.01753.03025.05691.03649.07722 .00116.00709-.00025.02909 0,.03649-.00138.01547.00518.05621 0,.07298-.04815.11777-.19618.27622-.43789.45998 .03285.01152.07656.00115.10947.01271 .00956-.00267.02698.00688.03649.00425 1.47521-.40739 2.50866-.21352 3.39359.35795l.03649.00423c.85505-.46294 2.18346-1.00642 3.68551-1.35965 .11656-.14299.28194-.26722.43788-.35049 .22066-.11117.49918-.16818.72981-.17061 .07641.00085.1838.01749.25543.02969l.10947.01272 .03649.00425 .10947.0492 .07298.04498c.01584.00926.05809.03486.07298.04497l.03649.04073c2.08006-.19259 4.22261.14754 5.76545,1.69185 3.77028,1.22589 6.75739-1.22647 10.54566.75135 3.50986,1.35427 7.13901.56214 10.76461,1.1417 3.9842.62569 7.12611-.41368 10.54566,2.02851 .69259-.19188 1.53915-.36701 2.48134-.40491-.03188.01563-.04262.0819-.07298.10099l.21894-.12052c2.1695-.05819 4.80381.5152 7.18856,2.58706-3e-005,.01276-.00063.06047 0,.07298-.00038.01927-.00025.06186 0,.07298-7e-005,.00322.00014.03281 0,.03649s.00028.03275 0,.03649l.03649.04073 .03649.04074 .03649.04073 .07298.04497 .07299.04498 .03649.00423c.10045.03124.23653.06172.3649.07891 1.64515-1.03914 4.39938-2.20635 6.64121-2.11082l.07298-.02801c.02794-.00571.08444-.01372.10947-.02376 .01581-.00542.05876-.0262.07298-.02801l.03649.00424 .03649.00424c-.00088.00321.00075.03231 0,.03649-.00204.01038-.0324.02225-.03649.03225-.00121.00239.00143.03426 0,.03649 .76904.07248 1.44795.28086 2.00696.74414 .52428.30741.9811.37857 1.38663.30712 2.90044-1.55642 2.84677-1.72583 6.53174.3213 4.31174-.36815 7.45056.02288 11.82282,1.41066 4.68148-.7712 7.86627.71894 12.07826,2.27963 3.54053-.93635 4.59748.10721 7.37101,1.696 1.35311-.52122 2.74631-.7215 4.19638-.8259v-232.80185l-182.66988,1e-005zm66.99598,221.87488-.21894.12051 .43788.05089c.12983-.08491.23744-.17878.3649-.24951-.18819.03504-.39937.0429-.58384.07811zm55.17317,4.11389c-.0223.01442-.05047.05169-.07299.06451 .03277-.01566.04211-.04943.07299-.06451zm-1.24067.47614c-.05481.0239-.09365.06836-.14596.0925l.21894-.04753c.00699-.00214.02953.00662.03649.00424-.00032-.00315.00117-.03314 0-.03649l-.03649-.00424-.03649-.00424c-.01125.00446-.02553-.00903-.03649-.00424zm16.42058,3.11274-.25543.11627 .25543-.11627zm-137.34906-15.85462v.07298c.04003-.01131.07006-.04913.10947-.06027l-.10947-.01271zm80.42437,9.42071c-.20817.12043-.40981.23473-.65682.36154l.94874.11027c-.10101-.16542-.21817-.32038-.29192-.47181zm59.33305,7.29768c-.01177.00187-.02435.03056-.03649.03224l.14596.01696c-.00608-.00362.0058-.03331 0-.03649l-.03649-.00424-.07298-.00847z" fill="url(#d)"/>
  <path d="m379.04 470.35v155.59l90.678 6.6047v-162.2h-90.678z" fill="url(#c)" fill-rule="evenodd"/>
  <path transform="matrix(0 3.4238 -3.2908 0 1572 -325.45)" d="m279.81 334.65a44.952 27.779 0 1 1 -89.904 0 44.952 27.779 0 1 1 89.904 0z" fill="url(#f)" fill-rule="evenodd"/>
  <path transform="matrix(0 3.4238 -3.2908 0 1572 -325.45)" d="m279.81 334.65a44.952 27.779 0 1 1 -89.904 0 44.952 27.779 0 1 1 89.904 0z" fill="#dbe3e2" fill-rule="evenodd"/>
  <path transform="matrix(0 1.1677 -1.1677 0 863.86 205.56)" d="m279.81 334.65a44.952 27.779 0 1 1 -89.904 0 44.952 27.779 0 1 1 89.904 0z" fill="#b2b2b2" fill-rule="evenodd"/>
  <path transform="matrix(0 1.0516 -1.0516 0 824.7 232.05)" d="m279.81 334.65a44.952 27.779 0 1 1 -89.904 0 44.952 27.779 0 1 1 89.904 0z" fill="url(#b)" fill-rule="evenodd"/>
 </g>
</svg>
