<?xml version="1.0" encoding="UTF-8"?>
<svg version="1.1" viewBox="0 0 500 500" xmlns="http://www.w3.org/2000/svg">
 <rect width="500" height="500" fill-opacity="0"/>
 <g transform="matrix(1.1045 -.68945 .68945 1.1045 -131.63 185.82)">
  <path d="m180.77 43.574h100.87v13.982l-2 2-3.9924 0.99622-1.9975 33.957v118.85l-5.9924 74.905 2.9962 32.958-2 2-89.884-3.9975v-31.96l2.9962-52.933-0.99874-69.912-3.995-71.909-1.9975-34.956-5.995-11.982 2-2z" fill="#4e9097"/>
  <rect x="203.24" y="294.76" width="41.947" height="78.9" ry="10.986" color="#000000" fill="#fd5252"/>
  <path d="m178.77 45.574h100.87v13.982l-5.9924 2.9962-1.9975 33.957v118.85l-5.9924 74.905 2.9962 32.958s-23.97 10.986-45.942 10.986-45.942-12.984-45.942-12.984v-31.96l2.9962-52.933-0.99874-69.912-3.995-71.909-1.9975-34.956-3.995-3.995v-9.9874z" fill="#6daeb4"/>
  <path d="m226.84 165.1c2.4207 0.0883 3.3675-3.9139 8.5366-3.5163 3.9576 0.30444 5.498 5.7599 4.8891 10.631-0.60887 4.871-3.909 6.6823-3.6532 9.8941 0.29399 3.6919 2.196 18.374-1.9788 18.266-4.8977-0.12701-4.4526-13.934-7.4586-13.852-4.7989 0.13086-3.9558 13.3-9.4375 13.243-4.8822-0.0504-0.20525-10.544-0.30443-14.308-0.15223-5.778-2.749-5.8907-3.6623-10.762-0.9133-4.871-0.50183-12.545 3.7992-12.43 6.0884 0.16298 5.1176 2.6669 9.27 2.8344z" fill="#e5f1f2"/>
  <path d="m227.09 144.65c-9.4749 0-19.317 2.8579-25.543 9.0833s-10.831 17.316-10.831 26.791 4.6057 16.571 10.831 22.796 14.82 11.081 24.294 11.081 18.069-4.8554 24.294-11.081 10.082-14.82 10.082-24.294-3.607-16.821-9.8324-23.046-13.821-11.33-23.296-11.33zm0 5.5727c7.9691 0 14.171 4.4648 19.38 9.6735 5.2087 5.2087 8.1754 11.161 8.1754 19.13s-3.2164 15.17-8.4251 20.379-12.41 9.4239-20.379 9.4239-15.17-4.2152-20.379-9.4239-9.1742-10.912-9.1742-18.881 3.9655-17.667 9.1742-22.876 13.658-7.4264 21.627-7.4264z" color="#000000" fill="#fff" style="block-progression:tb;text-indent:0;text-transform:none"/>
  <rect x="207.56" y="337.03" width="2.2738" height="27.366" ry="2.56" color="#000000" fill="#fa0202"/>
  <rect x="212.95" y="338.91" width="2.6483" height="27.366" ry="2.56" color="#000000" fill="#fa0202"/>
  <rect x="218.67" y="339.61" width="2.6483" height="27.366" ry="2.56" color="#000000" fill="#fa0202"/>
  <rect x="225.03" y="339.67" width="2.6483" height="27.366" ry="2.56" color="#000000" fill="#fa0202"/>
  <rect x="231.55" y="338.89" width="2.6483" height="27.366" ry="2.56" color="#000000" fill="#fa0202"/>
  <rect x="237.32" y="337.82" width="2.6483" height="27.366" ry="2.56" color="#000000" fill="#fa0202"/>
  <rect x="242.58" y="336.53" width="2.0241" height="27.366" ry="2.56" color="#000000" fill="#fa0202"/>
  <rect x="204.2" y="335.9" width="2.0241" height="27.366" ry="2.56" color="#000000" fill="#fa0202"/>
 </g>
</svg>
