<?xml version="1.0" encoding="UTF-8"?>
<!DOCTYPE svg  PUBLIC '-//W3C//DTD SVG 1.1//EN'  'http://www.w3.org/Graphics/SVG/1.1/DTD/svg11.dtd'>
<svg enable-background="new 0 0 41.75 39.95" version="1.1" viewBox="0 0 41.75 39.95" xml:space="preserve" xmlns="http://www.w3.org/2000/svg" xmlns:xlink="http://www.w3.org/1999/xlink">
<symbol id="ag" viewBox="0 -31.5 5.3 31.5">
			<linearGradient id="x" x1="-546.01" x2="-520.84" y1="-15754" y2="-15754" gradientTransform="matrix(.0696 -.9976 .9976 .0696 15756 548.59)" gradientUnits="userSpaceOnUse">
			<stop stop-color="#fff" offset="0"/>
			<stop offset="1"/>
		</linearGradient>
		<path d="m3.35-0.55l1.95 0.55c0-0.267-0.2-1-0.6-2.2-0.167-0.467-0.533-1.383-1.1-2.75-0.467-1.067-0.733-1.85-0.8-2.35-0.1-0.633-0.15-3.267-0.15-7.9-0.033-4.333-0.017-7.7 0.05-10.1 0.033-2.867 0.216-4.934 0.55-6.2-0.333 0.233-0.8 0.717-1.4 1.45-0.4 0.466-0.767 1.033-1.1 1.7l-0.4 0.85-0.35 21c0.033 0.5 0.3 1.1 0.8 1.8 0.6 0.7 0.983 1.2 1.15 1.5 0.733 1.167 1.2 2.05 1.4 2.65z" clip-rule="evenodd" fill="url(#x)" fill-rule="evenodd"/>
</symbol>
<symbol id="ah" viewBox="0.028 -1.206 9.472 1.206">
		<path d="m0.45-0.05c0.633-0.2 1.667-0.4 3.1-0.6 1.8-0.267 3.784-0.4 5.95-0.4-0.067-0.167-1.15-0.2-3.25-0.1-2.667 0.1-4.65 0.383-5.95 0.85-0.233 0.1-0.317 0.183-0.25 0.25s0.2 0.067 0.4 0z" clip-rule="evenodd" fill="#fff" fill-rule="evenodd"/>
</symbol>
<symbol id="ai" viewBox="0 -3.112 16.5 3.112">
		<path d="m15.55 0l0.95-1.45c-1.6-1.2-4.183-1.75-7.75-1.65-4.067 0.1-6.983 0.85-8.75 2.25l0.55 0.85 7.5-0.4 7.5 0.4z" clip-rule="evenodd" fill="#752A20" fill-rule="evenodd"/>
</symbol>
<symbol id="aj" viewBox="0 -31.5 5.25 31.5">
		<linearGradient id="y" x1="4.2163" x2="2.4663" y1="-27.484" y2="-2.3844" gradientUnits="userSpaceOnUse">
			<stop stop-color="#fff" offset="0"/>
			<stop offset="1"/>
		</linearGradient>
		<path d="m1.95-0.55c0.167-0.6 0.617-1.483 1.35-2.65 0.2-0.3 0.583-0.8 1.15-1.5 0.5-0.7 0.767-1.3 0.8-1.8l-0.3-21-0.4-0.85c-0.367-0.667-0.733-1.233-1.1-1.7-0.6-0.733-1.083-1.217-1.45-1.45 0.367 1.267 0.567 3.333 0.6 6.2 0.133 10.5 0.083 16.5-0.15 18-0.067 0.5-0.333 1.283-0.8 2.35-0.533 1.3-0.883 2.217-1.05 2.75-0.4 1.2-0.6 1.933-0.6 2.2l1.95-0.55z" clip-rule="evenodd" fill="url(#y)" fill-rule="evenodd"/>
</symbol>
<linearGradient id="z" x2="24.175" y1="22.981" y2="22.981" gradientUnits="userSpaceOnUse">
	<stop stop-color="#EB6B44" offset="0"/>
	<stop stop-color="#662111" offset="1"/>
</linearGradient>
<path d="m22.3 9.7c0.7 0.733 1.167 1.433 1.4 2.1 0.333 0.833 0.5 1.934 0.5 3.3 0 1.333-0.117 4.533-0.351 9.6-0.233 4.833-0.399 7.7-0.5 8.6-0.1 1.066-0.566 2.101-1.399 3.101-1.101 1.366-2.717 2.35-4.85 2.949-1.7 0.467-3.367 0.667-5 0.601-1.633 0.066-3.317-0.134-5.05-0.601-2.133-0.6-3.75-1.583-4.85-2.95-0.833-1-1.284-2.034-1.35-3.101-0.1-0.899-0.267-3.767-0.5-8.6-0.233-5.066-0.35-8.266-0.35-9.599 0-1.367 0.167-2.467 0.5-3.3 0.233-0.633 0.683-1.333 1.35-2.1 1.2-1.267 2.117-2.5 2.75-3.7l7.5 0.4 7.5-0.4c0.7 1.267 1.6 2.5 2.7 3.7z" clip-rule="evenodd" fill="url(#z)" fill-rule="evenodd"/>
<linearGradient id="aa" x1=".6499" x2="23.35" y1="22.807" y2="22.807" gradientUnits="userSpaceOnUse">
	<stop stop-color="#C44822" offset="0"/>
	<stop stop-color="#7D2512" offset="1"/>
</linearGradient>
<path d="m21.6 9.9c0.634 0.733 1.084 1.417 1.351 2.05 0.267 0.8 0.399 1.867 0.399 3.2 0 1.233-0.116 4.35-0.35 9.35-0.2 4.434-0.333 7.217-0.4 8.35-0.1 1.067-0.533 2.067-1.3 3-1.033 1.334-2.55 2.284-4.55 2.851-1.667 0.467-3.25 0.666-4.75 0.6-1.533 0.066-3.1-0.133-4.7-0.6-2-0.566-3.517-1.517-4.55-2.851-0.8-0.966-1.233-1.966-1.3-3-0.067-0.833-0.217-3.617-0.45-8.35-0.233-4.9-0.35-8.017-0.35-9.35s0.15-2.4 0.45-3.2c0.233-0.633 0.667-1.317 1.3-2.05 1.2-1.3 2.05-2.5 2.55-3.6l7.05 0.4 7.05-0.4c0.667 1.233 1.516 2.433 2.55 3.6z" clip-rule="evenodd" fill="url(#aa)" fill-rule="evenodd"/>
<linearGradient id="ab" x1=".75" x2="16.05" y1="26.073" y2="26.073" gradientUnits="userSpaceOnUse">
	<stop stop-color="#EDD144" offset="0"/>
	<stop stop-color="#E5C841" offset=".1882"/>
	<stop stop-color="#D1AF38" offset=".4941"/>
	<stop stop-color="#AF872B" offset=".8784"/>
	<stop stop-color="#A37926" offset="1"/>
</linearGradient>
<path d="m13 21.55c1.733 0 2.8-0.083 3.2-0.25l-0.05 12.25c-1.667 0.7-4.533 0.834-8.6 0.4-2.233-0.233-3.917-0.783-5.05-1.65l-1.05-1.2-0.65-11c0.267 0.2 0.817 0.4 1.65 0.601-0.1-0.867 0.267-1.583 1.1-2.15 0.8-0.566 2.383-0.733 4.75-0.5 2.534 0.233 4.05 0.917 4.55 2.05 0.267 0.566 0.317 1.049 0.15 1.449z" clip-rule="evenodd" fill="url(#ab)" fill-rule="evenodd"/>
<linearGradient id="ac" x1="1.2998" x2="15.275" y1="26.264" y2="26.264" gradientUnits="userSpaceOnUse">
	<stop stop-color="#79C22F" offset="0"/>
	<stop stop-color="#73B92D" offset=".1686"/>
	<stop stop-color="#64A027" offset=".4471"/>
	<stop stop-color="#4C781D" offset=".8"/>
	<stop stop-color="#3C5E16" offset="1"/>
</linearGradient>
<path d="m12.35 22.2c1.6 0 2.583-0.084 2.95-0.25l-0.1 11.05c-0.367 0.167-0.967 0.3-1.8 0.4-1.667 0.233-3.65 0.216-5.95-0.051-2.067-0.233-3.617-0.733-4.65-1.5l-0.9-1.049-0.6-9.9c0.233 0.166 0.733 0.333 1.5 0.5-0.1-0.733 0.233-1.367 1-1.9 0.767-0.5 2.2-0.65 4.3-0.45 2.3 0.2 3.683 0.817 4.15 1.851 0.2 0.499 0.233 0.932 0.1 1.299z" clip-rule="evenodd" fill="url(#ac)" fill-rule="evenodd"/>
<linearGradient id="ad" x1=".75" x2="16.05" y1="21.956" y2="21.956" gradientUnits="userSpaceOnUse">
	<stop stop-color="#EDD144" offset="0"/>
	<stop stop-color="#E5C841" offset=".1882"/>
	<stop stop-color="#D1AF38" offset=".4941"/>
	<stop stop-color="#AF872B" offset=".8784"/>
	<stop stop-color="#A37926" offset="1"/>
</linearGradient>
<path d="m7.85 19.85c1.333 0.133 2.283 0.5 2.85 1.1 0.5 0.566 0.6 1.25 0.3 2.05s-1.483 1.167-3.55 1.1c-2.067-0.066-3.284-0.583-3.65-1.55-0.8-2.067 0.55-2.967 4.05-2.7z" clip-rule="evenodd" fill="url(#ad)" fill-rule="evenodd"/>
<linearGradient id="ae" x1="4.4375" x2="10.062" y1="22.013" y2="22.013" gradientUnits="userSpaceOnUse">
	<stop stop-color="#C44822" offset="0"/>
	<stop stop-color="#7D2512" offset="1"/>
</linearGradient>
<path d="m7.65 20.35c1 0.101 1.684 0.384 2.05 0.851 0.367 0.434 0.45 0.967 0.25 1.6-0.2 0.667-1.067 0.967-2.6 0.9-1.567-0.066-2.483-0.483-2.75-1.25-0.567-1.601 0.45-2.301 3.05-2.101z" clip-rule="evenodd" fill="url(#ae)" fill-rule="evenodd"/>
<linearGradient id="af" x1="2.5752" x2="8.8252" y1="28.837" y2="28.837" gradientUnits="userSpaceOnUse">
	<stop stop-color="#C44822" offset="0"/>
	<stop stop-color="#7D2512" offset="1"/>
</linearGradient>
<path d="m6.55 26.45c1.434 0.533 2.2 1.316 2.3 2.35s-0.467 1.8-1.7 2.3c-1.167 0.5-2.233 0.467-3.2-0.1-0.934-0.533-1.383-1.333-1.35-2.4 0.066-0.966 0.55-1.649 1.45-2.05 0.833-0.4 1.667-0.434 2.5-0.1z" clip-rule="evenodd" fill="url(#af)" fill-rule="evenodd"/>
<linearGradient id="s" x1="6.7251" x2="12.775" y1="29.73" y2="29.73" gradientUnits="userSpaceOnUse">
	<stop stop-color="#C44822" offset="0"/>
	<stop stop-color="#7D2512" offset="1"/>
</linearGradient>
<path d="m10.6 27.35c1.667 0.534 2.383 1.517 2.15 2.95-0.2 1.367-0.933 2.033-2.2 2-2.2-0.066-3.45-0.684-3.75-1.85-0.233-0.834 0.017-1.634 0.75-2.4 0.8-0.866 1.817-1.1 3.05-0.7z" clip-rule="evenodd" fill="url(#s)" fill-rule="evenodd"/>
<use transform="matrix(1 0 0 -1 2.2002 6.2998)" y="-31.5" width="5.3" height="31.5" enable-background="new" opacity=".5781" xlink:href="#ag"/>
<use transform="matrix(1 0 0 -1 16.9 6.2998)" y="-31.5" width="5.25" height="31.5" enable-background="new" opacity=".2109" xlink:href="#aj"/>
<use transform="matrix(1 0 0 -1 4.0498 6)" y="-3.112" width="16.5" height="3.112" enable-background="new" opacity=".6719" xlink:href="#ai"/>
<linearGradient id="t" x1="3.2998" x2="20.775" y1="6" y2="6" gradientUnits="userSpaceOnUse">
	<stop stop-color="#C44822" offset="0"/>
	<stop stop-color="#96301A" offset="1"/>
</linearGradient>
<path d="m20.8 6c0 0.567-0.85 1.05-2.55 1.45s-3.767 0.6-6.2 0.6c-2.4 0-4.45-0.2-6.15-0.6-1.733-0.4-2.6-0.883-2.6-1.45s0.867-1.05 2.6-1.45c1.7-0.4 3.75-0.6 6.15-0.6s4.467 0.2 6.2 0.6c1.7 0.4 2.55 0.883 2.55 1.45z" clip-rule="evenodd" fill="url(#t)" fill-rule="evenodd"/>
<linearGradient id="u" x1="3.0498" x2="21.25" y1="5.5249" y2="5.5249" gradientUnits="userSpaceOnUse">
	<stop stop-color="#6E6E6E" offset="0"/>
	<stop stop-color="#C7C7C7" offset=".3255"/>
	<stop stop-color="#BEBEBE" offset=".4549"/>
	<stop stop-color="#A5A5A5" offset=".6627"/>
	<stop stop-color="#7D7D7D" offset=".9255"/>
	<stop stop-color="#707070" offset="1"/>
</linearGradient>
<path d="m21.25 5.55c0 0.567-0.884 1.034-2.65 1.4-1.8 0.4-3.95 0.6-6.45 0.6-2.533 0-4.683-0.2-6.45-0.6-1.767-0.367-2.65-0.833-2.65-1.4 0-0.566 0.883-1.05 2.65-1.45s3.917-0.6 6.45-0.6c2.5 0 4.65 0.2 6.45 0.6 1.766 0.4 2.65 0.883 2.65 1.45z" clip-rule="evenodd" fill="url(#u)" fill-rule="evenodd"/>
<path d="m20.95 1.8v3.4c-0.033 0.4-0.917 0.733-2.65 1-1.7 0.267-3.767 0.4-6.2 0.4-2.434 0-4.5-0.133-6.2-0.4s-2.583-0.6-2.65-1v-3.4h17.7z" clip-rule="evenodd" fill="#0304D6" fill-rule="evenodd"/>
<linearGradient id="v" x1="3.25" x2="20.925" y1="4.2998" y2="4.2998" gradientUnits="userSpaceOnUse">
	<stop stop-color="#B3B3B3" offset="0"/>
	<stop stop-color="#E8E8E8" offset=".2314"/>
	<stop stop-color="#DFDFDF" offset=".3647"/>
	<stop stop-color="#C6C6C6" offset=".5882"/>
	<stop stop-color="#9E9E9E" offset=".8706"/>
	<stop stop-color="#898989" offset="1"/>
</linearGradient>
<path d="m20.95 1.65v3.55c-0.066 0.433-0.95 0.833-2.65 1.2-1.8 0.367-3.867 0.55-6.2 0.55s-4.4-0.184-6.2-0.55c-1.7-0.367-2.583-0.767-2.65-1.2v-3.55h17.7z" clip-rule="evenodd" fill="url(#v)" fill-rule="evenodd"/>
<linearGradient id="w" x1="-19.399" x2="-3.3813" y1="-2.5801" y2="-2.5801" gradientTransform="matrix(-.9973 .0734 -.0734 -.9973 -.00030747 .00045601)" gradientUnits="userSpaceOnUse">
	<stop stop-color="#C9C9C9" offset="0"/>
	<stop stop-color="#D2D2D2" offset=".6039"/>
	<stop stop-color="#DBDBDB" offset="1"/>
</linearGradient>
<path d="m20.9 1.7c0 0.466-0.867 0.867-2.601 1.2-1.7 0.333-3.767 0.5-6.2 0.5-2.467 0-4.55-0.167-6.25-0.5-1.733-0.333-2.6-0.733-2.6-1.2s0.867-0.867 2.6-1.2c1.701-0.333 3.784-0.5 6.251-0.5 2.433 0 4.5 0.167 6.2 0.5 1.733 0.333 2.6 0.733 2.6 1.2z" clip-rule="evenodd" fill="url(#w)" fill-rule="evenodd"/>
<use transform="matrix(1 0 0 -1 4.2998 6.7998)" x="0.028" y="-1.206" width="9.472" height="1.206" enable-background="new" opacity=".4805" xlink:href="#ah"/>
<path d="m4.55 36.35c0.7 0.367 1.117 0.75 1.25 1.15 0.133 0.366 0.05 0.55-0.25 0.55-0.433 0-1.066-0.383-1.9-1.149-0.367-0.367-0.4-0.601-0.1-0.7 0.3-0.135 0.633-0.085 1 0.149z" clip-rule="evenodd" fill="#F9E2C9" fill-rule="evenodd"/>
<path d="m7.25 37.7c0.467 0.1 0.583 0.283 0.35 0.55s-0.433 0.316-0.6 0.15c-0.167-0.134-0.25-0.301-0.25-0.5-0.033-0.2 0.133-0.266 0.5-0.2z" clip-rule="evenodd" fill="#F9E2C9" fill-rule="evenodd"/>
</svg>
