<?xml version="1.0" encoding="UTF-8"?>
<svg width="444.94" height="444.94" viewBox="0 0 444.93863 598.84021" xmlns="http://www.w3.org/2000/svg" xmlns:xlink="http://www.w3.org/1999/xlink">
 <defs>
  <filter id="i" x="-.10385" y="-.24523" width="1.2077" height="1.4905">
   <feGaussianBlur stdDeviation="21.25753"/>
  </filter>
  <filter id="h" x="-.02655" y="-.12069" width="1.0531" height="1.2414">
   <feGaussianBlur stdDeviation="9.09041"/>
  </filter>
  <linearGradient id="e">
   <stop stop-color="#dbe3de" offset="0"/>
   <stop stop-color="#dbe3de" stop-opacity="0" offset="1"/>
  </linearGradient>
  <linearGradient id="d">
   <stop stop-color="#1c241f" offset="0"/>
   <stop stop-color="#1c241f" stop-opacity="0" offset="1"/>
  </linearGradient>
  <linearGradient id="f">
   <stop stop-color="#b3b3b3" offset="0"/>
   <stop stop-color="#b3b3b3" stop-opacity="0" offset="1"/>
  </linearGradient>
  <linearGradient id="g">
   <stop stop-color="#e6e6e6" offset="0"/>
   <stop stop-color="#e6e6e6" stop-opacity="0" offset="1"/>
  </linearGradient>
  <linearGradient id="s" x1="-1041.5" x2="455.66" y1="472.81" y2="817.18" gradientUnits="userSpaceOnUse">
   <stop stop-color="#e3dedb" offset="0"/>
   <stop stop-color="#e3dedb" stop-opacity="0" offset="1"/>
  </linearGradient>
  <linearGradient id="r" x1="-16.799" x2="-12.599" y1="546.3" y2="720.59" gradientUnits="userSpaceOnUse">
   <stop stop-color="#221c24" offset="0"/>
   <stop stop-color="#221c24" stop-opacity="0" offset="1"/>
  </linearGradient>
  <linearGradient id="c" x1="-411.77" x2="-353.39" y1="375.18" y2="378.68" gradientUnits="userSpaceOnUse">
   <stop stop-color="#333" offset="0"/>
   <stop stop-color="#333" stop-opacity="0" offset="1"/>
  </linearGradient>
  <linearGradient id="b" x1="-365.44" x2="-357.27" y1="28.416" y2="317.97" gradientTransform="matrix(1 0 0 -1 532.02 364.9)" gradientUnits="userSpaceOnUse">
   <stop stop-color="#e6e6e6" offset="0"/>
   <stop stop-color="#808080" offset="1"/>
  </linearGradient>
  <linearGradient id="w" x1="-295.95" x2="-24.445" y1="188.53" y2="194.46" gradientUnits="userSpaceOnUse">
   <stop stop-color="#217767" offset="0"/>
   <stop stop-color="#217767" stop-opacity="0" offset="1"/>
  </linearGradient>
  <linearGradient id="t" x1="14.112" x2="-115.85" y1="197.1" y2="198.09" gradientUnits="userSpaceOnUse">
   <stop stop-color="#d5ffe6" offset="0"/>
   <stop stop-color="#d5ffe6" stop-opacity="0" offset="1"/>
  </linearGradient>
  <linearGradient id="a" x1="202.01" x2="204.22" y1="59.439" y2="155.59" gradientUnits="userSpaceOnUse" xlink:href="#g"/>
  <linearGradient id="q" x1="-309.23" x2="-420.03" y1="-59.286" y2="-27.629" gradientUnits="userSpaceOnUse" xlink:href="#f"/>
  <linearGradient id="p" x1="-742.42" x2="-605.8" y1="-68.449" y2="-47.623" gradientUnits="userSpaceOnUse" xlink:href="#f"/>
  <linearGradient id="o" x1="-520.87" x2="-522.97" y1="917.75" y2="457.89" gradientUnits="userSpaceOnUse" xlink:href="#g"/>
  <linearGradient id="z" x1="85.603" x2="90.542" y1="560.97" y2="486.06" gradientTransform="matrix(-.77513 -.25406 .27195 -.82972 -313 720.76)" gradientUnits="userSpaceOnUse" xlink:href="#d"/>
  <linearGradient id="y" x1="91.365" x2="98.773" y1="194.68" y2="281.11" gradientTransform="matrix(-.77513 -.25406 .27195 -.82972 -313 720.76)" gradientUnits="userSpaceOnUse" xlink:href="#d"/>
  <linearGradient id="x" x1="308.67" x2="172.03" y1="383.17" y2="388.94" gradientTransform="matrix(-.77513 -.25406 .27195 -.82972 -313 720.76)" gradientUnits="userSpaceOnUse" xlink:href="#d"/>
  <linearGradient id="v" x1="-93.011" x2="-89.719" y1="199.62" y2="417.74" gradientUnits="userSpaceOnUse" xlink:href="#e"/>
  <linearGradient id="u" x1="-114.41" x2="-104.53" y1="583.19" y2="371.65" gradientUnits="userSpaceOnUse" xlink:href="#e"/>
  <pattern id="j" width="2" height="1" patternTransform="scale(10)" patternUnits="userSpaceOnUse">
   <path d="m0-.5h1v2h-1z"/>
  </pattern>
  <pattern id="k" xlink:href="#l" patternTransform="matrix(-.49429 -7.6784 9.9878 -.38 22.286 403.59)"/>
  <pattern id="l" xlink:href="#j" patternTransform="matrix(-.49429 -7.6784 9.9878 -.38 22.286 403.59)"/>
  <pattern id="m" xlink:href="#n" patternTransform="matrix(10 0 0 10 -464.18 -117.81)"/>
  <pattern id="n" xlink:href="#j" patternTransform="matrix(10 0 0 10 -464.18 -117.81)"/>
 </defs>
 <g transform="matrix(.49652 0 0 .50099 498.95 155.12)">
  <path transform="matrix(.60828 0 0 .41008 146.83 316.22)" d="m-471.22 544.8c0 57.448-109.97 104.02-245.64 104.02s-245.64-46.571-245.64-104.02 109.97-104.02 245.64-104.02 245.64 46.571 245.64 104.02z" fill="#1c241f" fill-opacity=".99608" fill-rule="evenodd" filter="url(#i)" opacity=".985"/>
  <g transform="matrix(.13119 .91877 -.92007 .21402 -206.57 316.94)" fill="#1c241f" filter="url(#h)">
   <g transform="translate(741.44 -16.799)">
    <path d="m-367.56 109.51h11.45a8.5608 8.5608 0 0 1 8.5608 8.5608v589.58a8.5608 8.5608 0 0 1 -8.5608 8.5608h-11.45a8.5608 8.5608 0 0 1 -8.5608 -8.5608v-589.58a8.5608 8.5608 0 0 1 8.5608 -8.5608" stroke="#9f8000" stroke-opacity=".82609" stroke-width="2.1818"/>
    <path d="m-367.56 104.83h11.45a8.5608 8.5608 0 0 1 8.5608 8.5608v589.58a8.5608 8.5608 0 0 1 -8.5608 8.5608h-11.45a8.5608 8.5608 0 0 1 -8.5608 -8.5608v-589.58a8.5608 8.5608 0 0 1 8.5608 -8.5608" stroke="#9f8000" stroke-opacity=".82609" stroke-width="2.1818"/>
    <path transform="translate(-83.953 -12.843)" d="m-273.21 423.05c0 119.29-2.0909 216-4.6702 216s-4.6702-96.705-4.6702-216 2.0909-216 4.6702-216 4.6702 96.705 4.6702 216z" opacity=".21659"/>
   </g>
   <g transform="translate(183.74 -46.196)">
    <path d="m231.53 118.44c0.48158 20.502-18.675 51.212-19.999 58.181-2.212 11.648 3.7438 21.673-1.664 22.739-12.022 2.3696-38.781-25.73-42.949-80.92s7.3172-98.884 41.756-95.159c26.779 2.8959 21.554 39.717 22.856 95.159z"/>
    <path d="m210.93 200c1.3509-3.3336-3.865 2.1259-7.6426 0.97582-5.0446-1.5358-11.371-8.6517-13.408-12.16-6.1223-10.544-6.404-5.8452-9.7065-17.115-2.6248 13.134 1.396 27.454 15.212 34.324 6.3939 3.1793 13.527-1.0451 15.546-6.0252z"/>
    <path d="m231.53 116.34c0.48158 20.502-18.675 51.212-19.999 58.181-2.212 11.648 3.7438 21.673-1.664 22.739-12.022 2.3696-38.781-25.73-42.949-80.92s7.3172-98.884 41.756-95.159c26.779 2.8959 21.554 39.717 22.856 95.159z" stroke="#070e23" stroke-opacity=".40217"/>
   </g>
   <g transform="matrix(1 0 0 -1 183.74 832.34)">
    <path d="m231.53 118.44c0.48158 20.502-18.675 51.212-19.999 58.181-2.212 11.648 3.7438 21.673-1.664 22.739-12.022 2.3696-38.781-25.73-42.949-80.92s7.3172-98.884 41.756-95.159c26.779 2.8959 21.554 39.717 22.856 95.159z"/>
    <path d="m210.93 200c1.3509-3.3336-3.865 2.1259-7.6426 0.97582-5.0446-1.5358-11.371-8.6517-13.408-12.16-6.1223-10.544-6.404-5.8452-9.7065-17.115-2.6248 13.134 1.396 27.454 15.212 34.324 6.3939 3.1793 13.527-1.0451 15.546-6.0252z"/>
    <path d="m231.53 116.34c0.48158 20.502-18.675 51.212-19.999 58.181-2.212 11.648 3.7438 21.673-1.664 22.739-12.022 2.3696-38.781-25.73-42.949-80.92s7.3172-98.884 41.756-95.159c26.779 2.8959 21.554 39.717 22.856 95.159z" stroke="#070e23" stroke-opacity=".40217"/>
   </g>
  </g>
  <path transform="matrix(1.2238 0 0 .63153 235.5 237.71)" d="m-471.22 544.8c0 57.448-109.97 104.02-245.64 104.02s-245.64-46.571-245.64-104.02 109.97-104.02 245.64-104.02 245.64 46.571 245.64 104.02z" fill="#1c241f" fill-opacity=".99608" fill-rule="evenodd" filter="url(#i)" opacity=".985"/>
  <g transform="matrix(.18239 .9198 -.91058 .19659 -60.944 996.73)">
   <path d="m-367.56 109.51h11.45a8.5608 8.5608 0 0 1 8.5608 8.5608v589.58a8.5608 8.5608 0 0 1 -8.5608 8.5608h-11.45a8.5608 8.5608 0 0 1 -8.5608 -8.5608v-589.58a8.5608 8.5608 0 0 1 8.5608 -8.5608" fill="#808000" stroke="#9f8000" stroke-opacity=".82609" stroke-width="2.1818"/>
   <path d="m-367.56 104.83h11.45a8.5608 8.5608 0 0 1 8.5608 8.5608v589.58a8.5608 8.5608 0 0 1 -8.5608 8.5608h-11.45a8.5608 8.5608 0 0 1 -8.5608 -8.5608v-589.58a8.5608 8.5608 0 0 1 8.5608 -8.5608" fill="url(#c)" stroke="#9f8000" stroke-opacity=".82609" stroke-width="2.1818"/>
   <path transform="translate(-83.953 -12.843)" d="m-273.21 423.05c0 119.29-2.0909 216-4.6702 216s-4.6702-96.705-4.6702-216 2.0909-216 4.6702-216 4.6702 96.705 4.6702 216z" fill="#ececec" opacity=".21659"/>
  </g>
  <g transform="matrix(.18239 .9198 -.91058 .19659 -135.89 477.97)">
   <path d="m231.53 118.44c0.48158 20.502-18.675 51.212-19.999 58.181-2.212 11.648 3.7438 21.673-1.664 22.739-12.022 2.3696-38.781-25.73-42.949-80.92s7.3172-98.884 41.756-95.159c26.779 2.8959 21.554 39.717 22.856 95.159z" fill="#ccc"/>
   <path d="m210.93 200c1.3509-3.3336-3.865 2.1259-7.6426 0.97582-5.0446-1.5358-11.371-8.6517-13.408-12.16-6.1223-10.544-6.404-5.8452-9.7065-17.115-2.6248 13.134 1.396 27.454 15.212 34.324 6.3939 3.1793 13.527-1.0451 15.546-6.0252z" fill="url(#b)"/>
   <path d="m231.53 116.34c0.48158 20.502-18.675 51.212-19.999 58.181-2.212 11.648 3.7438 21.673-1.664 22.739-12.022 2.3696-38.781-25.73-42.949-80.92s7.3172-98.884 41.756-95.159c26.779 2.8959 21.554 39.717 22.856 95.159z" fill="url(#a)" stroke="#070e23" stroke-opacity=".40217"/>
  </g>
  <g transform="matrix(.18239 .9198 .91058 -.19659 -935.87 650.68)">
   <path d="m231.53 118.44c0.48158 20.502-18.675 51.212-19.999 58.181-2.212 11.648 3.7438 21.673-1.664 22.739-12.022 2.3696-38.781-25.73-42.949-80.92s7.3172-98.884 41.756-95.159c26.779 2.8959 21.554 39.717 22.856 95.159z" fill="#ccc"/>
   <path d="m210.93 200c1.3509-3.3336-3.865 2.1259-7.6426 0.97582-5.0446-1.5358-11.371-8.6517-13.408-12.16-6.1223-10.544-6.404-5.8452-9.7065-17.115-2.6248 13.134 1.396 27.454 15.212 34.324 6.3939 3.1793 13.527-1.0451 15.546-6.0252z" fill="url(#b)"/>
   <path d="m231.53 116.34c0.48158 20.502-18.675 51.212-19.999 58.181-2.212 11.648 3.7438 21.673-1.664 22.739-12.022 2.3696-38.781-25.73-42.949-80.92s7.3172-98.884 41.756-95.159c26.779 2.8959 21.554 39.717 22.856 95.159z" fill="url(#a)" stroke="#070e23" stroke-opacity=".40217"/>
  </g>
  <g transform="translate(-105.27 -20.052)">
   <path transform="matrix(-.35636 -.10729 .20908 -.63714 -230.99 543.69)" d="m-16.661 200.98c0 118.7-26.108 214.93-58.314 214.93s-58.314-96.227-58.314-214.93 26.108-214.93 58.314-214.93 58.314 96.227 58.314 214.93z" fill="#999"/>
   <path d="m-126.39 578.4c-11.402-8.08-3.0956-67.261 19.42-135.86 22.291-67.911 50.466-120.54 64.746-121.83l-210.1-69.552c-135.51-40.139-215.46 219-76.911 259.78l202.84 67.461z" fill="#217867" opacity=".70507"/>
   <path d="m-205.91 560.78c-9.421-7.6938 1.4976-69.769 25.371-142.52 23.636-72.028 51.44-128.53 63.95-130.76l-178.54-59.25c-115.45-33.306-201.2 241.23-83.137 275.01l172.36 57.528z" fill="#217867" opacity=".985"/>
   <path d="m-205.91 560.78c-9.421-7.6938 1.4976-69.769 25.371-142.52 23.636-72.028 51.44-128.53 63.95-130.76l-178.54-59.25c-115.45-33.306-201.2 241.23-83.137 275.01l172.36 57.528z" fill="url(#z)" opacity=".985"/>
   <path d="m-205.91 560.78c-9.421-7.6938 1.4976-69.769 25.371-142.52 23.636-72.028 51.44-128.53 63.95-130.76l-178.54-59.25c-115.45-33.306-201.2 241.23-83.137 275.01l172.36 57.528z" fill="url(#y)" opacity=".985"/>
   <path d="m-205.91 560.78c-9.421-7.6938 1.4976-69.769 25.371-142.52 23.636-72.028 51.44-128.53 63.95-130.76l-178.54-59.25c-115.45-33.306-201.2 241.23-83.137 275.01l172.36 57.528z" fill="url(#x)" opacity=".985"/>
   <path transform="matrix(-.41859 -.12823 .19718 -.60073 -156.51 560.17)" d="m-16.661 200.98c0 118.7-26.108 214.93-58.314 214.93s-58.314-96.227-58.314-214.93 26.108-214.93 58.314-214.93 58.314 96.227 58.314 214.93z" fill="#999"/>
   <path transform="matrix(-.41859 -.12823 .19718 -.60073 -156.51 560.17)" d="m-16.661 200.98c0 118.7-26.108 214.93-58.314 214.93s-58.314-96.227-58.314-214.93 26.108-214.93 58.314-214.93 58.314 96.227 58.314 214.93z" fill="url(#w)"/>
   <g transform="matrix(-.77513 -.25406 .27195 -.82972 -313 720.76)">
    <path d="m-53.24 530.38c25.001-106.77 22.19-190.97-5.5705-306.91-30.462-1.2194-95.675-0.93345-95.675 0.52763 0 0 58.978 114.38 0.74288 304-11.703 4.597 73.87 3.7131 100.5 2.3901z" fill="url(#k)" opacity=".605"/>
    <path d="m-53.24 530.38c25.001-106.77 22.19-190.97-5.5705-306.91-30.462-1.2194-95.675-0.93345-95.675 0.52763 0 0 58.978 114.38 0.74288 304-11.703 4.597 73.87 3.7131 100.5 2.3901z" fill="url(#v)" opacity=".605"/>
    <path d="m-53.24 530.38c25.001-106.77 22.19-190.97-5.5705-306.91-30.462-1.2194-95.675-0.93345-95.675 0.52763 0 0 58.978 114.38 0.74288 304-11.703 4.597 73.87 3.7131 100.5 2.3901z" fill="url(#u)" opacity=".605"/>
   </g>
   <path transform="matrix(-.41859 -.12823 .19718 -.60073 -156.51 560.17)" d="m-16.661 200.98c0 118.7-26.108 214.93-58.314 214.93s-58.314-96.227-58.314-214.93 26.108-214.93 58.314-214.93 58.314 96.227 58.314 214.93z" fill="url(#t)"/>
  </g>
  <path transform="matrix(.86909 0 0 .95535 -509.56 -143.48)" d="m270.88 733.19c0 56.826-129.27 102.89-288.73 102.89s-288.73-46.066-288.73-102.89 129.27-102.89 288.73-102.89 288.73 46.066 288.73 102.89z" fill="#054"/>
  <path transform="matrix(.86909 0 0 .95535 -509.56 -143.38)" d="m270.88 733.19c0 56.826-129.27 102.89-288.73 102.89s-288.73-46.066-288.73-102.89 129.27-102.89 288.73-102.89 288.73 46.066 288.73 102.89z" fill="url(#s)"/>
  <path d="m-724.09-91.629c138.24 35.973 269.48 33.151 398.03 0 3.7366-0.96363 7.2039 2.8818 7.2039 6.4614v616.28c0 3.5796-3.9162 4.4322-7.2039 6.4614-128.26 79.168-260.05 95.123-398.03 0-3.1643-2.1814-7.2039-2.8818-7.2039-6.4614v-616.28c0-3.5796 3.5111-7.4224 7.2039-6.4614z" fill="#008066"/>
  <path transform="matrix(.86909 0 0 .95535 -509.56 -143.38)" d="m270.88 733.19c0 56.826-129.27 102.89-288.73 102.89s-288.73-46.066-288.73-102.89 129.27-102.89 288.73-102.89 288.73 46.066 288.73 102.89z" fill="url(#r)"/>
  <g transform="translate(-310.49 -290)">
   <path d="m-367.56 109.51h11.45a8.5608 8.5608 0 0 1 8.5608 8.5608v589.58a8.5608 8.5608 0 0 1 -8.5608 8.5608h-11.45a8.5608 8.5608 0 0 1 -8.5608 -8.5608v-589.58a8.5608 8.5608 0 0 1 8.5608 -8.5608" fill="#808000" stroke="#9f8000" stroke-opacity=".82609" stroke-width="2.1818"/>
   <path d="m-367.56 104.83h11.45a8.5608 8.5608 0 0 1 8.5608 8.5608v589.58a8.5608 8.5608 0 0 1 -8.5608 8.5608h-11.45a8.5608 8.5608 0 0 1 -8.5608 -8.5608v-589.58a8.5608 8.5608 0 0 1 8.5608 -8.5608" fill="url(#c)" stroke="#9f8000" stroke-opacity=".82609" stroke-width="2.1818"/>
   <path transform="translate(-83.953 -12.843)" d="m-273.21 423.05c0 119.29-2.0909 216-4.6702 216s-4.6702-96.705-4.6702-216 2.0909-216 4.6702-216 4.6702 96.705 4.6702 216z" fill="#ececec" opacity=".21659"/>
  </g>
  <g transform="translate(-868.2 -319.4)">
   <path d="m231.53 118.44c0.48158 20.502-18.675 51.212-19.999 58.181-2.212 11.648 3.7438 21.673-1.664 22.739-12.022 2.3696-38.781-25.73-42.949-80.92s7.3172-98.884 41.756-95.159c26.779 2.8959 21.554 39.717 22.856 95.159z" fill="#ccc"/>
   <path d="m210.93 200c1.3509-3.3336-3.865 2.1259-7.6426 0.97582-5.0446-1.5358-11.371-8.6517-13.408-12.16-6.1223-10.544-6.404-5.8452-9.7065-17.115-2.6248 13.134 1.396 27.454 15.212 34.324 6.3939 3.1793 13.527-1.0451 15.546-6.0252z" fill="url(#b)"/>
   <path d="m231.53 116.34c0.48158 20.502-18.675 51.212-19.999 58.181-2.212 11.648 3.7438 21.673-1.664 22.739-12.022 2.3696-38.781-25.73-42.949-80.92s7.3172-98.884 41.756-95.159c26.779 2.8959 21.554 39.717 22.856 95.159z" fill="url(#a)" stroke="#070e23" stroke-opacity=".40217"/>
  </g>
  <g transform="matrix(1 0 0 -1 -868.2 559.14)">
   <path d="m231.53 118.44c0.48158 20.502-18.675 51.212-19.999 58.181-2.212 11.648 3.7438 21.673-1.664 22.739-12.022 2.3696-38.781-25.73-42.949-80.92s7.3172-98.884 41.756-95.159c26.779 2.8959 21.554 39.717 22.856 95.159z" fill="#ccc"/>
   <path d="m210.93 200c1.3509-3.3336-3.865 2.1259-7.6426 0.97582-5.0446-1.5358-11.371-8.6517-13.408-12.16-6.1223-10.544-6.404-5.8452-9.7065-17.115-2.6248 13.134 1.396 27.454 15.212 34.324 6.3939 3.1793 13.527-1.0451 15.546-6.0252z" fill="url(#b)"/>
   <path d="m231.53 116.34c0.48158 20.502-18.675 51.212-19.999 58.181-2.212 11.648 3.7438 21.673-1.664 22.739-12.022 2.3696-38.781-25.73-42.949-80.92s7.3172-98.884 41.756-95.159c26.779 2.8959 21.554 39.717 22.856 95.159z" fill="url(#a)" stroke="#070e23" stroke-opacity=".40217"/>
  </g>
  <g transform="translate(-9.9169 -279.3)">
   <path d="m-367.56 109.51h11.45a8.5608 8.5608 0 0 1 8.5608 8.5608v589.58a8.5608 8.5608 0 0 1 -8.5608 8.5608h-11.45a8.5608 8.5608 0 0 1 -8.5608 -8.5608v-589.58a8.5608 8.5608 0 0 1 8.5608 -8.5608" fill="#808000" stroke="#9f8000" stroke-opacity=".82609" stroke-width="2.1818"/>
   <path d="m-367.56 104.83h11.45a8.5608 8.5608 0 0 1 8.5608 8.5608v589.58a8.5608 8.5608 0 0 1 -8.5608 8.5608h-11.45a8.5608 8.5608 0 0 1 -8.5608 -8.5608v-589.58a8.5608 8.5608 0 0 1 8.5608 -8.5608" fill="url(#c)" stroke="#9f8000" stroke-opacity=".82609" stroke-width="2.1818"/>
   <path transform="translate(-83.953 -12.843)" d="m-273.21 423.05c0 119.29-2.0909 216-4.6702 216s-4.6702-96.705-4.6702-216 2.0909-216 4.6702-216 4.6702 96.705 4.6702 216z" fill="#ececec" opacity=".21659"/>
  </g>
  <g transform="translate(-567.62 -308.7)">
   <path d="m231.53 118.44c0.48158 20.502-18.675 51.212-19.999 58.181-2.212 11.648 3.7438 21.673-1.664 22.739-12.022 2.3696-38.781-25.73-42.949-80.92s7.3172-98.884 41.756-95.159c26.779 2.8959 21.554 39.717 22.856 95.159z" fill="#ccc"/>
   <path d="m210.93 200c1.3509-3.3336-3.865 2.1259-7.6426 0.97582-5.0446-1.5358-11.371-8.6517-13.408-12.16-6.1223-10.544-6.404-5.8452-9.7065-17.115-2.6248 13.134 1.396 27.454 15.212 34.324 6.3939 3.1793 13.527-1.0451 15.546-6.0252z" fill="url(#b)"/>
   <path d="m231.53 116.34c0.48158 20.502-18.675 51.212-19.999 58.181-2.212 11.648 3.7438 21.673-1.664 22.739-12.022 2.3696-38.781-25.73-42.949-80.92s7.3172-98.884 41.756-95.159c26.779 2.8959 21.554 39.717 22.856 95.159z" fill="url(#a)" stroke="#070e23" stroke-opacity=".40217"/>
  </g>
  <g transform="matrix(1 0 0 -1 -567.62 569.84)">
   <path d="m231.53 118.44c0.48158 20.502-18.675 51.212-19.999 58.181-2.212 11.648 3.7438 21.673-1.664 22.739-12.022 2.3696-38.781-25.73-42.949-80.92s7.3172-98.884 41.756-95.159c26.779 2.8959 21.554 39.717 22.856 95.159z" fill="#ccc"/>
   <path d="m210.93 200c1.3509-3.3336-3.865 2.1259-7.6426 0.97582-5.0446-1.5358-11.371-8.6517-13.408-12.16-6.1223-10.544-6.404-5.8452-9.7065-17.115-2.6248 13.134 1.396 27.454 15.212 34.324 6.3939 3.1793 13.527-1.0451 15.546-6.0252z" fill="url(#b)"/>
   <path d="m231.53 116.34c0.48158 20.502-18.675 51.212-19.999 58.181-2.212 11.648 3.7438 21.673-1.664 22.739-12.022 2.3696-38.781-25.73-42.949-80.92s7.3172-98.884 41.756-95.159c26.779 2.8959 21.554 39.717 22.856 95.159z" fill="url(#a)" stroke="#070e23" stroke-opacity=".40217"/>
  </g>
  <g transform="translate(-241.4 -300.7)">
   <path d="m-367.56 109.51h11.45a8.5608 8.5608 0 0 1 8.5608 8.5608v589.58a8.5608 8.5608 0 0 1 -8.5608 8.5608h-11.45a8.5608 8.5608 0 0 1 -8.5608 -8.5608v-589.58a8.5608 8.5608 0 0 1 8.5608 -8.5608" fill="#808000" stroke="#9f8000" stroke-opacity=".82609" stroke-width="2.1818"/>
   <path d="m-367.56 104.83h11.45a8.5608 8.5608 0 0 1 8.5608 8.5608v589.58a8.5608 8.5608 0 0 1 -8.5608 8.5608h-11.45a8.5608 8.5608 0 0 1 -8.5608 -8.5608v-589.58a8.5608 8.5608 0 0 1 8.5608 -8.5608" fill="url(#c)" stroke="#9f8000" stroke-opacity=".82609" stroke-width="2.1818"/>
   <path transform="translate(-83.953 -12.843)" d="m-273.21 423.05c0 119.29-2.0909 216-4.6702 216s-4.6702-96.705-4.6702-216 2.0909-216 4.6702-216 4.6702 96.705 4.6702 216z" fill="#ececec" opacity=".21659"/>
  </g>
  <g transform="translate(-799.1 -330.09)">
   <path d="m231.53 118.44c0.48158 20.502-18.675 51.212-19.999 58.181-2.212 11.648 3.7438 21.673-1.664 22.739-12.022 2.3696-38.781-25.73-42.949-80.92s7.3172-98.884 41.756-95.159c26.779 2.8959 21.554 39.717 22.856 95.159z" fill="#ccc"/>
   <path d="m210.93 200c1.3509-3.3336-3.865 2.1259-7.6426 0.97582-5.0446-1.5358-11.371-8.6517-13.408-12.16-6.1223-10.544-6.404-5.8452-9.7065-17.115-2.6248 13.134 1.396 27.454 15.212 34.324 6.3939 3.1793 13.527-1.0451 15.546-6.0252z" fill="url(#b)"/>
   <path d="m231.53 116.34c0.48158 20.502-18.675 51.212-19.999 58.181-2.212 11.648 3.7438 21.673-1.664 22.739-12.022 2.3696-38.781-25.73-42.949-80.92s7.3172-98.884 41.756-95.159c26.779 2.8959 21.554 39.717 22.856 95.159z" fill="url(#a)" stroke="#070e23" stroke-opacity=".40217"/>
  </g>
  <g transform="matrix(1 0 0 -1 -799.1 548.44)">
   <path d="m231.53 118.44c0.48158 20.502-18.675 51.212-19.999 58.181-2.212 11.648 3.7438 21.673-1.664 22.739-12.022 2.3696-38.781-25.73-42.949-80.92s7.3172-98.884 41.756-95.159c26.779 2.8959 21.554 39.717 22.856 95.159z" fill="#ccc"/>
   <path d="m210.93 200c1.3509-3.3336-3.865 2.1259-7.6426 0.97582-5.0446-1.5358-11.371-8.6517-13.408-12.16-6.1223-10.544-6.404-5.8452-9.7065-17.115-2.6248 13.134 1.396 27.454 15.212 34.324 6.3939 3.1793 13.527-1.0451 15.546-6.0252z" fill="url(#b)"/>
   <path d="m231.53 116.34c0.48158 20.502-18.675 51.212-19.999 58.181-2.212 11.648 3.7438 21.673-1.664 22.739-12.022 2.3696-38.781-25.73-42.949-80.92s7.3172-98.884 41.756-95.159c26.779 2.8959 21.554 39.717 22.856 95.159z" fill="url(#a)" stroke="#070e23" stroke-opacity=".40217"/>
  </g>
  <g transform="translate(-294.09 -275.3)">
   <path d="m-367.56 109.51h11.45a8.5608 8.5608 0 0 1 8.5608 8.5608v589.58a8.5608 8.5608 0 0 1 -8.5608 8.5608h-11.45a8.5608 8.5608 0 0 1 -8.5608 -8.5608v-589.58a8.5608 8.5608 0 0 1 8.5608 -8.5608" fill="#808000" stroke="#9f8000" stroke-opacity=".82609" stroke-width="2.1818"/>
   <path d="m-367.56 104.83h11.45a8.5608 8.5608 0 0 1 8.5608 8.5608v589.58a8.5608 8.5608 0 0 1 -8.5608 8.5608h-11.45a8.5608 8.5608 0 0 1 -8.5608 -8.5608v-589.58a8.5608 8.5608 0 0 1 8.5608 -8.5608" fill="url(#c)" stroke="#9f8000" stroke-opacity=".82609" stroke-width="2.1818"/>
   <path transform="translate(-83.953 -12.843)" d="m-273.21 423.05c0 119.29-2.0909 216-4.6702 216s-4.6702-96.705-4.6702-216 2.0909-216 4.6702-216 4.6702 96.705 4.6702 216z" fill="#ececec" opacity=".21659"/>
  </g>
  <g transform="translate(-851.8 -304.7)">
   <path d="m231.53 118.44c0.48158 20.502-18.675 51.212-19.999 58.181-2.212 11.648 3.7438 21.673-1.664 22.739-12.022 2.3696-38.781-25.73-42.949-80.92s7.3172-98.884 41.756-95.159c26.779 2.8959 21.554 39.717 22.856 95.159z" fill="#ccc"/>
   <path d="m210.93 200c1.3509-3.3336-3.865 2.1259-7.6426 0.97582-5.0446-1.5358-11.371-8.6517-13.408-12.16-6.1223-10.544-6.404-5.8452-9.7065-17.115-2.6248 13.134 1.396 27.454 15.212 34.324 6.3939 3.1793 13.527-1.0451 15.546-6.0252z" fill="url(#b)"/>
   <path d="m231.53 116.34c0.48158 20.502-18.675 51.212-19.999 58.181-2.212 11.648 3.7438 21.673-1.664 22.739-12.022 2.3696-38.781-25.73-42.949-80.92s7.3172-98.884 41.756-95.159c26.779 2.8959 21.554 39.717 22.856 95.159z" fill="url(#a)" stroke="#070e23" stroke-opacity=".40217"/>
  </g>
  <g transform="matrix(1 0 0 -1 -851.8 573.84)">
   <path d="m231.53 118.44c0.48158 20.502-18.675 51.212-19.999 58.181-2.212 11.648 3.7438 21.673-1.664 22.739-12.022 2.3696-38.781-25.73-42.949-80.92s7.3172-98.884 41.756-95.159c26.779 2.8959 21.554 39.717 22.856 95.159z" fill="#ccc"/>
   <path d="m210.93 200c1.3509-3.3336-3.865 2.1259-7.6426 0.97582-5.0446-1.5358-11.371-8.6517-13.408-12.16-6.1223-10.544-6.404-5.8452-9.7065-17.115-2.6248 13.134 1.396 27.454 15.212 34.324 6.3939 3.1793 13.527-1.0451 15.546-6.0252z" fill="url(#b)"/>
   <path d="m231.53 116.34c0.48158 20.502-18.675 51.212-19.999 58.181-2.212 11.648 3.7438 21.673-1.664 22.739-12.022 2.3696-38.781-25.73-42.949-80.92s7.3172-98.884 41.756-95.159c26.779 2.8959 21.554 39.717 22.856 95.159z" fill="url(#a)" stroke="#070e23" stroke-opacity=".40217"/>
  </g>
  <g transform="translate(-170 -300.5)">
   <path d="m-367.56 109.51h11.45a8.5608 8.5608 0 0 1 8.5608 8.5608v589.58a8.5608 8.5608 0 0 1 -8.5608 8.5608h-11.45a8.5608 8.5608 0 0 1 -8.5608 -8.5608v-589.58a8.5608 8.5608 0 0 1 8.5608 -8.5608" fill="#808000" stroke="#9f8000" stroke-opacity=".82609" stroke-width="2.1818"/>
   <path d="m-367.56 104.83h11.45a8.5608 8.5608 0 0 1 8.5608 8.5608v589.58a8.5608 8.5608 0 0 1 -8.5608 8.5608h-11.45a8.5608 8.5608 0 0 1 -8.5608 -8.5608v-589.58a8.5608 8.5608 0 0 1 8.5608 -8.5608" fill="url(#c)" stroke="#9f8000" stroke-opacity=".82609" stroke-width="2.1818"/>
   <path transform="translate(-83.953 -12.843)" d="m-273.21 423.05c0 119.29-2.0909 216-4.6702 216s-4.6702-96.705-4.6702-216 2.0909-216 4.6702-216 4.6702 96.705 4.6702 216z" fill="#ececec" opacity=".21659"/>
  </g>
  <g transform="translate(-727.71 -329.89)">
   <path d="m231.53 118.44c0.48158 20.502-18.675 51.212-19.999 58.181-2.212 11.648 3.7438 21.673-1.664 22.739-12.022 2.3696-38.781-25.73-42.949-80.92s7.3172-98.884 41.756-95.159c26.779 2.8959 21.554 39.717 22.856 95.159z" fill="#ccc"/>
   <path d="m210.93 200c1.3509-3.3336-3.865 2.1259-7.6426 0.97582-5.0446-1.5358-11.371-8.6517-13.408-12.16-6.1223-10.544-6.404-5.8452-9.7065-17.115-2.6248 13.134 1.396 27.454 15.212 34.324 6.3939 3.1793 13.527-1.0451 15.546-6.0252z" fill="url(#b)"/>
   <path d="m231.53 116.34c0.48158 20.502-18.675 51.212-19.999 58.181-2.212 11.648 3.7438 21.673-1.664 22.739-12.022 2.3696-38.781-25.73-42.949-80.92s7.3172-98.884 41.756-95.159c26.779 2.8959 21.554 39.717 22.856 95.159z" fill="url(#a)" stroke="#070e23" stroke-opacity=".40217"/>
  </g>
  <g transform="matrix(1 0 0 -1 -727.71 548.64)">
   <path d="m231.53 118.44c0.48158 20.502-18.675 51.212-19.999 58.181-2.212 11.648 3.7438 21.673-1.664 22.739-12.022 2.3696-38.781-25.73-42.949-80.92s7.3172-98.884 41.756-95.159c26.779 2.8959 21.554 39.717 22.856 95.159z" fill="#ccc"/>
   <path d="m210.93 200c1.3509-3.3336-3.865 2.1259-7.6426 0.97582-5.0446-1.5358-11.371-8.6517-13.408-12.16-6.1223-10.544-6.404-5.8452-9.7065-17.115-2.6248 13.134 1.396 27.454 15.212 34.324 6.3939 3.1793 13.527-1.0451 15.546-6.0252z" fill="url(#b)"/>
   <path d="m231.53 116.34c0.48158 20.502-18.675 51.212-19.999 58.181-2.212 11.648 3.7438 21.673-1.664 22.739-12.022 2.3696-38.781-25.73-42.949-80.92s7.3172-98.884 41.756-95.159c26.779 2.8959 21.554 39.717 22.856 95.159z" fill="url(#a)" stroke="#070e23" stroke-opacity=".40217"/>
  </g>
  <g transform="translate(-107.01 -298.4)">
   <path d="m-367.56 109.51h11.45a8.5608 8.5608 0 0 1 8.5608 8.5608v589.58a8.5608 8.5608 0 0 1 -8.5608 8.5608h-11.45a8.5608 8.5608 0 0 1 -8.5608 -8.5608v-589.58a8.5608 8.5608 0 0 1 8.5608 -8.5608" fill="#808000" stroke="#9f8000" stroke-opacity=".82609" stroke-width="2.1818"/>
   <path d="m-367.56 104.83h11.45a8.5608 8.5608 0 0 1 8.5608 8.5608v589.58a8.5608 8.5608 0 0 1 -8.5608 8.5608h-11.45a8.5608 8.5608 0 0 1 -8.5608 -8.5608v-589.58a8.5608 8.5608 0 0 1 8.5608 -8.5608" fill="url(#c)" stroke="#9f8000" stroke-opacity=".82609" stroke-width="2.1818"/>
   <path transform="translate(-83.953 -12.843)" d="m-273.21 423.05c0 119.29-2.0909 216-4.6702 216s-4.6702-96.705-4.6702-216 2.0909-216 4.6702-216 4.6702 96.705 4.6702 216z" fill="#ececec" opacity=".21659"/>
  </g>
  <g transform="translate(-664.71 -327.79)">
   <path d="m231.53 118.44c0.48158 20.502-18.675 51.212-19.999 58.181-2.212 11.648 3.7438 21.673-1.664 22.739-12.022 2.3696-38.781-25.73-42.949-80.92s7.3172-98.884 41.756-95.159c26.779 2.8959 21.554 39.717 22.856 95.159z" fill="#ccc"/>
   <path d="m210.93 200c1.3509-3.3336-3.865 2.1259-7.6426 0.97582-5.0446-1.5358-11.371-8.6517-13.408-12.16-6.1223-10.544-6.404-5.8452-9.7065-17.115-2.6248 13.134 1.396 27.454 15.212 34.324 6.3939 3.1793 13.527-1.0451 15.546-6.0252z" fill="url(#b)"/>
   <path d="m231.53 116.34c0.48158 20.502-18.675 51.212-19.999 58.181-2.212 11.648 3.7438 21.673-1.664 22.739-12.022 2.3696-38.781-25.73-42.949-80.92s7.3172-98.884 41.756-95.159c26.779 2.8959 21.554 39.717 22.856 95.159z" fill="url(#a)" stroke="#070e23" stroke-opacity=".40217"/>
  </g>
  <g transform="matrix(1 0 0 -1 -664.71 550.74)">
   <path d="m231.53 118.44c0.48158 20.502-18.675 51.212-19.999 58.181-2.212 11.648 3.7438 21.673-1.664 22.739-12.022 2.3696-38.781-25.73-42.949-80.92s7.3172-98.884 41.756-95.159c26.779 2.8959 21.554 39.717 22.856 95.159z" fill="#ccc"/>
   <path d="m210.93 200c1.3509-3.3336-3.865 2.1259-7.6426 0.97582-5.0446-1.5358-11.371-8.6517-13.408-12.16-6.1223-10.544-6.404-5.8452-9.7065-17.115-2.6248 13.134 1.396 27.454 15.212 34.324 6.3939 3.1793 13.527-1.0451 15.546-6.0252z" fill="url(#b)"/>
   <path d="m231.53 116.34c0.48158 20.502-18.675 51.212-19.999 58.181-2.212 11.648 3.7438 21.673-1.664 22.739-12.022 2.3696-38.781-25.73-42.949-80.92s7.3172-98.884 41.756-95.159c26.779 2.8959 21.554 39.717 22.856 95.159z" fill="url(#a)" stroke="#070e23" stroke-opacity=".40217"/>
  </g>
  <g transform="translate(-73.411 -283.7)">
   <path d="m-367.56 109.51h11.45a8.5608 8.5608 0 0 1 8.5608 8.5608v589.58a8.5608 8.5608 0 0 1 -8.5608 8.5608h-11.45a8.5608 8.5608 0 0 1 -8.5608 -8.5608v-589.58a8.5608 8.5608 0 0 1 8.5608 -8.5608" fill="#808000" stroke="#9f8000" stroke-opacity=".82609" stroke-width="2.1818"/>
   <path d="m-367.56 104.83h11.45a8.5608 8.5608 0 0 1 8.5608 8.5608v589.58a8.5608 8.5608 0 0 1 -8.5608 8.5608h-11.45a8.5608 8.5608 0 0 1 -8.5608 -8.5608v-589.58a8.5608 8.5608 0 0 1 8.5608 -8.5608" fill="url(#c)" stroke="#9f8000" stroke-opacity=".82609" stroke-width="2.1818"/>
   <path transform="translate(-83.953 -12.843)" d="m-273.21 423.05c0 119.29-2.0909 216-4.6702 216s-4.6702-96.705-4.6702-216 2.0909-216 4.6702-216 4.6702 96.705 4.6702 216z" fill="#ececec" opacity=".21659"/>
  </g>
  <g transform="translate(-631.12 -313.1)">
   <path d="m231.53 118.44c0.48158 20.502-18.675 51.212-19.999 58.181-2.212 11.648 3.7438 21.673-1.664 22.739-12.022 2.3696-38.781-25.73-42.949-80.92s7.3172-98.884 41.756-95.159c26.779 2.8959 21.554 39.717 22.856 95.159z" fill="#ccc"/>
   <path d="m210.93 200c1.3509-3.3336-3.865 2.1259-7.6426 0.97582-5.0446-1.5358-11.371-8.6517-13.408-12.16-6.1223-10.544-6.404-5.8452-9.7065-17.115-2.6248 13.134 1.396 27.454 15.212 34.324 6.3939 3.1793 13.527-1.0451 15.546-6.0252z" fill="url(#b)"/>
   <path d="m231.53 116.34c0.48158 20.502-18.675 51.212-19.999 58.181-2.212 11.648 3.7438 21.673-1.664 22.739-12.022 2.3696-38.781-25.73-42.949-80.92s7.3172-98.884 41.756-95.159c26.779 2.8959 21.554 39.717 22.856 95.159z" fill="url(#a)" stroke="#070e23" stroke-opacity=".40217"/>
  </g>
  <g transform="matrix(1 0 0 -1 -631.12 565.44)">
   <path d="m231.53 118.44c0.48158 20.502-18.675 51.212-19.999 58.181-2.212 11.648 3.7438 21.673-1.664 22.739-12.022 2.3696-38.781-25.73-42.949-80.92s7.3172-98.884 41.756-95.159c26.779 2.8959 21.554 39.717 22.856 95.159z" fill="#ccc"/>
   <path d="m210.93 200c1.3509-3.3336-3.865 2.1259-7.6426 0.97582-5.0446-1.5358-11.371-8.6517-13.408-12.16-6.1223-10.544-6.404-5.8452-9.7065-17.115-2.6248 13.134 1.396 27.454 15.212 34.324 6.3939 3.1793 13.527-1.0451 15.546-6.0252z" fill="url(#b)"/>
   <path d="m231.53 116.34c0.48158 20.502-18.675 51.212-19.999 58.181-2.212 11.648 3.7438 21.673-1.664 22.739-12.022 2.3696-38.781-25.73-42.949-80.92s7.3172-98.884 41.756-95.159c26.779 2.8959 21.554 39.717 22.856 95.159z" fill="url(#a)" stroke="#070e23" stroke-opacity=".40217"/>
  </g>
  <g transform="translate(-264.5 -275.3)">
   <path d="m-367.56 109.51h11.45a8.5608 8.5608 0 0 1 8.5608 8.5608v589.58a8.5608 8.5608 0 0 1 -8.5608 8.5608h-11.45a8.5608 8.5608 0 0 1 -8.5608 -8.5608v-589.58a8.5608 8.5608 0 0 1 8.5608 -8.5608" fill="#808000" stroke="#9f8000" stroke-opacity=".82609" stroke-width="2.1818"/>
   <path d="m-367.56 104.83h11.45a8.5608 8.5608 0 0 1 8.5608 8.5608v589.58a8.5608 8.5608 0 0 1 -8.5608 8.5608h-11.45a8.5608 8.5608 0 0 1 -8.5608 -8.5608v-589.58a8.5608 8.5608 0 0 1 8.5608 -8.5608" fill="url(#c)" stroke="#9f8000" stroke-opacity=".82609" stroke-width="2.1818"/>
   <path transform="translate(-83.953 -12.843)" d="m-273.21 423.05c0 119.29-2.0909 216-4.6702 216s-4.6702-96.705-4.6702-216 2.0909-216 4.6702-216 4.6702 96.705 4.6702 216z" fill="#ececec" opacity=".21659"/>
  </g>
  <g transform="translate(-822.2 -304.7)">
   <path d="m231.53 118.44c0.48158 20.502-18.675 51.212-19.999 58.181-2.212 11.648 3.7438 21.673-1.664 22.739-12.022 2.3696-38.781-25.73-42.949-80.92s7.3172-98.884 41.756-95.159c26.779 2.8959 21.554 39.717 22.856 95.159z" fill="#ccc"/>
   <path d="m210.93 200c1.3509-3.3336-3.865 2.1259-7.6426 0.97582-5.0446-1.5358-11.371-8.6517-13.408-12.16-6.1223-10.544-6.404-5.8452-9.7065-17.115-2.6248 13.134 1.396 27.454 15.212 34.324 6.3939 3.1793 13.527-1.0451 15.546-6.0252z" fill="url(#b)"/>
   <path d="m231.53 116.34c0.48158 20.502-18.675 51.212-19.999 58.181-2.212 11.648 3.7438 21.673-1.664 22.739-12.022 2.3696-38.781-25.73-42.949-80.92s7.3172-98.884 41.756-95.159c26.779 2.8959 21.554 39.717 22.856 95.159z" fill="url(#a)" stroke="#070e23" stroke-opacity=".40217"/>
  </g>
  <g transform="matrix(1 0 0 -1 -822.2 573.84)">
   <path d="m231.53 118.44c0.48158 20.502-18.675 51.212-19.999 58.181-2.212 11.648 3.7438 21.673-1.664 22.739-12.022 2.3696-38.781-25.73-42.949-80.92s7.3172-98.884 41.756-95.159c26.779 2.8959 21.554 39.717 22.856 95.159z" fill="#ccc"/>
   <path d="m210.93 200c1.3509-3.3336-3.865 2.1259-7.6426 0.97582-5.0446-1.5358-11.371-8.6517-13.408-12.16-6.1223-10.544-6.404-5.8452-9.7065-17.115-2.6248 13.134 1.396 27.454 15.212 34.324 6.3939 3.1793 13.527-1.0451 15.546-6.0252z" fill="url(#b)"/>
   <path d="m231.53 116.34c0.48158 20.502-18.675 51.212-19.999 58.181-2.212 11.648 3.7438 21.673-1.664 22.739-12.022 2.3696-38.781-25.73-42.949-80.92s7.3172-98.884 41.756-95.159c26.779 2.8959 21.554 39.717 22.856 95.159z" fill="url(#a)" stroke="#070e23" stroke-opacity=".40217"/>
  </g>
  <g transform="translate(-138.61 -279.5)">
   <path d="m-367.56 109.51h11.45a8.5608 8.5608 0 0 1 8.5608 8.5608v589.58a8.5608 8.5608 0 0 1 -8.5608 8.5608h-11.45a8.5608 8.5608 0 0 1 -8.5608 -8.5608v-589.58a8.5608 8.5608 0 0 1 8.5608 -8.5608" fill="#808000" stroke="#9f8000" stroke-opacity=".82609" stroke-width="2.1818"/>
   <path d="m-367.56 104.83h11.45a8.5608 8.5608 0 0 1 8.5608 8.5608v589.58a8.5608 8.5608 0 0 1 -8.5608 8.5608h-11.45a8.5608 8.5608 0 0 1 -8.5608 -8.5608v-589.58a8.5608 8.5608 0 0 1 8.5608 -8.5608" fill="url(#c)" stroke="#9f8000" stroke-opacity=".82609" stroke-width="2.1818"/>
   <path transform="translate(-83.953 -12.843)" d="m-273.21 423.05c0 119.29-2.0909 216-4.6702 216s-4.6702-96.705-4.6702-216 2.0909-216 4.6702-216 4.6702 96.705 4.6702 216z" fill="#ececec" opacity=".21659"/>
  </g>
  <g transform="translate(-696.31 -308.9)">
   <path d="m231.53 118.44c0.48158 20.502-18.675 51.212-19.999 58.181-2.212 11.648 3.7438 21.673-1.664 22.739-12.022 2.3696-38.781-25.73-42.949-80.92s7.3172-98.884 41.756-95.159c26.779 2.8959 21.554 39.717 22.856 95.159z" fill="#ccc"/>
   <path d="m210.93 200c1.3509-3.3336-3.865 2.1259-7.6426 0.97582-5.0446-1.5358-11.371-8.6517-13.408-12.16-6.1223-10.544-6.404-5.8452-9.7065-17.115-2.6248 13.134 1.396 27.454 15.212 34.324 6.3939 3.1793 13.527-1.0451 15.546-6.0252z" fill="url(#b)"/>
   <path d="m231.53 116.34c0.48158 20.502-18.675 51.212-19.999 58.181-2.212 11.648 3.7438 21.673-1.664 22.739-12.022 2.3696-38.781-25.73-42.949-80.92s7.3172-98.884 41.756-95.159c26.779 2.8959 21.554 39.717 22.856 95.159z" fill="url(#a)" stroke="#070e23" stroke-opacity=".40217"/>
  </g>
  <g transform="matrix(1 0 0 -1 -696.31 569.64)">
   <path d="m231.53 118.44c0.48158 20.502-18.675 51.212-19.999 58.181-2.212 11.648 3.7438 21.673-1.664 22.739-12.022 2.3696-38.781-25.73-42.949-80.92s7.3172-98.884 41.756-95.159c26.779 2.8959 21.554 39.717 22.856 95.159z" fill="#ccc"/>
   <path d="m210.93 200c1.3509-3.3336-3.865 2.1259-7.6426 0.97582-5.0446-1.5358-11.371-8.6517-13.408-12.16-6.1223-10.544-6.404-5.8452-9.7065-17.115-2.6248 13.134 1.396 27.454 15.212 34.324 6.3939 3.1793 13.527-1.0451 15.546-6.0252z" fill="url(#b)"/>
   <path d="m231.53 116.34c0.48158 20.502-18.675 51.212-19.999 58.181-2.212 11.648 3.7438 21.673-1.664 22.739-12.022 2.3696-38.781-25.73-42.949-80.92s7.3172-98.884 41.756-95.159c26.779 2.8959 21.554 39.717 22.856 95.159z" fill="url(#a)" stroke="#070e23" stroke-opacity=".40217"/>
  </g>
  <g transform="translate(-205.7 -281.6)">
   <path d="m-367.56 109.51h11.45a8.5608 8.5608 0 0 1 8.5608 8.5608v589.58a8.5608 8.5608 0 0 1 -8.5608 8.5608h-11.45a8.5608 8.5608 0 0 1 -8.5608 -8.5608v-589.58a8.5608 8.5608 0 0 1 8.5608 -8.5608" fill="#808000" stroke="#9f8000" stroke-opacity=".82609" stroke-width="2.1818"/>
   <path d="m-367.56 104.83h11.45a8.5608 8.5608 0 0 1 8.5608 8.5608v589.58a8.5608 8.5608 0 0 1 -8.5608 8.5608h-11.45a8.5608 8.5608 0 0 1 -8.5608 -8.5608v-589.58a8.5608 8.5608 0 0 1 8.5608 -8.5608" fill="url(#c)" stroke="#9f8000" stroke-opacity=".82609" stroke-width="2.1818"/>
   <path transform="translate(-83.953 -12.843)" d="m-273.21 423.05c0 119.29-2.0909 216-4.6702 216s-4.6702-96.705-4.6702-216 2.0909-216 4.6702-216 4.6702 96.705 4.6702 216z" fill="#ececec" opacity=".21659"/>
  </g>
  <g transform="translate(-763.4 -311)">
   <path d="m231.53 118.44c0.48158 20.502-18.675 51.212-19.999 58.181-2.212 11.648 3.7438 21.673-1.664 22.739-12.022 2.3696-38.781-25.73-42.949-80.92s7.3172-98.884 41.756-95.159c26.779 2.8959 21.554 39.717 22.856 95.159z" fill="#ccc"/>
   <path d="m210.93 200c1.3509-3.3336-3.865 2.1259-7.6426 0.97582-5.0446-1.5358-11.371-8.6517-13.408-12.16-6.1223-10.544-6.404-5.8452-9.7065-17.115-2.6248 13.134 1.396 27.454 15.212 34.324 6.3939 3.1793 13.527-1.0451 15.546-6.0252z" fill="url(#b)"/>
   <path d="m231.53 116.34c0.48158 20.502-18.675 51.212-19.999 58.181-2.212 11.648 3.7438 21.673-1.664 22.739-12.022 2.3696-38.781-25.73-42.949-80.92s7.3172-98.884 41.756-95.159c26.779 2.8959 21.554 39.717 22.856 95.159z" fill="url(#a)" stroke="#070e23" stroke-opacity=".40217"/>
  </g>
  <g transform="matrix(1 0 0 -1 -763.4 567.54)">
   <path d="m231.53 118.44c0.48158 20.502-18.675 51.212-19.999 58.181-2.212 11.648 3.7438 21.673-1.664 22.739-12.022 2.3696-38.781-25.73-42.949-80.92s7.3172-98.884 41.756-95.159c26.779 2.8959 21.554 39.717 22.856 95.159z" fill="#ccc"/>
   <path d="m210.93 200c1.3509-3.3336-3.865 2.1259-7.6426 0.97582-5.0446-1.5358-11.371-8.6517-13.408-12.16-6.1223-10.544-6.404-5.8452-9.7065-17.115-2.6248 13.134 1.396 27.454 15.212 34.324 6.3939 3.1793 13.527-1.0451 15.546-6.0252z" fill="url(#b)"/>
   <path d="m231.53 116.34c0.48158 20.502-18.675 51.212-19.999 58.181-2.212 11.648 3.7438 21.673-1.664 22.739-12.022 2.3696-38.781-25.73-42.949-80.92s7.3172-98.884 41.756-95.159c26.779 2.8959 21.554 39.717 22.856 95.159z" fill="url(#a)" stroke="#070e23" stroke-opacity=".40217"/>
  </g>
  <g transform="translate(-48.013 -264.8)">
   <path d="m-367.56 109.51h11.45a8.5608 8.5608 0 0 1 8.5608 8.5608v589.58a8.5608 8.5608 0 0 1 -8.5608 8.5608h-11.45a8.5608 8.5608 0 0 1 -8.5608 -8.5608v-589.58a8.5608 8.5608 0 0 1 8.5608 -8.5608" fill="#808000" stroke="#9f8000" stroke-opacity=".82609" stroke-width="2.1818"/>
   <path d="m-367.56 104.83h11.45a8.5608 8.5608 0 0 1 8.5608 8.5608v589.58a8.5608 8.5608 0 0 1 -8.5608 8.5608h-11.45a8.5608 8.5608 0 0 1 -8.5608 -8.5608v-589.58a8.5608 8.5608 0 0 1 8.5608 -8.5608" fill="url(#c)" stroke="#9f8000" stroke-opacity=".82609" stroke-width="2.1818"/>
   <path transform="translate(-83.953 -12.843)" d="m-273.21 423.05c0 119.29-2.0909 216-4.6702 216s-4.6702-96.705-4.6702-216 2.0909-216 4.6702-216 4.6702 96.705 4.6702 216z" fill="#ececec" opacity=".21659"/>
  </g>
  <g transform="translate(-605.72 -294.2)">
   <path d="m231.53 118.44c0.48158 20.502-18.675 51.212-19.999 58.181-2.212 11.648 3.7438 21.673-1.664 22.739-12.022 2.3696-38.781-25.73-42.949-80.92s7.3172-98.884 41.756-95.159c26.779 2.8959 21.554 39.717 22.856 95.159z" fill="#ccc"/>
   <path d="m210.93 200c1.3509-3.3336-3.865 2.1259-7.6426 0.97582-5.0446-1.5358-11.371-8.6517-13.408-12.16-6.1223-10.544-6.404-5.8452-9.7065-17.115-2.6248 13.134 1.396 27.454 15.212 34.324 6.3939 3.1793 13.527-1.0451 15.546-6.0252z" fill="url(#b)"/>
   <path d="m231.53 116.34c0.48158 20.502-18.675 51.212-19.999 58.181-2.212 11.648 3.7438 21.673-1.664 22.739-12.022 2.3696-38.781-25.73-42.949-80.92s7.3172-98.884 41.756-95.159c26.779 2.8959 21.554 39.717 22.856 95.159z" fill="url(#a)" stroke="#070e23" stroke-opacity=".40217"/>
  </g>
  <g transform="matrix(1 0 0 -1 -605.72 584.34)">
   <path d="m231.53 118.44c0.48158 20.502-18.675 51.212-19.999 58.181-2.212 11.648 3.7438 21.673-1.664 22.739-12.022 2.3696-38.781-25.73-42.949-80.92s7.3172-98.884 41.756-95.159c26.779 2.8959 21.554 39.717 22.856 95.159z" fill="#ccc"/>
   <path d="m210.93 200c1.3509-3.3336-3.865 2.1259-7.6426 0.97582-5.0446-1.5358-11.371-8.6517-13.408-12.16-6.1223-10.544-6.404-5.8452-9.7065-17.115-2.6248 13.134 1.396 27.454 15.212 34.324 6.3939 3.1793 13.527-1.0451 15.546-6.0252z" fill="url(#b)"/>
   <path d="m231.53 116.34c0.48158 20.502-18.675 51.212-19.999 58.181-2.212 11.648 3.7438 21.673-1.664 22.739-12.022 2.3696-38.781-25.73-42.949-80.92s7.3172-98.884 41.756-95.159c26.779 2.8959 21.554 39.717 22.856 95.159z" fill="url(#a)" stroke="#070e23" stroke-opacity=".40217"/>
  </g>
  <g transform="translate(-104.91 -269)">
   <path d="m-367.56 109.51h11.45a8.5608 8.5608 0 0 1 8.5608 8.5608v589.58a8.5608 8.5608 0 0 1 -8.5608 8.5608h-11.45a8.5608 8.5608 0 0 1 -8.5608 -8.5608v-589.58a8.5608 8.5608 0 0 1 8.5608 -8.5608" fill="#808000" stroke="#9f8000" stroke-opacity=".82609" stroke-width="2.1818"/>
   <path d="m-367.56 104.83h11.45a8.5608 8.5608 0 0 1 8.5608 8.5608v589.58a8.5608 8.5608 0 0 1 -8.5608 8.5608h-11.45a8.5608 8.5608 0 0 1 -8.5608 -8.5608v-589.58a8.5608 8.5608 0 0 1 8.5608 -8.5608" fill="url(#c)" stroke="#9f8000" stroke-opacity=".82609" stroke-width="2.1818"/>
   <path transform="translate(-83.953 -12.843)" d="m-273.21 423.05c0 119.29-2.0909 216-4.6702 216s-4.6702-96.705-4.6702-216 2.0909-216 4.6702-216 4.6702 96.705 4.6702 216z" fill="#ececec" opacity=".21659"/>
  </g>
  <g transform="translate(-662.61 -298.4)">
   <path d="m231.53 118.44c0.48158 20.502-18.675 51.212-19.999 58.181-2.212 11.648 3.7438 21.673-1.664 22.739-12.022 2.3696-38.781-25.73-42.949-80.92s7.3172-98.884 41.756-95.159c26.779 2.8959 21.554 39.717 22.856 95.159z" fill="#ccc"/>
   <path d="m210.93 200c1.3509-3.3336-3.865 2.1259-7.6426 0.97582-5.0446-1.5358-11.371-8.6517-13.408-12.16-6.1223-10.544-6.404-5.8452-9.7065-17.115-2.6248 13.134 1.396 27.454 15.212 34.324 6.3939 3.1793 13.527-1.0451 15.546-6.0252z" fill="url(#b)"/>
   <path d="m231.53 116.34c0.48158 20.502-18.675 51.212-19.999 58.181-2.212 11.648 3.7438 21.673-1.664 22.739-12.022 2.3696-38.781-25.73-42.949-80.92s7.3172-98.884 41.756-95.159c26.779 2.8959 21.554 39.717 22.856 95.159z" fill="url(#a)" stroke="#070e23" stroke-opacity=".40217"/>
  </g>
  <g transform="matrix(1 0 0 -1 -662.61 580.14)">
   <path d="m231.53 118.44c0.48158 20.502-18.675 51.212-19.999 58.181-2.212 11.648 3.7438 21.673-1.664 22.739-12.022 2.3696-38.781-25.73-42.949-80.92s7.3172-98.884 41.756-95.159c26.779 2.8959 21.554 39.717 22.856 95.159z" fill="#ccc"/>
   <path d="m210.93 200c1.3509-3.3336-3.865 2.1259-7.6426 0.97582-5.0446-1.5358-11.371-8.6517-13.408-12.16-6.1223-10.544-6.404-5.8452-9.7065-17.115-2.6248 13.134 1.396 27.454 15.212 34.324 6.3939 3.1793 13.527-1.0451 15.546-6.0252z" fill="url(#b)"/>
   <path d="m231.53 116.34c0.48158 20.502-18.675 51.212-19.999 58.181-2.212 11.648 3.7438 21.673-1.664 22.739-12.022 2.3696-38.781-25.73-42.949-80.92s7.3172-98.884 41.756-95.159c26.779 2.8959 21.554 39.717 22.856 95.159z" fill="url(#a)" stroke="#070e23" stroke-opacity=".40217"/>
  </g>
  <g transform="translate(-174.2 -269)">
   <path d="m-367.56 109.51h11.45a8.5608 8.5608 0 0 1 8.5608 8.5608v589.58a8.5608 8.5608 0 0 1 -8.5608 8.5608h-11.45a8.5608 8.5608 0 0 1 -8.5608 -8.5608v-589.58a8.5608 8.5608 0 0 1 8.5608 -8.5608" fill="#808000" stroke="#9f8000" stroke-opacity=".82609" stroke-width="2.1818"/>
   <path d="m-367.56 104.83h11.45a8.5608 8.5608 0 0 1 8.5608 8.5608v589.58a8.5608 8.5608 0 0 1 -8.5608 8.5608h-11.45a8.5608 8.5608 0 0 1 -8.5608 -8.5608v-589.58a8.5608 8.5608 0 0 1 8.5608 -8.5608" fill="url(#c)" stroke="#9f8000" stroke-opacity=".82609" stroke-width="2.1818"/>
   <path transform="translate(-83.953 -12.843)" d="m-273.21 423.05c0 119.29-2.0909 216-4.6702 216s-4.6702-96.705-4.6702-216 2.0909-216 4.6702-216 4.6702 96.705 4.6702 216z" fill="#ececec" opacity=".21659"/>
  </g>
  <g transform="translate(-731.91 -298.4)">
   <path d="m231.53 118.44c0.48158 20.502-18.675 51.212-19.999 58.181-2.212 11.648 3.7438 21.673-1.664 22.739-12.022 2.3696-38.781-25.73-42.949-80.92s7.3172-98.884 41.756-95.159c26.779 2.8959 21.554 39.717 22.856 95.159z" fill="#ccc"/>
   <path d="m210.93 200c1.3509-3.3336-3.865 2.1259-7.6426 0.97582-5.0446-1.5358-11.371-8.6517-13.408-12.16-6.1223-10.544-6.404-5.8452-9.7065-17.115-2.6248 13.134 1.396 27.454 15.212 34.324 6.3939 3.1793 13.527-1.0451 15.546-6.0252z" fill="url(#b)"/>
   <path d="m231.53 116.34c0.48158 20.502-18.675 51.212-19.999 58.181-2.212 11.648 3.7438 21.673-1.664 22.739-12.022 2.3696-38.781-25.73-42.949-80.92s7.3172-98.884 41.756-95.159c26.779 2.8959 21.554 39.717 22.856 95.159z" fill="url(#a)" stroke="#070e23" stroke-opacity=".40217"/>
  </g>
  <g transform="matrix(1 0 0 -1 -731.91 580.14)">
   <path d="m231.53 118.44c0.48158 20.502-18.675 51.212-19.999 58.181-2.212 11.648 3.7438 21.673-1.664 22.739-12.022 2.3696-38.781-25.73-42.949-80.92s7.3172-98.884 41.756-95.159c26.779 2.8959 21.554 39.717 22.856 95.159z" fill="#ccc"/>
   <path d="m210.93 200c1.3509-3.3336-3.865 2.1259-7.6426 0.97582-5.0446-1.5358-11.371-8.6517-13.408-12.16-6.1223-10.544-6.404-5.8452-9.7065-17.115-2.6248 13.134 1.396 27.454 15.212 34.324 6.3939 3.1793 13.527-1.0451 15.546-6.0252z" fill="url(#b)"/>
   <path d="m231.53 116.34c0.48158 20.502-18.675 51.212-19.999 58.181-2.212 11.648 3.7438 21.673-1.664 22.739-12.022 2.3696-38.781-25.73-42.949-80.92s7.3172-98.884 41.756-95.159c26.779 2.8959 21.554 39.717 22.856 95.159z" fill="url(#a)" stroke="#070e23" stroke-opacity=".40217"/>
  </g>
  <g transform="translate(-235.1 -266.9)">
   <path d="m-367.56 109.51h11.45a8.5608 8.5608 0 0 1 8.5608 8.5608v589.58a8.5608 8.5608 0 0 1 -8.5608 8.5608h-11.45a8.5608 8.5608 0 0 1 -8.5608 -8.5608v-589.58a8.5608 8.5608 0 0 1 8.5608 -8.5608" fill="#808000" stroke="#9f8000" stroke-opacity=".82609" stroke-width="2.1818"/>
   <path d="m-367.56 104.83h11.45a8.5608 8.5608 0 0 1 8.5608 8.5608v589.58a8.5608 8.5608 0 0 1 -8.5608 8.5608h-11.45a8.5608 8.5608 0 0 1 -8.5608 -8.5608v-589.58a8.5608 8.5608 0 0 1 8.5608 -8.5608" fill="url(#c)" stroke="#9f8000" stroke-opacity=".82609" stroke-width="2.1818"/>
   <path transform="translate(-83.953 -12.843)" d="m-273.21 423.05c0 119.29-2.0909 216-4.6702 216s-4.6702-96.705-4.6702-216 2.0909-216 4.6702-216 4.6702 96.705 4.6702 216z" fill="#ececec" opacity=".21659"/>
  </g>
  <g transform="translate(-792.8 -296.3)">
   <path d="m231.53 118.44c0.48158 20.502-18.675 51.212-19.999 58.181-2.212 11.648 3.7438 21.673-1.664 22.739-12.022 2.3696-38.781-25.73-42.949-80.92s7.3172-98.884 41.756-95.159c26.779 2.8959 21.554 39.717 22.856 95.159z" fill="#ccc"/>
   <path d="m210.93 200c1.3509-3.3336-3.865 2.1259-7.6426 0.97582-5.0446-1.5358-11.371-8.6517-13.408-12.16-6.1223-10.544-6.404-5.8452-9.7065-17.115-2.6248 13.134 1.396 27.454 15.212 34.324 6.3939 3.1793 13.527-1.0451 15.546-6.0252z" fill="url(#b)"/>
   <path d="m231.53 116.34c0.48158 20.502-18.675 51.212-19.999 58.181-2.212 11.648 3.7438 21.673-1.664 22.739-12.022 2.3696-38.781-25.73-42.949-80.92s7.3172-98.884 41.756-95.159c26.779 2.8959 21.554 39.717 22.856 95.159z" fill="url(#a)" stroke="#070e23" stroke-opacity=".40217"/>
  </g>
  <g transform="matrix(1 0 0 -1 -792.8 582.24)">
   <path d="m231.53 118.44c0.48158 20.502-18.675 51.212-19.999 58.181-2.212 11.648 3.7438 21.673-1.664 22.739-12.022 2.3696-38.781-25.73-42.949-80.92s7.3172-98.884 41.756-95.159c26.779 2.8959 21.554 39.717 22.856 95.159z" fill="#ccc"/>
   <path d="m210.93 200c1.3509-3.3336-3.865 2.1259-7.6426 0.97582-5.0446-1.5358-11.371-8.6517-13.408-12.16-6.1223-10.544-6.404-5.8452-9.7065-17.115-2.6248 13.134 1.396 27.454 15.212 34.324 6.3939 3.1793 13.527-1.0451 15.546-6.0252z" fill="url(#b)"/>
   <path d="m231.53 116.34c0.48158 20.502-18.675 51.212-19.999 58.181-2.212 11.648 3.7438 21.673-1.664 22.739-12.022 2.3696-38.781-25.73-42.949-80.92s7.3172-98.884 41.756-95.159c26.779 2.8959 21.554 39.717 22.856 95.159z" fill="url(#a)" stroke="#070e23" stroke-opacity=".40217"/>
  </g>
  <g transform="matrix(.99788 .06504 -.06504 .99788 36.68 -248.99)">
   <path d="m-367.56 109.51h11.45a8.5608 8.5608 0 0 1 8.5608 8.5608v589.58a8.5608 8.5608 0 0 1 -8.5608 8.5608h-11.45a8.5608 8.5608 0 0 1 -8.5608 -8.5608v-589.58a8.5608 8.5608 0 0 1 8.5608 -8.5608" fill="#808000" stroke="#9f8000" stroke-opacity=".82609" stroke-width="2.1818"/>
   <path d="m-367.56 104.83h11.45a8.5608 8.5608 0 0 1 8.5608 8.5608v589.58a8.5608 8.5608 0 0 1 -8.5608 8.5608h-11.45a8.5608 8.5608 0 0 1 -8.5608 -8.5608v-589.58a8.5608 8.5608 0 0 1 8.5608 -8.5608" fill="url(#c)" stroke="#9f8000" stroke-opacity=".82609" stroke-width="2.1818"/>
   <path transform="translate(-83.953 -12.843)" d="m-273.21 423.05c0 119.29-2.0909 216-4.6702 216s-4.6702-96.705-4.6702-216 2.0909-216 4.6702-216 4.6702 96.705 4.6702 216z" fill="#ececec" opacity=".21659"/>
  </g>
  <g transform="matrix(.99788 .06504 -.06504 .99788 -517.93 -314.6)">
   <path d="m231.53 118.44c0.48158 20.502-18.675 51.212-19.999 58.181-2.212 11.648 3.7438 21.673-1.664 22.739-12.022 2.3696-38.781-25.73-42.949-80.92s7.3172-98.884 41.756-95.159c26.779 2.8959 21.554 39.717 22.856 95.159z" fill="#ccc"/>
   <path d="m210.93 200c1.3509-3.3336-3.865 2.1259-7.6426 0.97582-5.0446-1.5358-11.371-8.6517-13.408-12.16-6.1223-10.544-6.404-5.8452-9.7065-17.115-2.6248 13.134 1.396 27.454 15.212 34.324 6.3939 3.1793 13.527-1.0451 15.546-6.0252z" fill="url(#b)"/>
   <path d="m231.53 116.34c0.48158 20.502-18.675 51.212-19.999 58.181-2.212 11.648 3.7438 21.673-1.664 22.739-12.022 2.3696-38.781-25.73-42.949-80.92s7.3172-98.884 41.756-95.159c26.779 2.8959 21.554 39.717 22.856 95.159z" fill="url(#a)" stroke="#070e23" stroke-opacity=".40217"/>
  </g>
  <g transform="matrix(.99788 .06504 .06504 -.99788 -575.07 562.08)">
   <path d="m231.53 118.44c0.48158 20.502-18.675 51.212-19.999 58.181-2.212 11.648 3.7438 21.673-1.664 22.739-12.022 2.3696-38.781-25.73-42.949-80.92s7.3172-98.884 41.756-95.159c26.779 2.8959 21.554 39.717 22.856 95.159z" fill="#ccc"/>
   <path d="m210.93 200c1.3509-3.3336-3.865 2.1259-7.6426 0.97582-5.0446-1.5358-11.371-8.6517-13.408-12.16-6.1223-10.544-6.404-5.8452-9.7065-17.115-2.6248 13.134 1.396 27.454 15.212 34.324 6.3939 3.1793 13.527-1.0451 15.546-6.0252z" fill="url(#b)"/>
   <path d="m231.53 116.34c0.48158 20.502-18.675 51.212-19.999 58.181-2.212 11.648 3.7438 21.673-1.664 22.739-12.022 2.3696-38.781-25.73-42.949-80.92s7.3172-98.884 41.756-95.159c26.779 2.8959 21.554 39.717 22.856 95.159z" fill="url(#a)" stroke="#070e23" stroke-opacity=".40217"/>
  </g>
  <g transform="translate(-27.015 -266.9)">
   <path d="m-367.56 109.51h11.45a8.5608 8.5608 0 0 1 8.5608 8.5608v589.58a8.5608 8.5608 0 0 1 -8.5608 8.5608h-11.45a8.5608 8.5608 0 0 1 -8.5608 -8.5608v-589.58a8.5608 8.5608 0 0 1 8.5608 -8.5608" fill="#808000" stroke="#9f8000" stroke-opacity=".82609" stroke-width="2.1818"/>
   <path d="m-367.56 104.83h11.45a8.5608 8.5608 0 0 1 8.5608 8.5608v589.58a8.5608 8.5608 0 0 1 -8.5608 8.5608h-11.45a8.5608 8.5608 0 0 1 -8.5608 -8.5608v-589.58a8.5608 8.5608 0 0 1 8.5608 -8.5608" fill="url(#c)" stroke="#9f8000" stroke-opacity=".82609" stroke-width="2.1818"/>
   <path transform="translate(-83.953 -12.843)" d="m-273.21 423.05c0 119.29-2.0909 216-4.6702 216s-4.6702-96.705-4.6702-216 2.0909-216 4.6702-216 4.6702 96.705 4.6702 216z" fill="#ececec" opacity=".21659"/>
  </g>
  <g transform="translate(-584.72 -296.3)">
   <path d="m231.53 118.44c0.48158 20.502-18.675 51.212-19.999 58.181-2.212 11.648 3.7438 21.673-1.664 22.739-12.022 2.3696-38.781-25.73-42.949-80.92s7.3172-98.884 41.756-95.159c26.779 2.8959 21.554 39.717 22.856 95.159z" fill="#ccc"/>
   <path d="m210.93 200c1.3509-3.3336-3.865 2.1259-7.6426 0.97582-5.0446-1.5358-11.371-8.6517-13.408-12.16-6.1223-10.544-6.404-5.8452-9.7065-17.115-2.6248 13.134 1.396 27.454 15.212 34.324 6.3939 3.1793 13.527-1.0451 15.546-6.0252z" fill="url(#b)"/>
   <path d="m231.53 116.34c0.48158 20.502-18.675 51.212-19.999 58.181-2.212 11.648 3.7438 21.673-1.664 22.739-12.022 2.3696-38.781-25.73-42.949-80.92s7.3172-98.884 41.756-95.159c26.779 2.8959 21.554 39.717 22.856 95.159z" fill="url(#a)" stroke="#070e23" stroke-opacity=".40217"/>
  </g>
  <g transform="matrix(1 0 0 -1 -584.72 582.24)">
   <path d="m231.53 118.44c0.48158 20.502-18.675 51.212-19.999 58.181-2.212 11.648 3.7438 21.673-1.664 22.739-12.022 2.3696-38.781-25.73-42.949-80.92s7.3172-98.884 41.756-95.159c26.779 2.8959 21.554 39.717 22.856 95.159z" fill="#ccc"/>
   <path d="m210.93 200c1.3509-3.3336-3.865 2.1259-7.6426 0.97582-5.0446-1.5358-11.371-8.6517-13.408-12.16-6.1223-10.544-6.404-5.8452-9.7065-17.115-2.6248 13.134 1.396 27.454 15.212 34.324 6.3939 3.1793 13.527-1.0451 15.546-6.0252z" fill="url(#b)"/>
   <path d="m231.53 116.34c0.48158 20.502-18.675 51.212-19.999 58.181-2.212 11.648 3.7438 21.673-1.664 22.739-12.022 2.3696-38.781-25.73-42.949-80.92s7.3172-98.884 41.756-95.159c26.779 2.8959 21.554 39.717 22.856 95.159z" fill="url(#a)" stroke="#070e23" stroke-opacity=".40217"/>
  </g>
  <g transform="matrix(-.99788 .06504 .06504 .99788 -1082.6 -246.89)">
   <path d="m-367.56 109.51h11.45a8.5608 8.5608 0 0 1 8.5608 8.5608v589.58a8.5608 8.5608 0 0 1 -8.5608 8.5608h-11.45a8.5608 8.5608 0 0 1 -8.5608 -8.5608v-589.58a8.5608 8.5608 0 0 1 8.5608 -8.5608" fill="#808000" stroke="#9f8000" stroke-opacity=".82609" stroke-width="2.1818"/>
   <path d="m-367.56 104.83h11.45a8.5608 8.5608 0 0 1 8.5608 8.5608v589.58a8.5608 8.5608 0 0 1 -8.5608 8.5608h-11.45a8.5608 8.5608 0 0 1 -8.5608 -8.5608v-589.58a8.5608 8.5608 0 0 1 8.5608 -8.5608" fill="url(#c)" stroke="#9f8000" stroke-opacity=".82609" stroke-width="2.1818"/>
   <path transform="translate(-83.953 -12.843)" d="m-273.21 423.05c0 119.29-2.0909 216-4.6702 216s-4.6702-96.705-4.6702-216 2.0909-216 4.6702-216 4.6702 96.705 4.6702 216z" fill="#ececec" opacity=".21659"/>
  </g>
  <g transform="matrix(-.99788 .06504 .06504 .99788 -527.98 -312.5)">
   <path d="m231.53 118.44c0.48158 20.502-18.675 51.212-19.999 58.181-2.212 11.648 3.7438 21.673-1.664 22.739-12.022 2.3696-38.781-25.73-42.949-80.92s7.3172-98.884 41.756-95.159c26.779 2.8959 21.554 39.717 22.856 95.159z" fill="#ccc"/>
   <path d="m210.93 200c1.3509-3.3336-3.865 2.1259-7.6426 0.97582-5.0446-1.5358-11.371-8.6517-13.408-12.16-6.1223-10.544-6.404-5.8452-9.7065-17.115-2.6248 13.134 1.396 27.454 15.212 34.324 6.3939 3.1793 13.527-1.0451 15.546-6.0252z" fill="url(#b)"/>
   <path d="m231.53 116.34c0.48158 20.502-18.675 51.212-19.999 58.181-2.212 11.648 3.7438 21.673-1.664 22.739-12.022 2.3696-38.781-25.73-42.949-80.92s7.3172-98.884 41.756-95.159c26.779 2.8959 21.554 39.717 22.856 95.159z" fill="url(#a)" stroke="#070e23" stroke-opacity=".40217"/>
  </g>
  <g transform="matrix(-.99788 .06504 -.06504 -.99788 -470.84 564.18)">
   <path d="m231.53 118.44c0.48158 20.502-18.675 51.212-19.999 58.181-2.212 11.648 3.7438 21.673-1.664 22.739-12.022 2.3696-38.781-25.73-42.949-80.92s7.3172-98.884 41.756-95.159c26.779 2.8959 21.554 39.717 22.856 95.159z" fill="#ccc"/>
   <path d="m210.93 200c1.3509-3.3336-3.865 2.1259-7.6426 0.97582-5.0446-1.5358-11.371-8.6517-13.408-12.16-6.1223-10.544-6.404-5.8452-9.7065-17.115-2.6248 13.134 1.396 27.454 15.212 34.324 6.3939 3.1793 13.527-1.0451 15.546-6.0252z" fill="url(#b)"/>
   <path d="m231.53 116.34c0.48158 20.502-18.675 51.212-19.999 58.181-2.212 11.648 3.7438 21.673-1.664 22.739-12.022 2.3696-38.781-25.73-42.949-80.92s7.3172-98.884 41.756-95.159c26.779 2.8959 21.554 39.717 22.856 95.159z" fill="url(#a)" stroke="#070e23" stroke-opacity=".40217"/>
  </g>
  <g transform="translate(-320.99 -273.2)">
   <path d="m-367.56 109.51h11.45a8.5608 8.5608 0 0 1 8.5608 8.5608v589.58a8.5608 8.5608 0 0 1 -8.5608 8.5608h-11.45a8.5608 8.5608 0 0 1 -8.5608 -8.5608v-589.58a8.5608 8.5608 0 0 1 8.5608 -8.5608" fill="#808000" stroke="#9f8000" stroke-opacity=".82609" stroke-width="2.1818"/>
   <path d="m-367.56 104.83h11.45a8.5608 8.5608 0 0 1 8.5608 8.5608v589.58a8.5608 8.5608 0 0 1 -8.5608 8.5608h-11.45a8.5608 8.5608 0 0 1 -8.5608 -8.5608v-589.58a8.5608 8.5608 0 0 1 8.5608 -8.5608" fill="url(#c)" stroke="#9f8000" stroke-opacity=".82609" stroke-width="2.1818"/>
   <path transform="translate(-83.953 -12.843)" d="m-273.21 423.05c0 119.29-2.0909 216-4.6702 216s-4.6702-96.705-4.6702-216 2.0909-216 4.6702-216 4.6702 96.705 4.6702 216z" fill="#ececec" opacity=".21659"/>
  </g>
  <g transform="translate(-878.7 -302.6)">
   <path d="m231.53 118.44c0.48158 20.502-18.675 51.212-19.999 58.181-2.212 11.648 3.7438 21.673-1.664 22.739-12.022 2.3696-38.781-25.73-42.949-80.92s7.3172-98.884 41.756-95.159c26.779 2.8959 21.554 39.717 22.856 95.159z" fill="#ccc"/>
   <path d="m210.93 200c1.3509-3.3336-3.865 2.1259-7.6426 0.97582-5.0446-1.5358-11.371-8.6517-13.408-12.16-6.1223-10.544-6.404-5.8452-9.7065-17.115-2.6248 13.134 1.396 27.454 15.212 34.324 6.3939 3.1793 13.527-1.0451 15.546-6.0252z" fill="url(#b)"/>
   <path d="m231.53 116.34c0.48158 20.502-18.675 51.212-19.999 58.181-2.212 11.648 3.7438 21.673-1.664 22.739-12.022 2.3696-38.781-25.73-42.949-80.92s7.3172-98.884 41.756-95.159c26.779 2.8959 21.554 39.717 22.856 95.159z" fill="url(#a)" stroke="#070e23" stroke-opacity=".40217"/>
  </g>
  <g transform="matrix(1 0 0 -1 -878.7 575.94)">
   <path d="m231.53 118.44c0.48158 20.502-18.675 51.212-19.999 58.181-2.212 11.648 3.7438 21.673-1.664 22.739-12.022 2.3696-38.781-25.73-42.949-80.92s7.3172-98.884 41.756-95.159c26.779 2.8959 21.554 39.717 22.856 95.159z" fill="#ccc"/>
   <path d="m210.93 200c1.3509-3.3336-3.865 2.1259-7.6426 0.97582-5.0446-1.5358-11.371-8.6517-13.408-12.16-6.1223-10.544-6.404-5.8452-9.7065-17.115-2.6248 13.134 1.396 27.454 15.212 34.324 6.3939 3.1793 13.527-1.0451 15.546-6.0252z" fill="url(#b)"/>
   <path d="m231.53 116.34c0.48158 20.502-18.675 51.212-19.999 58.181-2.212 11.648 3.7438 21.673-1.664 22.739-12.022 2.3696-38.781-25.73-42.949-80.92s7.3172-98.884 41.756-95.159c26.779 2.8959 21.554 39.717 22.856 95.159z" fill="url(#a)" stroke="#070e23" stroke-opacity=".40217"/>
  </g>
  <g transform="matrix(.99788 .06504 -.06504 .99788 -19.87 -223.07)">
   <path d="m-367.56 109.51h11.45a8.5608 8.5608 0 0 1 8.5608 8.5608v589.58a8.5608 8.5608 0 0 1 -8.5608 8.5608h-11.45a8.5608 8.5608 0 0 1 -8.5608 -8.5608v-589.58a8.5608 8.5608 0 0 1 8.5608 -8.5608" fill="#808000" stroke="#9f8000" stroke-opacity=".82609" stroke-width="2.1818"/>
   <path d="m-367.56 104.83h11.45a8.5608 8.5608 0 0 1 8.5608 8.5608v589.58a8.5608 8.5608 0 0 1 -8.5608 8.5608h-11.45a8.5608 8.5608 0 0 1 -8.5608 -8.5608v-589.58a8.5608 8.5608 0 0 1 8.5608 -8.5608" fill="url(#c)" stroke="#9f8000" stroke-opacity=".82609" stroke-width="2.1818"/>
   <path transform="translate(-83.953 -12.843)" d="m-273.21 423.05c0 119.29-2.0909 216-4.6702 216s-4.6702-96.705-4.6702-216 2.0909-216 4.6702-216 4.6702 96.705 4.6702 216z" fill="#ececec" opacity=".21659"/>
  </g>
  <g transform="matrix(.99788 .06504 -.06504 .99788 -574.48 -288.68)">
   <path d="m231.53 118.44c0.48158 20.502-18.675 51.212-19.999 58.181-2.212 11.648 3.7438 21.673-1.664 22.739-12.022 2.3696-38.781-25.73-42.949-80.92s7.3172-98.884 41.756-95.159c26.779 2.8959 21.554 39.717 22.856 95.159z" fill="#ccc"/>
   <path d="m210.93 200c1.3509-3.3336-3.865 2.1259-7.6426 0.97582-5.0446-1.5358-11.371-8.6517-13.408-12.16-6.1223-10.544-6.404-5.8452-9.7065-17.115-2.6248 13.134 1.396 27.454 15.212 34.324 6.3939 3.1793 13.527-1.0451 15.546-6.0252z" fill="url(#b)"/>
   <path d="m231.53 116.34c0.48158 20.502-18.675 51.212-19.999 58.181-2.212 11.648 3.7438 21.673-1.664 22.739-12.022 2.3696-38.781-25.73-42.949-80.92s7.3172-98.884 41.756-95.159c26.779 2.8959 21.554 39.717 22.856 95.159z" fill="url(#a)" stroke="#070e23" stroke-opacity=".40217"/>
  </g>
  <g transform="matrix(.99788 .06504 .06504 -.99788 -631.62 588)">
   <path d="m231.53 118.44c0.48158 20.502-18.675 51.212-19.999 58.181-2.212 11.648 3.7438 21.673-1.664 22.739-12.022 2.3696-38.781-25.73-42.949-80.92s7.3172-98.884 41.756-95.159c26.779 2.8959 21.554 39.717 22.856 95.159z" fill="#ccc"/>
   <path d="m210.93 200c1.3509-3.3336-3.865 2.1259-7.6426 0.97582-5.0446-1.5358-11.371-8.6517-13.408-12.16-6.1223-10.544-6.404-5.8452-9.7065-17.115-2.6248 13.134 1.396 27.454 15.212 34.324 6.3939 3.1793 13.527-1.0451 15.546-6.0252z" fill="url(#b)"/>
   <path d="m231.53 116.34c0.48158 20.502-18.675 51.212-19.999 58.181-2.212 11.648 3.7438 21.673-1.664 22.739-12.022 2.3696-38.781-25.73-42.949-80.92s7.3172-98.884 41.756-95.159c26.779 2.8959 21.554 39.717 22.856 95.159z" fill="url(#a)" stroke="#070e23" stroke-opacity=".40217"/>
  </g>
  <g transform="matrix(.99788 .06504 -.06504 .99788 -135.33 -201.87)">
   <path d="m-367.56 109.51h11.45a8.5608 8.5608 0 0 1 8.5608 8.5608v589.58a8.5608 8.5608 0 0 1 -8.5608 8.5608h-11.45a8.5608 8.5608 0 0 1 -8.5608 -8.5608v-589.58a8.5608 8.5608 0 0 1 8.5608 -8.5608" fill="#808000" stroke="#9f8000" stroke-opacity=".82609" stroke-width="2.1818"/>
   <path d="m-367.56 104.83h11.45a8.5608 8.5608 0 0 1 8.5608 8.5608v589.58a8.5608 8.5608 0 0 1 -8.5608 8.5608h-11.45a8.5608 8.5608 0 0 1 -8.5608 -8.5608v-589.58a8.5608 8.5608 0 0 1 8.5608 -8.5608" fill="url(#c)" stroke="#9f8000" stroke-opacity=".82609" stroke-width="2.1818"/>
   <path transform="translate(-83.953 -12.843)" d="m-273.21 423.05c0 119.29-2.0909 216-4.6702 216s-4.6702-96.705-4.6702-216 2.0909-216 4.6702-216 4.6702 96.705 4.6702 216z" fill="#ececec" opacity=".21659"/>
  </g>
  <g transform="matrix(.99788 .06504 -.06504 .99788 -689.94 -267.47)">
   <path d="m231.53 118.44c0.48158 20.502-18.675 51.212-19.999 58.181-2.212 11.648 3.7438 21.673-1.664 22.739-12.022 2.3696-38.781-25.73-42.949-80.92s7.3172-98.884 41.756-95.159c26.779 2.8959 21.554 39.717 22.856 95.159z" fill="#ccc"/>
   <path d="m210.93 200c1.3509-3.3336-3.865 2.1259-7.6426 0.97582-5.0446-1.5358-11.371-8.6517-13.408-12.16-6.1223-10.544-6.404-5.8452-9.7065-17.115-2.6248 13.134 1.396 27.454 15.212 34.324 6.3939 3.1793 13.527-1.0451 15.546-6.0252z" fill="url(#b)"/>
   <path d="m231.53 116.34c0.48158 20.502-18.675 51.212-19.999 58.181-2.212 11.648 3.7438 21.673-1.664 22.739-12.022 2.3696-38.781-25.73-42.949-80.92s7.3172-98.884 41.756-95.159c26.779 2.8959 21.554 39.717 22.856 95.159z" fill="url(#a)" stroke="#070e23" stroke-opacity=".40217"/>
  </g>
  <g transform="matrix(.99788 .06504 .06504 -.99788 -747.08 609.2)">
   <path d="m231.53 118.44c0.48158 20.502-18.675 51.212-19.999 58.181-2.212 11.648 3.7438 21.673-1.664 22.739-12.022 2.3696-38.781-25.73-42.949-80.92s7.3172-98.884 41.756-95.159c26.779 2.8959 21.554 39.717 22.856 95.159z" fill="#ccc"/>
   <path d="m210.93 200c1.3509-3.3336-3.865 2.1259-7.6426 0.97582-5.0446-1.5358-11.371-8.6517-13.408-12.16-6.1223-10.544-6.404-5.8452-9.7065-17.115-2.6248 13.134 1.396 27.454 15.212 34.324 6.3939 3.1793 13.527-1.0451 15.546-6.0252z" fill="url(#b)"/>
   <path d="m231.53 116.34c0.48158 20.502-18.675 51.212-19.999 58.181-2.212 11.648 3.7438 21.673-1.664 22.739-12.022 2.3696-38.781-25.73-42.949-80.92s7.3172-98.884 41.756-95.159c26.779 2.8959 21.554 39.717 22.856 95.159z" fill="url(#a)" stroke="#070e23" stroke-opacity=".40217"/>
  </g>
  <g transform="matrix(.99788 .06504 -.06504 .99788 -78.776 -208.93)">
   <path d="m-367.56 109.51h11.45a8.5608 8.5608 0 0 1 8.5608 8.5608v589.58a8.5608 8.5608 0 0 1 -8.5608 8.5608h-11.45a8.5608 8.5608 0 0 1 -8.5608 -8.5608v-589.58a8.5608 8.5608 0 0 1 8.5608 -8.5608" fill="#808000" stroke="#9f8000" stroke-opacity=".82609" stroke-width="2.1818"/>
   <path d="m-367.56 104.83h11.45a8.5608 8.5608 0 0 1 8.5608 8.5608v589.58a8.5608 8.5608 0 0 1 -8.5608 8.5608h-11.45a8.5608 8.5608 0 0 1 -8.5608 -8.5608v-589.58a8.5608 8.5608 0 0 1 8.5608 -8.5608" fill="url(#c)" stroke="#9f8000" stroke-opacity=".82609" stroke-width="2.1818"/>
   <path transform="translate(-83.953 -12.843)" d="m-273.21 423.05c0 119.29-2.0909 216-4.6702 216s-4.6702-96.705-4.6702-216 2.0909-216 4.6702-216 4.6702 96.705 4.6702 216z" fill="#ececec" opacity=".21659"/>
  </g>
  <g transform="matrix(.99788 .06504 -.06504 .99788 -633.39 -274.54)">
   <path d="m231.53 118.44c0.48158 20.502-18.675 51.212-19.999 58.181-2.212 11.648 3.7438 21.673-1.664 22.739-12.022 2.3696-38.781-25.73-42.949-80.92s7.3172-98.884 41.756-95.159c26.779 2.8959 21.554 39.717 22.856 95.159z" fill="#ccc"/>
   <path d="m210.93 200c1.3509-3.3336-3.865 2.1259-7.6426 0.97582-5.0446-1.5358-11.371-8.6517-13.408-12.16-6.1223-10.544-6.404-5.8452-9.7065-17.115-2.6248 13.134 1.396 27.454 15.212 34.324 6.3939 3.1793 13.527-1.0451 15.546-6.0252z" fill="url(#b)"/>
   <path d="m231.53 116.34c0.48158 20.502-18.675 51.212-19.999 58.181-2.212 11.648 3.7438 21.673-1.664 22.739-12.022 2.3696-38.781-25.73-42.949-80.92s7.3172-98.884 41.756-95.159c26.779 2.8959 21.554 39.717 22.856 95.159z" fill="url(#a)" stroke="#070e23" stroke-opacity=".40217"/>
  </g>
  <g transform="matrix(.99788 .06504 .06504 -.99788 -690.53 602.14)">
   <path d="m231.53 118.44c0.48158 20.502-18.675 51.212-19.999 58.181-2.212 11.648 3.7438 21.673-1.664 22.739-12.022 2.3696-38.781-25.73-42.949-80.92s7.3172-98.884 41.756-95.159c26.779 2.8959 21.554 39.717 22.856 95.159z" fill="#ccc"/>
   <path d="m210.93 200c1.3509-3.3336-3.865 2.1259-7.6426 0.97582-5.0446-1.5358-11.371-8.6517-13.408-12.16-6.1223-10.544-6.404-5.8452-9.7065-17.115-2.6248 13.134 1.396 27.454 15.212 34.324 6.3939 3.1793 13.527-1.0451 15.546-6.0252z" fill="url(#b)"/>
   <path d="m231.53 116.34c0.48158 20.502-18.675 51.212-19.999 58.181-2.212 11.648 3.7438 21.673-1.664 22.739-12.022 2.3696-38.781-25.73-42.949-80.92s7.3172-98.884 41.756-95.159c26.779 2.8959 21.554 39.717 22.856 95.159z" fill="url(#a)" stroke="#070e23" stroke-opacity=".40217"/>
  </g>
  <g transform="matrix(.99788 .06504 -.06504 .99788 -201.3 -216.22)">
   <path d="m-367.56 109.51h11.45a8.5608 8.5608 0 0 1 8.5608 8.5608v589.58a8.5608 8.5608 0 0 1 -8.5608 8.5608h-11.45a8.5608 8.5608 0 0 1 -8.5608 -8.5608v-589.58a8.5608 8.5608 0 0 1 8.5608 -8.5608" fill="#808000" stroke="#9f8000" stroke-opacity=".82609" stroke-width="2.1818"/>
   <path d="m-367.56 104.83h11.45a8.5608 8.5608 0 0 1 8.5608 8.5608v589.58a8.5608 8.5608 0 0 1 -8.5608 8.5608h-11.45a8.5608 8.5608 0 0 1 -8.5608 -8.5608v-589.58a8.5608 8.5608 0 0 1 8.5608 -8.5608" fill="url(#c)" stroke="#9f8000" stroke-opacity=".82609" stroke-width="2.1818"/>
   <path transform="translate(-83.953 -12.843)" d="m-273.21 423.05c0 119.29-2.0909 216-4.6702 216s-4.6702-96.705-4.6702-216 2.0909-216 4.6702-216 4.6702 96.705 4.6702 216z" fill="#ececec" opacity=".21659"/>
  </g>
  <g transform="matrix(.99788 .06504 -.06504 .99788 -755.91 -281.83)">
   <path d="m231.53 118.44c0.48158 20.502-18.675 51.212-19.999 58.181-2.212 11.648 3.7438 21.673-1.664 22.739-12.022 2.3696-38.781-25.73-42.949-80.92s7.3172-98.884 41.756-95.159c26.779 2.8959 21.554 39.717 22.856 95.159z" fill="#ccc"/>
   <path d="m210.93 200c1.3509-3.3336-3.865 2.1259-7.6426 0.97582-5.0446-1.5358-11.371-8.6517-13.408-12.16-6.1223-10.544-6.404-5.8452-9.7065-17.115-2.6248 13.134 1.396 27.454 15.212 34.324 6.3939 3.1793 13.527-1.0451 15.546-6.0252z" fill="url(#b)"/>
   <path d="m231.53 116.34c0.48158 20.502-18.675 51.212-19.999 58.181-2.212 11.648 3.7438 21.673-1.664 22.739-12.022 2.3696-38.781-25.73-42.949-80.92s7.3172-98.884 41.756-95.159c26.779 2.8959 21.554 39.717 22.856 95.159z" fill="url(#a)" stroke="#070e23" stroke-opacity=".40217"/>
  </g>
  <g transform="matrix(.99788 .06504 .06504 -.99788 -813.05 594.85)">
   <path d="m231.53 118.44c0.48158 20.502-18.675 51.212-19.999 58.181-2.212 11.648 3.7438 21.673-1.664 22.739-12.022 2.3696-38.781-25.73-42.949-80.92s7.3172-98.884 41.756-95.159c26.779 2.8959 21.554 39.717 22.856 95.159z" fill="#ccc"/>
   <path d="m210.93 200c1.3509-3.3336-3.865 2.1259-7.6426 0.97582-5.0446-1.5358-11.371-8.6517-13.408-12.16-6.1223-10.544-6.404-5.8452-9.7065-17.115-2.6248 13.134 1.396 27.454 15.212 34.324 6.3939 3.1793 13.527-1.0451 15.546-6.0252z" fill="url(#b)"/>
   <path d="m231.53 116.34c0.48158 20.502-18.675 51.212-19.999 58.181-2.212 11.648 3.7438 21.673-1.664 22.739-12.022 2.3696-38.781-25.73-42.949-80.92s7.3172-98.884 41.756-95.159c26.779 2.8959 21.554 39.717 22.856 95.159z" fill="url(#a)" stroke="#070e23" stroke-opacity=".40217"/>
  </g>
  <g transform="matrix(.99788 .06504 -.06504 .99788 -236.64 -230.72)">
   <path d="m-367.56 109.51h11.45a8.5608 8.5608 0 0 1 8.5608 8.5608v589.58a8.5608 8.5608 0 0 1 -8.5608 8.5608h-11.45a8.5608 8.5608 0 0 1 -8.5608 -8.5608v-589.58a8.5608 8.5608 0 0 1 8.5608 -8.5608" fill="#808000" stroke="#9f8000" stroke-opacity=".82609" stroke-width="2.1818"/>
   <path d="m-367.56 104.83h11.45a8.5608 8.5608 0 0 1 8.5608 8.5608v589.58a8.5608 8.5608 0 0 1 -8.5608 8.5608h-11.45a8.5608 8.5608 0 0 1 -8.5608 -8.5608v-589.58a8.5608 8.5608 0 0 1 8.5608 -8.5608" fill="url(#c)" stroke="#9f8000" stroke-opacity=".82609" stroke-width="2.1818"/>
   <path transform="translate(-83.953 -12.843)" d="m-273.21 423.05c0 119.29-2.0909 216-4.6702 216s-4.6702-96.705-4.6702-216 2.0909-216 4.6702-216 4.6702 96.705 4.6702 216z" fill="#ececec" opacity=".21659"/>
  </g>
  <g transform="matrix(.99788 .06504 -.06504 .99788 -791.26 -296.32)">
   <path d="m231.53 118.44c0.48158 20.502-18.675 51.212-19.999 58.181-2.212 11.648 3.7438 21.673-1.664 22.739-12.022 2.3696-38.781-25.73-42.949-80.92s7.3172-98.884 41.756-95.159c26.779 2.8959 21.554 39.717 22.856 95.159z" fill="#ccc"/>
   <path d="m210.93 200c1.3509-3.3336-3.865 2.1259-7.6426 0.97582-5.0446-1.5358-11.371-8.6517-13.408-12.16-6.1223-10.544-6.404-5.8452-9.7065-17.115-2.6248 13.134 1.396 27.454 15.212 34.324 6.3939 3.1793 13.527-1.0451 15.546-6.0252z" fill="url(#b)"/>
   <path d="m231.53 116.34c0.48158 20.502-18.675 51.212-19.999 58.181-2.212 11.648 3.7438 21.673-1.664 22.739-12.022 2.3696-38.781-25.73-42.949-80.92s7.3172-98.884 41.756-95.159c26.779 2.8959 21.554 39.717 22.856 95.159z" fill="url(#a)" stroke="#070e23" stroke-opacity=".40217"/>
  </g>
  <g transform="matrix(.99788 .06504 .06504 -.99788 -848.4 580.35)">
   <path d="m231.53 118.44c0.48158 20.502-18.675 51.212-19.999 58.181-2.212 11.648 3.7438 21.673-1.664 22.739-12.022 2.3696-38.781-25.73-42.949-80.92s7.3172-98.884 41.756-95.159c26.779 2.8959 21.554 39.717 22.856 95.159z" fill="#ccc"/>
   <path d="m210.93 200c1.3509-3.3336-3.865 2.1259-7.6426 0.97582-5.0446-1.5358-11.371-8.6517-13.408-12.16-6.1223-10.544-6.404-5.8452-9.7065-17.115-2.6248 13.134 1.396 27.454 15.212 34.324 6.3939 3.1793 13.527-1.0451 15.546-6.0252z" fill="url(#b)"/>
   <path d="m231.53 116.34c0.48158 20.502-18.675 51.212-19.999 58.181-2.212 11.648 3.7438 21.673-1.664 22.739-12.022 2.3696-38.781-25.73-42.949-80.92s7.3172-98.884 41.756-95.159c26.779 2.8959 21.554 39.717 22.856 95.159z" fill="url(#a)" stroke="#070e23" stroke-opacity=".40217"/>
  </g>
  <path d="m-724.95-91.629c138.24 35.973 269.48 33.151 398.03 0 3.7366-0.96363 7.2039 2.8818 7.2039 6.4614v616.28c0 3.5796-3.9162 4.4322-7.2039 6.4614-128.26 79.168-260.05 95.123-398.03 0-3.1643-2.1814-7.2039-2.8818-7.2039-6.4614v-616.28c0-3.5796 3.5111-7.4224 7.2039-6.4614z" opacity=".30415"/>
  <path d="m-730.07-29.261v555.7c0 4.1211 4.0545 4.8999 7.2188 7.4113 137.98 109.51 269.77 91.144 398.03 0 3.2877-2.3362 7.1875-3.2902 7.1875-7.4113v-555.7c-137.48 53.861-274.96 35.584-412.44 0z" opacity=".70507"/>
  <path d="m-730.07-29.261v555.7c0 4.1211 4.0545 4.8999 7.2188 7.4113 137.98 109.51 269.77 91.144 398.03 0 3.2877-2.3362 7.1875-3.2902 7.1875-7.4113v-555.7c-137.48 53.861-274.96 35.584-412.44 0z" fill="url(#o)" opacity=".70507"/>
  <path d="m-724.23-89.306c-3.1459 0.12587-5.8438 3.0969-5.8438 5.8991v55.747c137.48 31.835 274.96 48.186 412.44 0v-55.747c0-3.2025-3.4509-6.6493-7.1875-5.7872-128.55 29.658-259.79 32.183-398.03 0-0.4616-0.10746-0.92558-0.12981-1.375-0.11183z" fill="url(#m)" opacity=".605"/>
  <path d="m-724.23-89.306c-3.1459 0.12587-5.8438 3.0969-5.8438 5.8991v55.747c137.48 31.835 274.96 48.186 412.44 0v-55.747c0-3.2025-3.4509-6.6493-7.1875-5.7872-128.55 29.658-259.79 32.183-398.03 0-0.4616-0.10746-0.92558-0.12981-1.375-0.11183z" fill="url(#p)" opacity=".605"/>
  <path d="m-724.23-89.306c-3.1459 0.12587-5.8438 3.0969-5.8438 5.8991v55.747c137.48 31.835 274.96 48.186 412.44 0v-55.747c0-3.2025-3.4509-6.6493-7.1875-5.7872-128.55 29.658-259.79 32.183-398.03 0-0.4616-0.10746-0.92558-0.12981-1.375-0.11183z" fill="url(#q)" opacity=".605"/>
  <g transform="matrix(.13119 .92849 -.92007 .14587 -214.57 287.95)" fill="#1c241f" filter="url(#h)">
   <g transform="translate(741.44 -16.799)">
    <path d="m-367.56 109.51h11.45a8.5608 8.5608 0 0 1 8.5608 8.5608v589.58a8.5608 8.5608 0 0 1 -8.5608 8.5608h-11.45a8.5608 8.5608 0 0 1 -8.5608 -8.5608v-589.58a8.5608 8.5608 0 0 1 8.5608 -8.5608" stroke="#9f8000" stroke-opacity=".82609" stroke-width="2.1818"/>
    <path d="m-367.56 104.83h11.45a8.5608 8.5608 0 0 1 8.5608 8.5608v589.58a8.5608 8.5608 0 0 1 -8.5608 8.5608h-11.45a8.5608 8.5608 0 0 1 -8.5608 -8.5608v-589.58a8.5608 8.5608 0 0 1 8.5608 -8.5608" stroke="#9f8000" stroke-opacity=".82609" stroke-width="2.1818"/>
    <path transform="translate(-83.953 -12.843)" d="m-273.21 423.05c0 119.29-2.0909 216-4.6702 216s-4.6702-96.705-4.6702-216 2.0909-216 4.6702-216 4.6702 96.705 4.6702 216z" opacity=".21659"/>
   </g>
   <g transform="translate(183.74 -46.196)">
    <path d="m231.53 118.44c0.48158 20.502-18.675 51.212-19.999 58.181-2.212 11.648 3.7438 21.673-1.664 22.739-12.022 2.3696-38.781-25.73-42.949-80.92s7.3172-98.884 41.756-95.159c26.779 2.8959 21.554 39.717 22.856 95.159z"/>
    <path d="m210.93 200c1.3509-3.3336-3.865 2.1259-7.6426 0.97582-5.0446-1.5358-11.371-8.6517-13.408-12.16-6.1223-10.544-6.404-5.8452-9.7065-17.115-2.6248 13.134 1.396 27.454 15.212 34.324 6.3939 3.1793 13.527-1.0451 15.546-6.0252z"/>
    <path d="m231.53 116.34c0.48158 20.502-18.675 51.212-19.999 58.181-2.212 11.648 3.7438 21.673-1.664 22.739-12.022 2.3696-38.781-25.73-42.949-80.92s7.3172-98.884 41.756-95.159c26.779 2.8959 21.554 39.717 22.856 95.159z" stroke="#070e23" stroke-opacity=".40217"/>
   </g>
   <g transform="matrix(1 0 0 -1 183.74 832.34)">
    <path d="m231.53 118.44c0.48158 20.502-18.675 51.212-19.999 58.181-2.212 11.648 3.7438 21.673-1.664 22.739-12.022 2.3696-38.781-25.73-42.949-80.92s7.3172-98.884 41.756-95.159c26.779 2.8959 21.554 39.717 22.856 95.159z"/>
    <path d="m210.93 200c1.3509-3.3336-3.865 2.1259-7.6426 0.97582-5.0446-1.5358-11.371-8.6517-13.408-12.16-6.1223-10.544-6.404-5.8452-9.7065-17.115-2.6248 13.134 1.396 27.454 15.212 34.324 6.3939 3.1793 13.527-1.0451 15.546-6.0252z"/>
    <path d="m231.53 116.34c0.48158 20.502-18.675 51.212-19.999 58.181-2.212 11.648 3.7438 21.673-1.664 22.739-12.022 2.3696-38.781-25.73-42.949-80.92s7.3172-98.884 41.756-95.159c26.779 2.8959 21.554 39.717 22.856 95.159z" stroke="#070e23" stroke-opacity=".40217"/>
   </g>
  </g>
  <g transform="matrix(.13119 .92849 -.92007 .14587 -101.85 973.92)">
   <path d="m-367.56 109.51h11.45a8.5608 8.5608 0 0 1 8.5608 8.5608v589.58a8.5608 8.5608 0 0 1 -8.5608 8.5608h-11.45a8.5608 8.5608 0 0 1 -8.5608 -8.5608v-589.58a8.5608 8.5608 0 0 1 8.5608 -8.5608" fill="#808000" stroke="#9f8000" stroke-opacity=".82609" stroke-width="2.1818"/>
   <path d="m-367.56 104.83h11.45a8.5608 8.5608 0 0 1 8.5608 8.5608v589.58a8.5608 8.5608 0 0 1 -8.5608 8.5608h-11.45a8.5608 8.5608 0 0 1 -8.5608 -8.5608v-589.58a8.5608 8.5608 0 0 1 8.5608 -8.5608" fill="url(#c)" stroke="#9f8000" stroke-opacity=".82609" stroke-width="2.1818"/>
   <path transform="translate(-83.953 -12.843)" d="m-273.21 423.05c0 119.29-2.0909 216-4.6702 216s-4.6702-96.705-4.6702-216 2.0909-216 4.6702-216 4.6702 96.705 4.6702 216z" fill="#ececec" opacity=".21659"/>
  </g>
  <g transform="matrix(.13119 .92849 -.92007 .14587 -147.97 451.8)">
   <path d="m231.53 118.44c0.48158 20.502-18.675 51.212-19.999 58.181-2.212 11.648 3.7438 21.673-1.664 22.739-12.022 2.3696-38.781-25.73-42.949-80.92s7.3172-98.884 41.756-95.159c26.779 2.8959 21.554 39.717 22.856 95.159z" fill="#ccc"/>
   <path d="m210.93 200c1.3509-3.3336-3.865 2.1259-7.6426 0.97582-5.0446-1.5358-11.371-8.6517-13.408-12.16-6.1223-10.544-6.404-5.8452-9.7065-17.115-2.6248 13.134 1.396 27.454 15.212 34.324 6.3939 3.1793 13.527-1.0451 15.546-6.0252z" fill="url(#b)"/>
   <path d="m231.53 116.34c0.48158 20.502-18.675 51.212-19.999 58.181-2.212 11.648 3.7438 21.673-1.664 22.739-12.022 2.3696-38.781-25.73-42.949-80.92s7.3172-98.884 41.756-95.159c26.779 2.8959 21.554 39.717 22.856 95.159z" fill="url(#a)" stroke="#070e23" stroke-opacity=".40217"/>
  </g>
  <g transform="matrix(.13119 .92849 .92007 -.14587 -956.28 579.96)">
   <path d="m231.53 118.44c0.48158 20.502-18.675 51.212-19.999 58.181-2.212 11.648 3.7438 21.673-1.664 22.739-12.022 2.3696-38.781-25.73-42.949-80.92s7.3172-98.884 41.756-95.159c26.779 2.8959 21.554 39.717 22.856 95.159z" fill="#ccc"/>
   <path d="m210.93 200c1.3509-3.3336-3.865 2.1259-7.6426 0.97582-5.0446-1.5358-11.371-8.6517-13.408-12.16-6.1223-10.544-6.404-5.8452-9.7065-17.115-2.6248 13.134 1.396 27.454 15.212 34.324 6.3939 3.1793 13.527-1.0451 15.546-6.0252z" fill="url(#b)"/>
   <path d="m231.53 116.34c0.48158 20.502-18.675 51.212-19.999 58.181-2.212 11.648 3.7438 21.673-1.664 22.739-12.022 2.3696-38.781-25.73-42.949-80.92s7.3172-98.884 41.756-95.159c26.779 2.8959 21.554 39.717 22.856 95.159z" fill="url(#a)" stroke="#070e23" stroke-opacity=".40217"/>
  </g>
 </g>
</svg>
