<?xml version="1.0" encoding="UTF-8"?>
<svg viewBox="0 0 640 480" xmlns="http://www.w3.org/2000/svg">
 <g fill="#ff7f00">
  <path d="m221.09 59.79c3.173-0.661 6.43-0.217 9.641-0.191 2.77 0.042 5.589-0.491 8.316 0.199 2.617 0.545 4.678 2.237 6.816 3.645 0.92 0.608 1.867 1.438 1.779 2.596-1.51 0.208-3.043 0.104-4.563 0.112h-26.98c-1.523-0.006004-3.059 0.090996-4.573-0.112-0.013-1.387 1.469-1.975 2.586-2.496 2.44-1.069 4.319-3.111 6.978-3.753z"/>
  <path d="m210.91 69.17c9.959-0.134 19.93-0.017998 29.896-0.055 2.688 0.046005 5.389-0.101 8.07 0.067001-0.095993 1.722-1.767 2.722-3.003 3.764-1.324 0.975-2.389 2.205-3.567 3.324-0.365 0.408-0.97899 0.32101-1.479 0.36-6.723-0.036995-13.449-0.015999-20.172-0.018997-1.223-0.024002-2.474 0.138-3.677-0.124-2.118-2.36-4.559-4.533-6.068-7.317z"/>
  <path d="m198.25 88.36c0.933-0.119 1.883-0.119 2.815 0.002998 0.172 3.627 0.009003 7.266 0.065002 10.896-0.052002 2.207 0.114 4.417-0.068008 6.616-0.937 0.122-1.893 0.119-2.829 0.013-0.267-1.752-0.042007-3.525-0.16899-5.288-0.15001-2.273-0.07901-4.552 0.028992-6.826 0.098999-1.802-0.15201-3.622 0.157-5.414z"/>
  <path d="m203.88 88.388c1.205-0.158 2.44-0.158 3.646 0.005997 0.028 5.817 0.022003 11.645 0.001999 17.461-1.209 0.147-2.441 0.147-3.646 0-0.037994-5.82-0.037994-11.646-0.001984-17.467z"/>
  <path d="m210.26 88.358c1.163-0.12602 2.347-0.13 3.511-0.001999 0.202 4.44 0.022003 8.898 0.082001 13.344-0.016998 1.396 0.091003 2.797-0.087006 4.187-1.159 0.121-2.341 0.116-3.5 0-0.106-0.579-0.133-1.164-0.13699-1.746 0.018982-3.962 0.018982-7.926 0.01799-11.888 0.005005-1.299-0.105-2.606 0.11301-3.895z"/>
  <path d="m216.56 88.388c1.203-0.158 2.436-0.158 3.641 0 0.039001 5.82 0.047012 11.649 0 17.467-1.205 0.147-2.435 0.147-3.641 0-0.044998-5.82-0.039001-11.646 0-17.467z"/>
  <path d="m222.99 88.349c1.122-0.134 2.27-0.125 3.391 0.039001 0.030991 5.817 0.035004 11.644-0.003998 17.461-1.117 0.149-2.262 0.157-3.385 0.042-0.211-3.421-0.020996-6.858-0.085007-10.288 0.059006-2.415-0.12001-4.844 0.082993-7.254z"/>
  <path d="m228.86 88.364c1.115-0.13 2.253-0.128 3.37 0.023003 0.043991 5.82 0.041992 11.649 0.002991 17.47-1.116 0.138-2.251 0.144-3.366 0.020996-0.168-3.419-0.013-6.851-0.067001-10.275 0.052994-2.412-0.105-4.831 0.059998-7.239z"/>
  <path d="m234.76 88.395c1.34-0.16301 2.709-0.17 4.056-0.032997 0.396 3.927-0.095001 7.876 0.031998 11.814 0.005997 1.901 0.27901 3.818-0.031998 5.708-1.351 0.12199-2.716 0.116-4.058-0.031006-0.028-5.818-0.031998-11.642 0.001999-17.458z"/>
  <path d="m241.47 88.351c0.955-0.11901 1.93-0.122 2.89 0 0.12601 0.683 0.144 1.377 0.146 2.069-0.024994 3.761-0.009995 7.52-0.011993 11.277-0.016006 1.396 0.10599 2.806-0.123 4.188-0.963 0.11601-1.94 0.11301-2.9 0-0.125-0.67699-0.13699-1.368-0.13699-2.054 0.039001-3.76 0.011993-7.52 0.020996-11.281 0.011002-1.395-0.118-2.809 0.115-4.199z"/>
  <path d="m247.01 88.358c1.063-0.12602 2.151-0.124 3.22 0 0.12199 0.679 0.134 1.374 0.134 2.064-0.042007 3.761-0.007996 7.518-0.020996 11.277-0.018005 1.393 0.11899 2.8-0.11801 4.187-1.067 0.116-2.153 0.12-3.223 0.002998-0.125-0.678-0.14002-1.368-0.143-2.057 0.031998-3.757 0.014008-7.518 0.018005-11.275 0.010986-1.399-0.10501-2.812 0.133-4.199z"/>
  <path d="m252.9 88.358c1.23-0.13 2.482-0.124 3.713 0.041 0.027985 5.814 0.032013 11.638 0 17.454-1.227 0.146-2.472 0.15699-3.697 0.031006-0.246-1.688-0.16202-3.4-0.16802-5.098 0.061996-4.143-0.020004-8.292 0.15199-12.428z"/>
  <path d="m259.09 88.364c0.918-0.12 1.854-0.12 2.769-0.001999 0.091003 2.212-0.049011 4.429 0.088989 6.646 0.31702 3.608 0.19699 7.234 0.186 10.849-1.008 0.13702-2.033 0.14301-3.041 0.027016-0.17203-3.828-0.012024-7.667-0.068024-11.498 0.050018-2.009-0.10998-4.021 0.065002-6.022z"/>
 </g>
 <g fill="#0f0">
  <path d="m218.17 79.579c7.735-0.024002 15.482-0.021004 23.217-0.003006 0.271 1.225 0.259 2.501 0.024994 3.73-7.746 0.036003-15.505 0.045998-23.25-0.002998-0.133-1.239-0.13699-2.49 0.007996-3.724z"/>
  <path d="m196.73 110.97c3.838-0.455 7.716-0.080002 11.573-0.187 2.385-0.056999 4.774-0.083 7.159 0.091003 1.738 0.146 3.48-0.171 5.216 0.029999 3.339 0.381 6.698 0.07 10.046 0.168 5.854 0.228 11.708-0.19 17.562 0.057999 5.201-0.053001 10.4-0.113 15.601 0.005989 2.798-0.25699 5.581 0.34101 8.229 1.136 1.721 0.716 3.521 1.473 4.836 2.776 2.123 2.463 3.646 5.384 4.239 8.515 0.38696 2.274 1.025 4.532 1.012 6.848-0.396 5.528-0.74597 11.083-1.93 16.522-1.429 6.674-3.769 13.192-7.073 19.258-2.49 4.047-4.395 8.436-5.357 13.031-0.78998 3.34-0.93799 6.768-1.178 10.168-0.14603 1.237-0.27203 2.483-0.20703 3.732 0.16803 2.819-0.36697 5.659 0.117 8.468 0.824 4.657 2.551 9.118 4.444 13.476 5.418 12.266 10.671 24.598 15.35 37.131 2.426 6.348 4.901 12.684 7.275 19.048 3.742 10.444 7.729 20.815 11.111 31.374 2.835 8.662 5.348 17.421 7.402 26.279 1.484 6.092 2.43 12.282 3.308 18.473 0.26199 2.415 0.87598 4.807 0.81299 7.249 0.17401 2.837 0.067017 5.679 0.072998 8.518-0.49298 5.6-1.16 11.268-3.281 16.563-1.935 4.998-4.83 9.634-8.402 13.756-1.805 2.346-4.156 4.257-6.614 5.979-2.374 1.313-4.554 2.9-7 4.1-9.646 4.793-20.616 6.591-31.41 7.198-2.266 0.19299-4.506 0.64499-6.791 0.59698-2.609-0.074982-5.201 0.33102-7.812 0.27402-10.729-0.022003-21.463 0.02301-32.19-0.018005-3.45-0.306-6.921-0.21799-10.366-0.54501-10.522-0.67697-21.178-2.118-30.904-6.141-2.857-1.029-5.405-2.634-8.067-4.02-3.006-1.868-6.001-3.929-8.048-6.762-0.56299-0.78201-1.343-1.391-1.979-2.111-1.685-1.998-2.935-4.278-3.972-6.625-3.94-7.529-5.081-16.061-5.011-24.362-0.10901-1.622 0.226-3.241 0.071991-4.859-0.252-3.002 0.098007-6.02 0.56-8.982 0.53801-1.747 0.85001-3.535 1.03-5.342 1.874-12.971 5.433-25.671 9.385-38.204 2.509-7.982 5.159-15.927 8.104-23.779 3.942-11.367 8.197-22.64 12.656-33.838 2.214-5.761 4.717-11.416 7.094-17.117 2.008-4.758 4.281-9.416 6.352-14.15 2.216-5.15 4.057-10.553 4.321-16.138-0.323-3.455-0.076004-6.924-0.090988-10.382-0.67902-5.549-1.893-11.077-4.011-16.312-1.266-3.117-3.376-5.838-4.896-8.836-2.808-5.524-4.94-11.417-5.672-17.521-0.306-2.943-1.093-5.843-1.072-8.813 0.065002-1.737-0.41701-3.435-0.38301-5.168 0.022003-1.761-0.03299-3.541 0.377-5.272 0.479-2.138 0.796-4.326 1.664-6.369 0.573-1.389 1.629-2.526 2.428-3.8 0.59599-0.929 1.315-1.856 2.379-2.345 3.633-1.916 7.86-2.328 11.929-2.824m6.828 9.744c-1.47 0.162-3.038 0.073013-4.374 0.75501-1.65 0.817-3.317 1.737-4.466 3.154-1.918 2.312-2.673 5.281-2.991 8.143-0.095001 3.661 0.01001 7.323-0.041992 10.983-0.050003 2.069 0.36099 4.107 0.56599 6.162 0.442 6.167 1.413 12.421 4.181 18.088 3.382 6.666 5.806 13.805 6.629 21.164 0.57201 3.02 0.276 6.089 0.334 9.136 0.003006 1.222 0.068008 2.447-0.003998 3.671-1.378 12.114-6.951 23.26-10.578 34.838-4.521 13.807-8.956 27.646-12.8 41.631-0.52901 2.137-1.279 4.228-1.612 6.406-0.18901 1.387-0.783 2.676-1.251 3.995-4.587 16.481-8.793 33.16-10.265 50.185-0.21901 3.474-0.699 6.935-0.547 10.422-0.194 8.442 0.439 17.006 3.167 25.103 1.508 3.864 3.361 7.729 6.368 10.784 2.669 2.482 5.25 5.113 8.475 6.99 5.019 2.893 10.729 4.612 16.516 5.543 2.074 0.37799 4.222 0.28299 6.268 0.841 2.594 0.741 5.322 0.198 7.971 0.5 1.732 0.198 3.482 0.24799 5.227 0.20801 5.526 0.015991 11.053-0.018005 16.58-0.007019 3.059-0.048981 6.129 0.17401 9.174-0.18399 9.419-0.47 19.161-1.563 27.561-5.896 4.737-2.146 7.857-6.246 11.452-9.677 1.38-1.407 2.353-3.107 3.366-4.75 2.847-5.078 4.705-10.647 5.342-16.353 0.42001-2.426 0.20102-4.895 0.586-7.319 0.40799-2.864 0.55502-5.773 0.20602-8.65-0.11603-0.97601-0.15601-1.957-0.17304-2.934-0.015991-2.251-0.551-4.458-0.69699-6.699-2.787-24.068-9.909-47.418-16.868-70.653-3.645-12.174-7.359-24.337-11.615-36.337-1.16-3.465-2.162-6.98-3.57-10.366-0.672-1.67-1.133-3.403-1.731-5.099-2.536-7.533-3.685-15.58-2.418-23.437 0.43298-2.426-0.15698-4.931 0.56-7.319 0.68701-2.398 1.196-4.844 2.092-7.188 1.072-2.974 2.558-5.798 3.652-8.765 2.178-6.094 3.769-12.405 4.24-18.829 0.15198-2.977 1.124-5.866 1.051-8.856 0.11301-2.568-0.59601-5.077-0.703-7.629-0.146-2.826-1.162-5.594-2.891-7.911-1.258-1.582-2.919-3.026-5.01-3.525-2.604-0.678-5.334-0.41099-7.999-0.457-15.493 0.024002-30.99-0.008995-46.486-0.005997-0.83299 0.013-1.657 0.073997-2.473 0.144z"/>
 </g>
 <g opacity=".95">
  <path d="m203.56 120.71c0.81702-0.07 1.641-0.131 2.465-0.14899 15.497-0.002007 30.992 0.030998 46.484 0.005997 2.664 0.045998 5.396-0.223 8 0.458 2.092 0.5 3.753 1.944 5.01 3.525 1.729 2.316 2.743 5.086 2.893 7.911 0.10599 2.553 0.814 5.061 0.69998 7.629 0.075012 2.989-0.896 5.879-1.05 8.855-0.47299 6.423-2.063 12.734-4.238 18.83-1.095 2.965-2.582 5.79-3.654 8.765-0.89502 2.344-1.404 4.791-2.09 7.188-0.71902 2.39-0.12701 4.894-0.561 7.32-1.266 7.855-0.11801 15.903 2.418 23.438 0.60001 1.693 1.059 3.428 1.732 5.098 1.406 3.387 2.412 6.9 3.568 10.367 4.256 11.999 7.973 24.161 11.616 36.336 6.96 23.234 14.081 46.585 16.867 70.653 0.146 2.241 0.68298 4.448 0.69702 6.7 0.019989 0.97699 0.057983 1.957 0.17398 2.934 0.349 2.876 0.20102 5.786-0.207 8.65-0.38501 2.426-0.16602 4.895-0.586 7.318-0.63699 5.705-2.495 11.274-5.34 16.353-1.017 1.644-1.987 3.344-3.367 4.751-3.596 3.43-6.718 7.531-11.452 9.677-8.398 4.334-18.143 5.428-27.56 5.896-3.047 0.35602-6.117 0.13602-9.176 0.18402-5.525-0.01001-11.053 0.020996-16.578 0.007996-1.748 0.039001-3.494-0.01001-5.228-0.20801-2.648-0.29999-5.376 0.241-7.971-0.5-2.044-0.55798-4.192-0.46399-6.268-0.84198-5.785-0.93002-11.498-2.651-16.516-5.542-3.226-1.878-5.807-4.506-8.475-6.991-3.006-3.057-4.86-6.921-6.369-10.783-2.727-8.097-3.361-16.659-3.167-25.103-0.15201-3.487 0.329-6.948 0.546-10.422 1.473-17.023 5.679-33.699 10.266-50.185 0.46899-1.319 1.063-2.608 1.251-3.996 0.332-2.178 1.083-4.27 1.612-6.405 3.846-13.986 8.281-27.824 12.802-41.631 3.627-11.578 9.199-22.725 10.578-34.838 0.070984-1.226 0.006989-2.45 0.002991-3.671-0.057983-3.047 0.23801-6.116-0.33398-9.136-0.823-7.359-3.248-14.499-6.629-21.164-2.767-5.668-3.738-11.921-4.181-18.088-0.20502-2.054-0.61401-4.093-0.56601-6.162 0.053009-3.661-0.052002-7.322 0.041992-10.983 0.319-2.861 1.074-5.83 2.991-8.143 1.147-1.417 2.815-2.336 4.466-3.154 1.345-0.67998 2.911-0.59199 4.382-0.75399m78.241 264.79c-0.44898 0.26092 0.020996 0.98492 0.466 0.655 0.44601-0.27402-0.023987-0.99301-0.466-0.655z" fill="#afa" stroke-width="0"/>
 </g>
</svg>
