<?xml version='1.0' encoding='utf-8'?>
<svg xmlns="http://www.w3.org/2000/svg" viewBox="0 0 1352.01 3600"> <defs> <style> .cls-1 { fill: #cc7729; } .cls-2, .cls-5 { fill: #fbc32b; } .cls-2 { stroke: #cc7729; stroke-width: 18.01px; } .cls-13, .cls-18, .cls-2, .cls-6 { stroke-linecap: square; } .cls-3 { fill: #fece0d; fill-opacity: 0.68; } .cls-13, .cls-4 { fill: #fcf8c4; } .cls-6 { fill: none; stroke: #ffd165; stroke-width: 7.51px; } .cls-7 { fill: #1d458c; } .cls-8 { fill: #1457a0; } .cls-9 { fill: #b8cde8; } .cls-10 { fill: #fdca17; } .cls-11 { fill: #f8971d; } .cls-12 { fill: #dd1f26; } .cls-13 { stroke: #fcf8c4; stroke-width: 9px; } .cls-14 { fill: #ffd536; } .cls-15 { fill: #fce29b; } .cls-16 { fill: #ffcb19; } .cls-17 { fill: #fcebbd; } .cls-18 { fill: #fcb116; fill-opacity: 0.51; stroke: #cc7629; stroke-width: 16.5px; } </style> </defs> <title>Baby Shampoo</title> <g id="Layer_2" data-name="Layer 2"> <g id="Baby_Shampoo" data-name="Baby Shampoo"> <g> <path class="cls-1" d="M415.76,522.23c-409,0-577.65,2688.45-221.46,3004,0,0,246.1,73.79,487.88,73.79s476.3-73.79,476.3-73.79c339.12-336.72,212.18-3004-222-3004L682.18,112Z"/> <path class="cls-2" d="M901.19,608.49c517.38,0,535.06,2574.85,232.81,2911.14,0,0-216.66,64.7-458.44,64.7s-467.16-64.7-467.16-64.7C-76.77,3182.91-56.33,612.81,450.92,608.49L675.56,168Z"/> <path class="cls-3" d="M867.78,598.68c452.85-64.32,496.34,2594.22,194.1,2930.51,0,0-162.15,52.85-403.93,52.85s-365.24-52.85-365.24-52.85C7.53,3192.47,67.9,594.53,491.68,598.68h376.1Z"/> </g> <path class="cls-4" d="M1125.56,2405.45c0-618.37-328.52-1372.58-434.31-1372.58S230.87,1769.11,230.87,2405.45c0,368.3,113.35,742.09,460.38,742.09S1125.56,2763.05,1125.56,2405.45Z"/> <path class="cls-5" d="M822.35,2465.32c0-139.44-112.12-332.66-139.94-332.66s-148.34,189.16-148.34,332.66c0,83,36.53,167.34,148.34,167.34S822.35,2546,822.35,2465.32Z"/> <path class="cls-6" d="M543.87,3021.62v65.29h21.76v-53.37c.64-1.84,4-3.21,8-3.21s7.39,1.45,6.48,3.21v55.19h16.33v-53.62c0-1.85,3.26-3.22,7.25-3.22s7.25,1.45,7.25,3.22v53.62h14.51v-53.62c0-1.85,3.27-3.22,7.26-3.22,4.17,0,7.25,1.45,7.25,3.22v53.62l14.51-1.82v-53.62c0-1.84,3.26-3.21,7.25-3.21,4.18,0,7.26,1.44,7.26,3.21v53.62h23.58v-65.29Zm183.17,0v65.29h12.7v-53.37c.26-1.84,2.27-3.21,4.71-3.21s4.46,1.45,4.36,3.21v55.19h9.06v-53.62c0-1.85,2-3.22,4.54-3.22s4.53,1.45,4.53,3.22v53.62H776v-53.62c0-1.85,2-3.22,4.53-3.22s4.54,1.45,4.54,3.22v53.62l9.07-1.82v-53.62c0-1.84,2-3.21,4.53-3.21s4.53,1.44,4.53,3.21v53.62h12.7v-65.29Z"/> <g id="Layer_2-2" data-name="Layer 2"> <g> <path class="cls-7" d="M430.42,2906c14.12-13.2,33.63-20.31,51.23-13.49,36.43-24.83,43.26-20.89,56.38-12.75,16,10.18,34,33,53.47,9.18-27.34,7.8-35.11-42.59-85.68-30.57A139.52,139.52,0,0,0,447,2888.3a131,131,0,0,0-18.7,19.84C429.2,2907.19,429.66,2906.71,430.42,2906Z"/> <path class="cls-8" d="M420.29,2915.19c15-12.12,35-17.78,52.09-9.68,18,8.37,32.64,14.62,51.37-.06-8.86-1.56-8.63-16.18-21-19.95,7.82-2.07,14.34,2.36,26.83,11.44,15.24,11.34,41.07,14.52,62.29-7.81C564,2894.9,550.31,2865,499,2873.24a139.6,139.6,0,0,0-60.89,25.48A130.49,130.49,0,0,0,418,2917.13C419,2916.25,419.48,2915.81,420.29,2915.19Z"/> <path class="cls-9" d="M578.39,2889.21c-12.53-1.59-39.88-20-68.56-18.13-44.49,2.89-87,32-106.62,61.61,0,0,.36-.71,10.44-10.76,9.8-9.77,34.14-41.63,95.44-48.76,30.69-3.57,59.51,20,77.33,17S584,2889.91,578.39,2889.21Z"/> </g> <g> <path class="cls-7" d="M670.81,2905.3c14.12-13.2,33.63-20.32,51.23-13.5,36.43-24.82,43.26-20.89,56.38-12.75,16,10.18,34,33,53.47,9.18-27.34,7.8-35.11-42.58-85.68-30.56a139.52,139.52,0,0,0-58.85,29.89,131,131,0,0,0-18.7,19.84C669.58,2906.45,670.05,2906,670.81,2905.3Z"/> <path class="cls-8" d="M660.68,2914.46c15.05-12.13,35-17.79,52.09-9.69,18,8.37,32.64,14.62,51.37-.06-8.86-1.55-8.63-16.18-21-19.95,7.82-2.07,14.34,2.36,26.83,11.44,15.24,11.34,41.07,14.52,62.29-7.8-27.84,5.76-41.52-24.16-92.84-15.89A139.48,139.48,0,0,0,678.49,2898a129.38,129.38,0,0,0-20.11,18.41C659.37,2915.51,659.87,2915.07,660.68,2914.46Z"/> <path class="cls-9" d="M818.78,2888.47c-12.53-1.58-39.88-20-68.56-18.12-44.49,2.88-87,32-106.62,61.61,0,0,.36-.72,10.44-10.77,9.8-9.77,34.14-41.63,95.44-48.76,30.69-3.57,59.51,20,77.33,17.06S824.34,2889.17,818.78,2888.47Z"/> </g> <g> <path class="cls-7" d="M552.55,2929.35c15.43,11.64,35.59,16.66,52.37,8,38.84,20.86,45.21,16.23,57.41,6.76,14.87-11.82,30.3-36.4,52.21-14.76-28-4.88-30.44,46-82,39.41a139.68,139.68,0,0,1-61.66-23.54,129.65,129.65,0,0,1-20.68-17.77C551.22,2928.34,551.73,2928.76,552.55,2929.35Z"/> <path class="cls-8" d="M541.52,2921.31c16.24,10.47,36.71,14,52.82,4.15,17-10.22,30.92-18,51.09-5.34-8.64,2.48-6.88,17-18.82,22.05,8,1.24,14-3.85,25.47-14.2,14-12.87,39.32-18.76,62.77,1.21-28.29-2.8-38.75,28.39-90.66,25.57A139.7,139.7,0,0,1,561,2935.82a131,131,0,0,1-21.93-16.2C540.11,2920.39,540.65,2920.78,541.52,2921.31Z"/> <path class="cls-9" d="M701.47,2930.52c-12.29,2.9-37.55,24.07-66.26,25.24-44.56,1.81-89.9-22.63-112.51-50.06,0,0,.43.68,11.5,9.6,10.78,8.69,38.33,37.82,100,38.46,30.89.32,57.07-26.17,75.11-25.09S706.93,2929.24,701.47,2930.52Z"/> </g> <g> <path class="cls-7" d="M789.12,2928c15.43,11.64,35.59,16.67,52.38,8,38.83,20.86,45.2,16.23,57.4,6.76,14.87-11.82,30.3-36.4,52.21-14.76-28-4.88-30.44,46.05-82,39.41a139.56,139.56,0,0,1-61.67-23.54,130.44,130.44,0,0,1-20.68-17.76C787.79,2927,788.3,2927.42,789.12,2928Z"/> <path class="cls-8" d="M778.09,2920c16.24,10.48,36.71,14,52.82,4.15,17-10.22,30.92-18,51.09-5.34-8.64,2.48-6.88,17-18.82,22,8,1.24,14-3.85,25.48-14.2,14-12.87,39.31-18.75,62.76,1.22-28.29-2.81-38.75,28.38-90.66,25.56a139.74,139.74,0,0,1-63.23-18.93,130.42,130.42,0,0,1-21.93-16.2C776.68,2919.05,777.22,2919.44,778.09,2920Z"/> <path class="cls-9" d="M938.05,2929.19c-12.3,2.89-37.56,24.06-66.27,25.23-44.56,1.81-89.9-22.63-112.51-50.06,0,0,.43.68,11.51,9.61,10.77,8.68,38.33,37.81,100,38.45,30.89.33,57.07-26.17,75.11-25.09S943.5,2927.9,938.05,2929.19Z"/> </g> </g> <path class="cls-10" d="M364.33,2818.5h643.82v-10.88H364.33Z"/> <path class="cls-11" d="M672.94,1393.9C672.94,1205.19,538.36,975,495,975s-188.6,224.68-188.6,418.88c0,112.39,46.43,226.47,188.6,226.47S672.94,1503,672.94,1393.9Z"/> <path class="cls-12" d="M653.21,1388.26c0-188.71-134.58-418.88-177.92-418.88s-188.6,224.68-188.6,418.88c0,112.39,46.44,226.46,188.6,226.46S653.21,1497.39,653.21,1388.26Z"/> <path class="cls-13" d="M551.36,1441.91l-.75-.65-64.81-55.72,66.26-57,.24-.2c6.55,20.78,10,39.77,10,56.56,0,22.06-3.51,41.5-11,57Zm-3.91,7.19c-.42.69-.86,1.37-1.3,2-13,19.61-33.78,30.25-63.8,30.25-30.29,0-52.26-10.55-66.46-29.88-.87-1.19-1.72-2.42-2.53-3.68l.58-.5,65.73-56.51,65.72,56.51,2.06,1.77Zm-138.17-8.32c-8-15.5-12-34.72-12-55.86,0-15.53,3-32.7,8.63-51.24.5-1.63,1-3.27,1.55-4.92l66,56.78-64.24,55.24Zm1-120.18c7.61-21.19,18.22-43.43,31.13-66.12,9.7-17.06,20.09-33.34,30.49-48.27,3.64-5.23,7-9.91,10-14,1.06-1.42,2-2.66,2.8-3.72l.73-1,.24-.3-6.85-.14.23.32c.2.27.43.6.69,1l2.65,3.79c2.85,4.15,6,8.92,9.47,14.23,9.81,15.17,19.63,31.66,28.78,48.86,11.89,22.33,21.73,44.15,28.89,64.85l-2.74,2.35-67.17,57.77-67.18-57.77-2.2-1.89Zm160.61,64.32c0-17.78-3.64-37.63-10.44-59.21-7.46-23.65-18.51-48.74-32.2-74.45-9.27-17.43-19.21-34.12-29.14-49.49-3.48-5.38-6.72-10.22-9.62-14.43-1-1.48-1.92-2.78-2.71-3.88l-.71-1-.26-.36-3.34-4.61L479,1182l-.27.35-.76,1q-1.24,1.64-2.87,3.81c-3.08,4.14-6.51,8.89-10.2,14.2-10.54,15.13-21.07,31.63-30.91,48.93-15.87,27.92-28.37,55.22-36.22,80.94-5.88,19.29-9,37.29-9,53.74,0,28,6.63,53.14,20.24,71.67,15.86,21.58,40.41,33.38,73.37,33.38s56.35-12,70.95-34.1C565.4,1437.59,570.9,1413.16,570.9,1384.92Z"/> <g id="Layer_2_copy" data-name="Layer 2 copy"> <g> <path class="cls-7" d="M388.42,1795.92c16.51-15.43,39.34-23.75,59.92-15.78,42.6-29,50.58-24.42,65.94-14.91C533,1777.14,554,1803.83,576.8,1776c-32,9.12-41.06-49.81-100.2-35.75a163.17,163.17,0,0,0-68.82,35,151.67,151.67,0,0,0-21.86,23.2C387,1797.27,387.53,1796.71,388.42,1795.92Z"/> <path class="cls-8" d="M376.57,1806.63c17.61-14.17,41-20.79,60.92-11.32,21.09,9.79,38.18,17.1,60.09-.07-10.36-1.82-10.1-18.92-24.61-23.33,9.15-2.42,16.77,2.76,31.38,13.38,17.81,13.26,48,17,72.84-9.13-32.56,6.74-48.56-28.25-108.57-18.58a163.25,163.25,0,0,0-71.21,29.79,152.22,152.22,0,0,0-23.52,21.54C375.05,1807.87,375.63,1807.36,376.57,1806.63Z"/> <path class="cls-9" d="M561.47,1776.25c-14.65-1.86-46.64-23.37-80.17-21.2-52,3.37-101.77,37.37-124.69,72,0,0,.41-.84,12.2-12.58,11.47-11.43,39.93-48.69,111.62-57,35.89-4.18,69.59,23.42,90.44,19.94S568,1777.07,561.47,1776.25Z"/> </g> <g> <path class="cls-7" d="M669.55,1795.06c16.51-15.43,39.34-23.75,59.92-15.78,42.6-29,50.58-24.43,65.93-14.91,18.75,11.91,39.71,38.6,62.53,10.74-32,9.11-41.06-49.81-100.2-35.75a163.17,163.17,0,0,0-68.82,35,152.61,152.61,0,0,0-21.87,23.2C668.12,1796.41,668.66,1795.85,669.55,1795.06Z"/> <path class="cls-8" d="M657.7,1805.77c17.61-14.18,41-20.79,60.92-11.32,21.09,9.79,38.18,17.09,60.09-.07-10.37-1.82-10.1-18.92-24.61-23.33,9.15-2.42,16.77,2.76,31.37,13.38,17.82,13.25,48,17,72.85-9.13-32.56,6.74-48.56-28.25-108.58-18.59a163.37,163.37,0,0,0-71.2,29.8A152.42,152.42,0,0,0,655,1808C656.18,1807,656.76,1806.5,657.7,1805.77Z"/> <path class="cls-9" d="M842.6,1775.39c-14.65-1.86-46.64-23.37-80.17-21.2-52,3.37-101.77,37.37-124.69,72,0,0,.41-.84,12.2-12.58,11.47-11.43,39.93-48.69,111.62-57,35.89-4.18,69.59,23.42,90.44,19.94S849.1,1776.21,842.6,1775.39Z"/> </g> <g> <path class="cls-7" d="M531.26,1823.19c18,13.62,41.61,19.49,61.24,9.4,45.42,24.39,52.87,19,67.14,7.89,17.39-13.81,35.43-42.56,61.05-17.25-32.75-5.7-35.59,53.85-95.88,46.09a163.33,163.33,0,0,1-72.12-27.53A152.49,152.49,0,0,1,528.51,1821C529.69,1822,530.29,1822.5,531.26,1823.19Z"/> <path class="cls-8" d="M518.35,1813.79c19,12.25,42.94,16.37,61.77,4.86,19.94-12,36.17-21,59.76-6.25-10.11,2.89-8,19.88-22,25.79,9.35,1.44,16.38-4.51,29.8-16.61,16.32-15.06,46-21.94,73.39,1.42-33.08-3.28-45.31,33.2-106,29.9a163.27,163.27,0,0,1-73.95-22.15,152.34,152.34,0,0,1-25.65-18.94C516.7,1812.72,517.33,1813.17,518.35,1813.79Z"/> <path class="cls-9" d="M705.42,1824.57c-14.38,3.38-43.92,28.14-77.5,29.51-52.11,2.11-105.13-26.47-131.58-58.54,0,0,.5.79,13.46,11.23,12.6,10.16,44.82,44.22,117,45,36.13.38,66.75-30.61,87.84-29.34S711.8,1823.06,705.42,1824.57Z"/> </g> <g> <path class="cls-7" d="M807.92,1821.63c18,13.61,41.62,19.49,61.25,9.39,45.42,24.39,52.87,19,67.13,7.9,17.39-13.82,35.43-42.57,61.06-17.26-32.76-5.7-35.6,53.85-95.89,46.09a163.26,163.26,0,0,1-72.12-27.53,152.13,152.13,0,0,1-24.18-20.77C806.36,1820.44,807,1820.94,807.92,1821.63Z"/> <path class="cls-8" d="M795,1812.22c19,12.25,42.94,16.37,61.77,4.86,19.94-11.95,36.17-21,59.76-6.25-10.11,2.9-8,19.88-22,25.79,9.36,1.45,16.39-4.51,29.8-16.6,16.33-15.06,46-21.94,73.4,1.41-33.09-3.28-45.32,33.2-106,29.9a163.32,163.32,0,0,1-74-22.14,152.76,152.76,0,0,1-25.64-18.94C793.37,1811.15,794,1811.61,795,1812.22Z"/> <path class="cls-9" d="M982.08,1823c-14.38,3.38-43.92,28.15-77.5,29.51-52.11,2.12-105.13-26.46-131.58-58.54,0,0,.51.79,13.46,11.23,12.61,10.16,44.83,44.22,117,45,36.13.37,66.74-30.61,87.84-29.35S988.46,1821.5,982.08,1823Z"/> </g> </g> <path class="cls-14" d="M418.74,516.28S548.86,537.93,679,538,939.23,516.7,939.23,516.7V46.82a43,43,0,0,0-43-43H461.75a43,43,0,0,0-43,43Z"/> <path class="cls-15" d="M541.47,93.05C569.4,121,794.4,121,822.32,93.05l31.24-69.27h-350Z"/> <path class="cls-16" d="M546.55,83.2c26.89,26.88,243.53,26.88,270.42,0l32.29-59.42H507.17Z"/> <path class="cls-17" d="M678.21,31.7c129.16,0,233.87-10.08,233.87-22.53S778.21.56,678.21.56,444.35-3.27,444.35,9.17,549.05,31.7,678.21,31.7Z"/> <path class="cls-18" d="M676,3580.2c199.32,0,461.16-52.76,461.16-68.93s-206.47-46-461.16-46-461.17,29.41-461.17,46S476.68,3580.2,676,3580.2Z"/> </g> </g> </svg>