<?xml version='1.0' encoding='utf-8'?>
<svg xmlns:xlink="http://www.w3.org/1999/xlink" xmlns="http://www.w3.org/2000/svg" width="104.53213mm" height="68.225471mm" viewBox="0 0 104.53213 68.225471" version="1.1" id="svg8"> <defs id="defs2"> <linearGradient id="linearGradient2027"> <stop style="stop-color:#502d16;stop-opacity:1" offset="0" id="stop2023"/> <stop id="stop2031" offset="0.51443857" style="stop-color:#a05a2c;stop-opacity:1"/> <stop style="stop-color:#c87137;stop-opacity:1" offset="1" id="stop2025"/> </linearGradient> <linearGradient id="linearGradient1707"> <stop style="stop-color:#502d16;stop-opacity:1" offset="0" id="stop1703"/> <stop style="stop-color:#a05a2c;stop-opacity:1" offset="1" id="stop1705"/> </linearGradient> <linearGradient id="linearGradient1695"> <stop style="stop-color:#28170b;stop-opacity:1" offset="0" id="stop1691"/> <stop style="stop-color:#c87137;stop-opacity:1" offset="1" id="stop1693"/> </linearGradient> <linearGradient id="linearGradient1050"> <stop style="stop-color:#502d16;stop-opacity:1" offset="0" id="stop1046"/> <stop style="stop-color:#a05a2c;stop-opacity:1" offset="1" id="stop1048"/> </linearGradient> <linearGradient xlink:href="#linearGradient1050" id="linearGradient1052" x1="115.28804" y1="51.514847" x2="110.5809" y2="51.385258" gradientUnits="userSpaceOnUse"/> <linearGradient xlink:href="#linearGradient1695" id="linearGradient1697" x1="97.219299" y1="30.933184" x2="91.873901" y2="58.194675" gradientUnits="userSpaceOnUse"/> <linearGradient xlink:href="#linearGradient1707" id="linearGradient1709" x1="93.132797" y1="92.850906" x2="84.25515" y2="92.58757" gradientUnits="userSpaceOnUse"/> <filter style="color-interpolation-filters:sRGB" id="filter1874" x="-0.11898048" width="1.2379611" y="-0.20289764" height="1.4057953"> <feGaussianBlur stdDeviation="2.1013485" id="feGaussianBlur1876"/> </filter> <filter style="color-interpolation-filters:sRGB" id="filter1882" x="-0.10615279" width="1.2123055" y="-0.25556168" height="1.5111234"> <feGaussianBlur stdDeviation="1.9604592" id="feGaussianBlur1884"/> </filter> <linearGradient gradientTransform="translate(-1.2866212e-4,-2.2440535e-4)" xlink:href="#linearGradient1707" id="linearGradient1709-3" x1="93.132797" y1="92.850906" x2="84.25515" y2="92.58757" gradientUnits="userSpaceOnUse"/> <linearGradient xlink:href="#linearGradient2027" id="linearGradient2029" x1="24.134439" y1="84.46727" x2="141.06487" y2="54.158909" gradientUnits="userSpaceOnUse"/> </defs> <metadata id="metadata5"> </metadata> <g id="layer1" transform="translate(-30.600901,-32.940699)"> <path style="fill:url(#linearGradient2029);fill-opacity:1;stroke:none;stroke-width:0.26458332px;stroke-linecap:butt;stroke-linejoin:miter;stroke-opacity:1" d="m 32.670427,83.197546 c 10.216906,9.815237 25.416342,5.993772 37.084888,11.484545 11.668546,5.490769 31.665815,12.159899 37.086485,-1.911376 5.42067,-14.071276 11.70838,-16.141301 24.29243,-23.385554 C 143.71828,62.140908 123.6099,49.506162 112.04289,53.38226 100.47588,57.258358 84.484665,51.881336 72.588191,48.171318 60.691717,44.4613 55.509536,61.883316 54.187099,65.138171 52.864662,68.393026 22.532837,72.115051 32.670427,83.197546 Z" id="path2016"/> <path style="fill:url(#linearGradient1709);fill-opacity:1;stroke:none;stroke-width:0.26458332px;stroke-linecap:butt;stroke-linejoin:miter;stroke-opacity:1" d="m 103.47376,78.04664 c 0,0 0.98941,3.270694 0.42244,4.451871 C 103.32924,83.679685 92.338839,97.06061 88.7307,95.323363 85.122561,93.586112 40.915923,78.435268 40.159969,76.545386 c -0.755952,-1.889882 0.380756,-5.680292 0.380756,-5.680292 z" id="path1701"/> <path style="fill:url(#linearGradient1052);fill-opacity:1;stroke:none;stroke-width:0.26458332px;stroke-linecap:butt;stroke-linejoin:miter;stroke-opacity:1" d="m 110.26433,73.495855 c 0,0 3.39609,-6.167144 3.9316,-8.733582 0.20124,-0.964415 1.17188,-17.800891 -1.7458,-24.605631 -1.62289,-3.784968 -8.80596,6.73849 -9.17187,9.446525 -0.31832,2.355785 6.98607,23.892688 6.98607,23.892688 z" id="path841"/> <path style="fill:url(#linearGradient1697);fill-opacity:1;stroke:none;stroke-width:0.26458332px;stroke-linecap:butt;stroke-linejoin:miter;stroke-opacity:1" d="m 60.685827,43.093949 c 0,0 14.95864,-11.032398 32.732065,-10.096956 17.773418,0.935443 20.105178,7.038417 19.169738,9.844746 -0.48422,2.711334 -1.17522,5.04643 -3.79328,5.5976 0,0 -40.342063,-7.34991 -48.108523,-5.34539 z" id="path839"/> <path style="fill:#28170b;stroke:none;stroke-width:0.26458332px;stroke-linecap:butt;stroke-linejoin:miter;stroke-opacity:1" d="m 90.940004,32.99698 c -0.31473,0.0025 -0.628047,0.0097 -0.940512,0.01912 0.31233,-0.0094 0.625367,-0.01615 0.939994,-0.0186 0.270097,-0.0021 0.541086,-0.0016 0.812871,0.0016 -0.271648,-0.0032 -0.542277,-0.0042 -0.812353,-0.0021 z m 1.629873,0.01964 -8.005712,3.557922 -8.74727,-0.925524 c -0.748726,0.249426 -1.477807,0.507661 -2.184363,0.774112 l 9.104354,0.963249 -7.790222,3.461804 -8.948806,-0.946195 c -0.754414,0.406149 -1.41211,0.782481 -2.018998,1.139982 0.166436,-0.09798 0.326691,-0.193349 0.504362,-0.295589 l 8.637198,0.913639 -3.078366,1.367875 c 0.674211,0.04885 1.37083,0.105877 2.083594,0.168465 l 2.98328,-1.326017 9.524484,1.007691 -3.075781,1.367358 c 0.637738,0.08185 1.269362,0.158285 1.90996,0.243913 l 3.152781,-1.401465 8.478033,0.897103 -3.689181,1.639176 c 0.625435,0.0944 1.220523,0.18758 1.83038,0.281637 l 3.848862,-1.71049 9.523454,1.007173 -4.71651,2.095997 c 0.7093,0.119042 1.16178,0.198089 1.78077,0.303857 l 4.92528,-2.189014 3.24683,0.343132 c 0.12365,-0.307539 0.23099,-0.632136 0.32608,-0.971 l -1.74563,-0.184485 2.00142,-0.889352 c 0.0556,-0.267676 0.10969,-0.537386 0.15917,-0.81442 0.0416,-0.124896 0.0737,-0.258633 0.10128,-0.395842 l -4.25142,1.889291 -9.523446,-1.007174 7.789706,-3.461804 5.85856,0.6196 c 0.0279,0.08945 0.0533,0.177749 0.0749,0.265617 -0.15984,-0.650102 -0.48621,-1.343598 -1.04387,-2.041736 0.19196,0.241107 0.3562,0.482147 0.49661,0.720887 l -3.55843,-0.376722 2.40036,-1.066602 c 0.24983,0.240155 0.46951,0.48133 0.66146,0.722437 -0.38614,-0.483421 -0.88393,-0.967953 -1.50998,-1.440222 l -3.54191,1.574064 -8.479063,-0.897103 6.996473,-3.109371 c -0.47027,-0.149262 -0.97473,-0.290175 -1.49914,-0.426331 l -7.483775,3.325896 -9.526034,-1.007691 8.206734,-3.647322 c -0.438255,-0.03087 -0.880329,-0.06061 -1.338937,-0.08475 -0.283958,-0.01495 -0.567086,-0.02673 -0.849561,-0.03566 z m 2.188498,0.120406 c 0.373537,0.02632 0.735532,0.05631 1.094508,0.08733 -0.359143,-0.03102 -0.720852,-0.06101 -1.094508,-0.08733 z m 8.803075,1.329118 c -1.42975,-0.371217 -3.06646,-0.69045 -4.933543,-0.939994 1.866303,0.249671 3.503773,0.568747 4.933543,0.939994 z m 6.52364,2.85874 c -0.11159,-0.08418 -0.23092,-0.167846 -0.35089,-0.251147 0.11995,0.08331 0.23929,0.166967 0.35089,0.251147 z m 2.60552,5.176428 c 0.0431,-0.214397 0.0675,-0.442335 0.0698,-0.682128 -0.002,0.239439 -0.0267,0.467838 -0.0698,0.682128 z m 0.0698,-0.682128 c 7.9e-4,-0.07974 -10e-4,-0.160753 -0.006,-0.24288 0.005,0.08221 0.006,0.163066 0.006,0.24288 z m -0.006,-0.24288 c -0.0132,-0.24638 -0.0505,-0.502767 -0.11524,-0.766878 0.0649,0.26397 0.10178,0.520759 0.11524,0.766878 z m -0.58033,3.209107 c 0.0963,-0.343082 0.17885,-0.702753 0.25528,-1.070219 -0.0764,0.367457 -0.15899,0.727161 -0.25528,1.070219 z M 65.997858,39.901984 c 0.236781,-0.127474 0.48238,-0.257521 0.732771,-0.38809 -0.251227,0.131034 -0.495302,0.260245 -0.732771,0.38809 z m 7.634674,-3.478857 c -1.86367,0.702814 -3.573672,1.451441 -5.098397,2.18643 1.524244,-0.734263 3.234132,-1.483394 5.098397,-2.18643 z m -5.098397,2.18643 c -0.282789,0.136318 -0.557554,0.271302 -0.827339,0.406177 0.26974,-0.134783 0.544611,-0.26998 0.827339,-0.406177 z m 21.189921,-5.583639 c -0.230256,0.0084 -0.459912,0.01849 -0.688845,0.03049 0.22888,-0.01201 0.458626,-0.02209 0.688845,-0.03049 z m -0.974101,0.04651 c -0.240413,0.01417 -0.479964,0.03006 -0.718817,0.04806 0.238845,-0.01803 0.478398,-0.03386 0.718817,-0.04806 z m -0.923972,0.06356 c -0.314524,0.02516 -0.627838,0.05273 -0.939478,0.08423 0.311558,-0.03156 0.625012,-0.05903 0.939478,-0.08423 z m -0.973069,0.08785 c -0.310309,0.0316 -0.618749,0.0668 -0.926042,0.104387 0.307174,-0.03765 0.615837,-0.07273 0.926042,-0.104387 z m 9.301758,0.02636 c 0.343842,0.03129 0.680291,0.06476 1.01079,0.100252 -0.330809,-0.0355 -0.66666,-0.06895 -1.01079,-0.100252 z m -10.339419,0.09198 c -0.221047,0.02758 -0.440508,0.05834 -0.659908,0.08888 0.219416,-0.03061 0.43884,-0.06124 0.659908,-0.08888 z m 11.628746,0.03927 c 0.33328,0.03738 0.661083,0.07578 0.980819,0.117306 -0.319646,-0.04148 -0.647671,-0.07997 -0.980819,-0.117306 z m -13.547494,0.240296 c -0.126005,0.02096 -0.250293,0.04428 -0.375687,0.06615 0.12532,-0.0219 0.249758,-0.04515 0.375687,-0.06615 z m -1.298628,0.236678 c -0.167251,0.03244 -0.334679,0.06422 -0.500745,0.09819 0.165931,-0.034 0.333629,-0.06571 0.500745,-0.09819 z m -1.548225,0.324528 c -0.224399,0.0508 -0.446191,0.103765 -0.668176,0.157096 0.221792,-0.05336 0.443981,-0.106258 0.668176,-0.157096 z m -1.154451,0.276985 c -0.449525,0.112504 -0.893416,0.229095 -1.33222,0.350883 0.438489,-0.121825 0.883066,-0.238313 1.33222,-0.350883 z m -1.535309,0.407211 c -0.281299,0.07923 -0.560025,0.159748 -0.836641,0.242362 0.276484,-0.08263 0.555503,-0.163097 0.836641,-0.242362 z m -0.850593,0.246496 c -0.572783,0.17123 -1.134599,0.349611 -1.686203,0.533301 0.551355,-0.183607 1.113835,-0.362077 1.686203,-0.533301 z m 28.377601,0.05684 c 0.13249,0.04724 0.25664,0.09645 0.38447,0.144694 -0.12802,-0.04829 -0.25179,-0.0974 -0.38447,-0.144694 z m 0.77617,0.294039 c 0.15113,0.06042 0.29492,0.122205 0.43925,0.183968 -0.14446,-0.06178 -0.28799,-0.123532 -0.43925,-0.183968 z m 0.72864,0.309025 c 0.13751,0.06157 0.26986,0.123822 0.40101,0.186552 -0.13119,-0.0627 -0.26346,-0.125004 -0.40101,-0.186552 z m 0.68472,0.324528 c 0.127,0.06373 0.25072,0.128004 0.37155,0.192753 -0.12096,-0.06477 -0.24441,-0.129 -0.37155,-0.192753 z m 0.60564,0.320911 c 0.12638,0.07071 0.25061,0.141697 0.37001,0.213423 -0.11949,-0.07174 -0.24352,-0.142703 -0.37001,-0.213423 z m 0.55346,0.327112 c 0.12052,0.07517 0.24024,0.150259 0.35346,0.226342 -0.11324,-0.07606 -0.23291,-0.151199 -0.35346,-0.226342 z m -24.510652,0.850077 9.525519,1.00769 -7.790223,3.462321 -9.525518,-1.00769 z m 11.512476,1.218013 8.478036,0.896587 -7.789707,3.461804 L 88.447132,42.276 Z m -28.63701,0.254765 c -0.248851,0.124984 -0.490879,0.248568 -0.728123,0.371554 0.237173,-0.122916 0.47938,-0.246684 0.728123,-0.371554 z m -3.993039,2.191598 c -0.251449,0.150601 -0.478253,0.288406 -0.699182,0.425297 0.218582,-0.135134 0.451448,-0.277064 0.699182,-0.425297 z m -0.769461,0.469222 c -0.431639,0.268415 -0.798835,0.502627 -1.103291,0.703833 0.305966,-0.201328 0.673584,-0.437218 1.103291,-0.703833 z m -1.211297,0.775146 c -0.264231,0.175779 -0.354105,0.236609 -0.504362,0.341581 0.140878,-0.09699 0.291558,-0.200563 0.504362,-0.341581 z m 2.813783,0.30024 c -0.114356,8.73e-4 -0.214932,0.0059 -0.326078,0.0078 0.182057,-0.0031 0.365416,-0.0057 0.556038,-0.0062 -0.07451,1.56e-4 -0.156739,-0.0021 -0.22996,-0.0016 z m 0.992703,0.0067 c 0.177144,0.0025 0.357339,0.006 0.540536,0.01033 -0.18338,-0.0044 -0.363199,-0.0078 -0.540536,-0.01033 z m -2.090827,0.01964 c -0.02241,9.26e-4 -0.04493,0.0021 -0.06718,0.0031 0.02217,-9.79e-4 0.04484,-0.0022 0.06718,-0.0031 z m 3.547586,0.0186 c 0.143269,0.0055 0.290364,0.01268 0.436666,0.01912 -0.146439,-0.0065 -0.293251,-0.01361 -0.436666,-0.01912 z m -4.536673,0.04341 c -0.0675,0.0058 -0.134016,0.01167 -0.199472,0.01809 0.06551,-0.0065 0.131916,-0.01224 0.199472,-0.01809 z m 6.051825,0.02894 c 0.115372,0.0066 0.235003,0.01411 0.351917,0.02119 -0.117109,-0.0071 -0.236341,-0.0146 -0.351917,-0.02119 z m -6.506061,0.01602 c -0.0753,0.0087 -0.14686,0.01834 -0.21911,0.02791 0.07211,-0.0096 0.143965,-0.01921 0.21911,-0.02791 z m -0.435634,0.05736 c -0.09031,0.0137 -0.175043,0.02917 -0.259932,0.04444 0.08484,-0.0153 0.169698,-0.03072 0.259932,-0.04444 z m -0.40721,0.07028 c -0.129468,0.02566 -0.253156,0.05345 -0.368453,0.0832 0.115377,-0.02978 0.23894,-0.05749 0.368453,-0.0832 z m 23.573237,1.5844 c 0.968172,0.132277 1.93747,0.264508 2.8975,0.402043 -0.959736,-0.137714 -1.929077,-0.269628 -2.8975,-0.402043 z m 27.214364,1.115694 c -0.0625,0.154829 -0.13003,0.304146 -0.20154,0.449585 0.0715,-0.145324 0.13907,-0.294862 0.20154,-0.449585 z m -0.32246,0.684713 c -0.0226,0.0411 -0.0463,0.08125 -0.0698,0.121439 0.0235,-0.04018 0.0472,-0.08035 0.0698,-0.121439 z m -0.20878,0.344681 c -0.0236,0.03587 -0.0468,0.07196 -0.0713,0.106971 0.0245,-0.03496 0.0477,-0.07116 0.0713,-0.106971 z m -0.2682,0.366903 c -0.0227,0.02776 -0.0464,0.05456 -0.0698,0.08165 0.0234,-0.02709 0.047,-0.0539 0.0698,-0.08165 z m -0.26923,0.296106 c -0.0164,0.01632 -0.0319,0.03358 -0.0486,0.04961 0.0167,-0.01603 0.0322,-0.03328 0.0486,-0.04961 z m -0.30851,0.274402 c -0.0261,0.02072 -0.0523,0.04142 -0.0791,0.0615 0.0268,-0.02007 0.053,-0.04078 0.0791,-0.0615 z m -0.37052,0.259933 c -0.0219,0.01332 -0.0454,0.0253 -0.0677,0.03824 0.0224,-0.01294 0.0457,-0.02491 0.0677,-0.03824 z m -0.36122,0.190686 c -0.0225,0.01053 -0.0442,0.02186 -0.0672,0.03204 0.0229,-0.01016 0.0446,-0.02152 0.0672,-0.03204 z m -0.43305,0.172599 c -0.0288,0.0096 -0.0585,0.0188 -0.0879,0.02791 0.0294,-0.0091 0.059,-0.01829 0.0879,-0.02791 z" id="path839-7"/> <path style="fill:#ff8080;stroke:none;stroke-width:0.26458332px;stroke-linecap:butt;stroke-linejoin:miter;stroke-opacity:1" d="m 60.685828,43.093949 c -2.53906,3.207234 -2.13816,17.372519 -0.26727,18.976136 1.87089,1.603617 47.440342,14.098466 49.845772,11.42577 2.40542,-2.672696 1.20271,-24.254707 -1.46998,-25.056516 -2.6727,-0.801809 -45.569462,-8.552624 -48.108522,-5.34539 z" id="path815"/> <path style="fill:#ff5555;stroke:none;stroke-width:0.26458332px;stroke-linecap:butt;stroke-linejoin:miter;stroke-opacity:1;filter:url(#filter1874)" d="m 65.753358,46.269956 c -1.997966,2.523747 -1.682501,13.670296 -0.210312,14.932169 1.472188,1.261874 38.575794,11.125223 40.468604,9.022102 1.8928,-2.103123 -0.29896,-19.117089 -2.40207,-19.748026 -2.10313,-0.630937 -35.858256,-6.729991 -37.856222,-4.206245 z" id="path815-2"/> <path style="fill:#ff8080;stroke:none;stroke-width:0.26458332px;stroke-linecap:butt;stroke-linejoin:miter;stroke-opacity:1" d="M 53.202931,63.872533 C 62.463347,62.738605 102.52882,75.589796 103.47376,78.04664 104.4187,80.503487 91.7565,90.330866 89.299656,89.95289 86.842809,89.574914 40.35174,72.754974 40.540727,70.865095 40.729716,68.975213 53.202931,63.872533 53.202931,63.872533 Z" id="path1699"/> <path style="fill:#ff5555;stroke:none;stroke-width:0.26458332px;stroke-linecap:butt;stroke-linejoin:miter;stroke-opacity:1;filter:url(#filter1882)" d="m 58.781375,67.727003 c 6.516866,-0.797983 34.71228,8.245832 35.377273,9.974795 0.664979,1.728966 -8.245831,8.644823 -9.974795,8.378829 C 82.454887,85.814633 49.73756,73.977875 49.870556,72.647904 c 0.132998,-1.329974 8.910819,-4.920901 8.910819,-4.920901 z" id="path1699-4"/> <path style="fill:#28170b;fill-opacity:1;stroke:none;stroke-width:0.26458332px;stroke-linecap:butt;stroke-linejoin:miter;stroke-opacity:1" d="m 45.470686,73.613968 0.01291,5.578953 c 0.324709,0.13053 0.659212,0.272685 1.001493,0.408385 l -0.01292,-5.549188 c -0.267283,-0.112917 -0.968603,-0.424056 -1.001485,-0.43815 z" id="path2008"/> <path style="fill:#28170b;fill-opacity:1;stroke:none;stroke-width:0.26458332px;stroke-linecap:butt;stroke-linejoin:miter;stroke-opacity:1" d="m 55.223064,82.97722 0.0078,-5.344387 -0.998905,-0.394065 -0.0083,5.362743 z" id="path2006"/> <path style="fill:#28170b;stroke:none;stroke-width:0.26458332px;stroke-linecap:butt;stroke-linejoin:miter;stroke-opacity:1" d="m 62.837059,80.587404 0.997347,0.37311 -0.04443,5.181219 -0.99685,-0.362026 z" id="path2010"/> <path style="fill:none;stroke:none;stroke-width:0.26458332px;stroke-linecap:butt;stroke-linejoin:miter;stroke-opacity:1" d="m 73.726838,84.605505 0.997871,0.361219 -0.02841,5.133832 -1.050626,-0.379952 z" id="path2012"/> <path style="fill:#28170b;stroke:none;stroke-width:0.26458332px;stroke-linecap:butt;stroke-linejoin:miter;stroke-opacity:1" d="m 73.726838,84.605505 0.997871,0.361219 -0.02841,5.133832 -1.050623,-0.379949 z" id="path2014"/> </g> </svg>